<?xml version="1.0" standalone="no"?>
<!DOCTYPE svg PUBLIC "-//W3C//DTD SVG 1.1//EN" "http://www.w3.org/Graphics/SVG/1.1/DTD/svg11.dtd" >
<svg>
<metadata>
Created by FontForge 20090622 at Wed Feb  5 07:26:18 2020
 By deploy user
Noel Leu
</metadata>
<defs>
<font id="GTSuperDisplay-Medium" horiz-adv-x="580" >
  <font-face 
    font-family="GT Super Display Medium"
    font-weight="500"
    font-stretch="normal"
    units-per-em="1000"
    panose-1="0 0 6 0 0 0 0 0 0 0"
    ascent="763"
    descent="-237"
    x-height="506"
    cap-height="700"
    bbox="-361 -233 1189 870"
    underline-thickness="50"
    underline-position="-50"
    unicode-range="U+000D-U+FB02"
  />
<missing-glyph horiz-adv-x="662" 
d="M460 479q182 -89 182 -256q0 -132 -93 -215.5t-241 -83.5q-128 0 -208 58t-80 150q0 70 46 111t126 41q89 0 152.5 -50t63.5 -120q0 -45 -27.5 -72.5t-72.5 -27.5q-43 0 -70.5 27.5t-27.5 69.5q0 38 28 64.5t68 26.5q22 0 40 -6q-39 52 -114 52q-51 0 -81 -31.5
t-30 -86.5q0 -77 58 -127t147 -50q82 0 132.5 41t50.5 106q0 93 -129 156l-152 74q-153 75 -153 211q0 99 75.5 161t196.5 62q68 0 142.5 -17.5t121.5 -44.5l-72 -194h-5q-22 93 -93 156t-154 63q-43 0 -67 -18t-24 -49q0 -28 23.5 -52t77.5 -50z" />
    <glyph glyph-name="fi" unicode="fi" horiz-adv-x="592" 
d="M25 0v7q36 5 51 18t15 42v422h-63v17h63v20q0 99 57 148.5t154 49.5q66 0 133.5 -25t68.5 -69q0 -23 -14.5 -36.5t-39.5 -13.5q-41 0 -78 59q-35 59 -106 59q-46 0 -76 -27.5t-30 -76.5q0 -52 49 -88h72v-17h-72v-422q0 -29 14.5 -42t50.5 -18v-7h-249zM322 0v7
q36 5 51 18t15 42v324q0 42 -13 55t-53 13v6l184 50v-448q0 -29 15 -42t51 -18v-7h-250z" />
    <glyph glyph-name="fl" unicode="fl" horiz-adv-x="588" 
d="M25 0v7q36 5 51 18t15 42v422h-63v17h63v14q0 106 59 155t156 49q124 0 197 -44v-621q2 -24 17 -35.5t48 -16.5v-7h-249v7q36 5 51 18t15 42v570q-36 59 -117 59q-49 0 -77.5 -28t-28.5 -72q0 -57 47 -90h85v-17h-85v-422q0 -29 14.5 -42t50.5 -18v-7h-249z" />
    <glyph glyph-name="f_f" unicode="ff" horiz-adv-x="629" 
d="M558 720q65 0 112 -29l-34 -106l-6 1q-5 46 -30.5 74.5t-66.5 28.5t-61 -26.5t-20 -59.5q0 -66 47 -97h101v-17h-91v-422q0 -31 18 -43.5t67 -16.5v-7h-269v7q36 5 51 18t15 42v422h-63v17h63v36q0 45 10 75q-18 33 -52 54t-76 21q-56 0 -85 -29t-29 -72q1 -51 43 -85h77
v-17h-70v-422q0 -29 14.5 -42t50.5 -18v-7h-249v7q36 5 51 18t15 42v422h-63v17h63v27q0 90 54 138.5t145 48.5q88 0 147 -42q42 42 121 42z" />
    <glyph glyph-name="f_f_i" unicode="ffi" horiz-adv-x="892" 
d="M460 594q0 -52 49 -88h72v-17h-72v-422q0 -29 14.5 -42t50.5 -18v-7h-249v7q36 5 51 18t15 42v422h-63v17h63v20q0 47 14 84q-18 36 -52.5 59t-79.5 23q-56 0 -85 -29t-29 -72q1 -51 43 -85h77v-17h-70v-422q0 -29 14.5 -42t50.5 -18v-7h-249v7q36 5 51 18t15 42v422h-63
v17h63v27q0 90 54 138.5t145 48.5q95 0 155 -48q56 52 157 52q66 0 133.5 -25t68.5 -69q0 -23 -14.5 -36.5t-39.5 -13.5q-41 0 -78 59q-35 59 -106 59q-46 0 -76 -27.5t-30 -76.5zM806 67q0 -29 15 -42t51 -18v-7h-250v7q36 5 51 18t15 42v324q0 42 -13 55t-53 13v6l184 50
v-448z" />
    <glyph glyph-name="f_f_l" unicode="ffl" horiz-adv-x="888" 
d="M802 59q2 -24 17 -35.5t48 -16.5v-7h-249v7q36 5 51 18t15 42v570q-36 59 -117 59q-49 0 -77.5 -28t-28.5 -72q0 -57 47 -90h85v-17h-85v-422q0 -29 14.5 -42t50.5 -18v-7h-249v7q36 5 51 18t15 42v422h-63v17h63v14q0 52 15 90q-18 36 -52.5 59t-79.5 23q-56 0 -85 -29
t-29 -72q1 -51 43 -85h77v-17h-70v-422q0 -29 14.5 -42t50.5 -18v-7h-249v7q36 5 51 18t15 42v422h-63v17h63v27q0 90 54 138.5t145 48.5q95 0 155 -48q58 52 160 52q124 0 197 -44v-621z" />
    <glyph glyph-name="f_b.liga" unicode="fb" horiz-adv-x="873" 
d="M562 -15q-99 0 -177 44v607q-36 60 -117 60q-49 0 -77.5 -28t-28.5 -72q0 -57 47 -90h85v-17h-85v-422q0 -31 18 -43.5t67 -16.5v-7h-269v7q36 5 51 18t15 42v422h-63v17h63v14q0 105 59 154.5t156 49.5q124 0 197 -44v-254q17 41 61.5 68t95.5 27q80 0 130 -64t50 -171
q0 -136 -77.5 -218.5t-200.5 -82.5zM582 8q60 0 95 60.5t35 174.5q0 221 -123 221q-64 0 -86 -56v-362q26 -38 79 -38z" />
    <glyph glyph-name="f_f_b.liga" unicode="ffb" horiz-adv-x="1173" 
d="M960 521q80 0 130 -64t50 -171q0 -136 -77.5 -218.5t-200.5 -82.5q-99 0 -177 44v607q-36 60 -117 60q-49 0 -77.5 -28t-28.5 -72q0 -57 47 -90h85v-17h-85v-422q0 -31 18 -43.5t67 -16.5v-7h-269v7q36 5 51 18t15 42v422h-63v17h63v14q0 52 15 89q-18 36 -53 59.5
t-80 23.5q-56 0 -85 -29t-29 -72q1 -51 43 -85h77v-17h-70v-422q0 -29 14.5 -42t50.5 -18v-7h-249v7q36 5 51 18t15 42v422h-63v17h63v27q0 90 54 138.5t145 48.5q97 0 156 -49q57 53 160 53q124 0 197 -44v-254q17 41 61.5 68t95.5 27zM882 8q60 0 95 60.5t35 174.5
q0 221 -123 221q-64 0 -86 -56v-362q26 -38 79 -38z" />
    <glyph glyph-name="f_f_h.liga" unicode="ffh" horiz-adv-x="1188" 
d="M1102 67q0 -29 15 -42t51 -18v-7h-241v7q33 5 45 16.5t12 38.5v293q0 112 -88 112q-67 0 -93 -66v-339q0 -27 12 -38.5t45 -16.5v-7h-241v7q36 5 51 18t15 42v569q-36 60 -117 60q-49 0 -77.5 -28t-28.5 -72q0 -57 47 -90h85v-17h-85v-422q0 -29 14.5 -42t50.5 -18v-7
h-249v7q36 5 51 18t15 42v422h-63v17h63v14q0 50 15 88q-18 37 -52.5 60.5t-80.5 23.5q-56 0 -85 -29t-29 -72q1 -51 43 -85h77v-17h-70v-422q0 -29 14.5 -42t50.5 -18v-7h-249v7q36 5 51 18t15 42v422h-63v17h63v27q0 90 54 138.5t145 48.5q98 0 157 -50q58 54 159 54
q124 0 197 -44v-264q14 46 55 75.5t97 29.5q73 0 110 -41.5t37 -114.5v-298z" />
    <glyph glyph-name="f_f_j.liga" unicode="ffj" horiz-adv-x="879" 
d="M325 7q36 5 51 18t15 42v422h-63v17h63v20q0 46 14 83q-17 36 -52 59.5t-80 23.5q-56 0 -85 -29t-29 -72q1 -51 43 -85h77v-17h-70v-422q0 -29 14.5 -42t50.5 -18v-7h-249v7q36 5 51 18t15 42v422h-63v17h63v27q0 90 54 138.5t145 48.5q96 0 157 -49q56 53 155 53
q39 0 83 -9t81.5 -32.5t37.5 -54.5q0 -25 -14.5 -40t-40.5 -15q-40 0 -77 64q-34 62 -105 62q-47 0 -77 -27.5t-30 -77.5q0 -52 49 -88h72v-17h-72v-422q0 -31 18 -43.5t67 -16.5v-7h-269v7zM622 465l184 50v-561q0 -88 -39.5 -128.5t-104.5 -40.5q-79 0 -131 52l7 6
q37 -32 77 -32q35 0 54 23.5t19 62.5v494q0 42 -13 55t-53 13v6z" />
    <glyph glyph-name="f_f_k.liga" unicode="ffk" horiz-adv-x="1194" 
d="M803 62q0 -27 12 -38.5t45 -16.5v-7h-241v7q36 5 51 18t15 42v569q-36 60 -117 60q-49 0 -77.5 -28t-28.5 -72q0 -57 47 -90h85v-17h-85v-422q0 -29 14.5 -42t50.5 -18v-7h-249v7q36 5 51 18t15 42v422h-63v17h63v14q0 52 15 89q-18 36 -53 59.5t-80 23.5q-56 0 -85 -29
t-29 -72q1 -51 43 -85h77v-17h-70v-422q0 -29 14.5 -42t50.5 -18v-7h-249v7q36 5 51 18t15 42v422h-63v17h63v27q0 90 54 138.5t145 48.5q97 0 156 -49q57 53 160 53q124 0 197 -44v-618zM1093 79q29 -37 50 -52.5t46 -20.5v-6h-184l-197 267l157 125q53 42 53 69
q0 36 -59 39v6h193v-6q-54 -20 -124 -79l-116 -97z" />
    <glyph glyph-name="f_h.liga" unicode="fh" horiz-adv-x="888" 
d="M25 0v7q36 5 51 18t15 42v422h-63v17h63v14q0 103 59.5 153.5t155.5 50.5q124 0 197 -44v-264q14 46 55 75.5t97 29.5q73 0 110 -41.5t37 -114.5v-298q0 -29 15 -42t51 -18v-7h-241v7q33 5 45 16.5t12 38.5v293q0 112 -88 112q-67 0 -93 -66v-339q0 -27 12 -38.5
t45 -16.5v-7h-241v7q36 5 51 18t15 42v569q-36 60 -117 60q-49 0 -77.5 -28t-28.5 -72q0 -57 47 -90h85v-17h-85v-422q0 -29 14.5 -42t50.5 -18v-7h-249z" />
    <glyph glyph-name="f_j.liga" unicode="fj" horiz-adv-x="579" 
d="M25 0v7q36 5 51 18t15 42v422h-63v17h63v20q0 95 57.5 146.5t153.5 51.5q39 0 83 -9t81.5 -32.5t37.5 -54.5q0 -25 -14.5 -40t-40.5 -15q-40 0 -77 64q-34 62 -105 62q-47 0 -77 -27.5t-30 -77.5q0 -52 49 -88h72v-17h-72v-422q0 -31 18 -43.5t67 -16.5v-7h-269z
M362 -215q-79 0 -131 52l7 6q37 -32 77 -32q35 0 54 23.5t19 62.5v494q0 42 -13 55t-53 13v6l184 50v-561q0 -88 -39.5 -128.5t-104.5 -40.5z" />
    <glyph glyph-name="f_k.liga" unicode="fk" horiz-adv-x="894" 
d="M25 0v7q36 5 51 18t15 42v422h-63v17h63v14q0 105 59 154.5t156 49.5q124 0 197 -44v-618q0 -27 12 -38.5t45 -16.5v-7h-241v7q36 5 51 18t15 42v569q-36 60 -117 60q-49 0 -77.5 -28t-28.5 -72q0 -57 47 -90h85v-17h-85v-422q0 -29 14.5 -42t50.5 -18v-7h-249zM705 0
l-197 267l157 125q53 42 53 69q0 36 -59 39v6h193v-6q-54 -20 -124 -79l-116 -97l181 -245q29 -37 50 -52.5t46 -20.5v-6h-184z" />
    <glyph glyph-name=".notdef" horiz-adv-x="662" 
d="M460 479q182 -89 182 -256q0 -132 -93 -215.5t-241 -83.5q-128 0 -208 58t-80 150q0 70 46 111t126 41q89 0 152.5 -50t63.5 -120q0 -45 -27.5 -72.5t-72.5 -27.5q-43 0 -70.5 27.5t-27.5 69.5q0 38 28 64.5t68 26.5q22 0 40 -6q-39 52 -114 52q-51 0 -81 -31.5
t-30 -86.5q0 -77 58 -127t147 -50q82 0 132.5 41t50.5 106q0 93 -129 156l-152 74q-153 75 -153 211q0 99 75.5 161t196.5 62q68 0 142.5 -17.5t121.5 -44.5l-72 -194h-5q-22 93 -93 156t-154 63q-43 0 -67 -18t-24 -49q0 -28 23.5 -52t77.5 -50z" />
    <glyph glyph-name=".null" horiz-adv-x="600" 
 />
    <glyph glyph-name="nonmarkingreturn" horiz-adv-x="333" 
 />
    <glyph glyph-name="CR" unicode="&#xd;" horiz-adv-x="600" 
 />
    <glyph glyph-name="space" unicode=" " horiz-adv-x="217" 
 />
    <glyph glyph-name="exclam" unicode="!" horiz-adv-x="287" 
d="M136 204l-61 410q-3 12 -3 31q0 36 20 55.5t51 19.5q32 0 52 -19.5t20 -55.5q0 -19 -3 -31l-61 -410h-15zM144 -13q-30 0 -50.5 20.5t-20.5 50.5t20.5 50.5t50.5 20.5t50.5 -21t20.5 -50t-20.5 -50t-50.5 -21z" />
    <glyph glyph-name="quotedbl" unicode="&#x22;" horiz-adv-x="395" 
d="M105 470l-52 150q-7 25 -7 44q1 28 19.5 47t45.5 19q28 0 46.5 -19t19.5 -47q0 -15 -8 -44l-52 -150h-12zM278 470l-52 150q-7 25 -7 44q1 28 19.5 47t45.5 19q28 0 46.5 -19t19.5 -47q0 -15 -8 -44l-52 -150h-12z" />
    <glyph glyph-name="numbersign" unicode="#" horiz-adv-x="625" 
d="M605 450h-167l-43 -199h173v-25h-178l-51 -234h-26l51 234h-159l-51 -234h-26l51 234h-159v25h164l43 199h-170v25h175l49 225h26l-49 -225h159l49 225h26l-49 -225h162v-25zM369 251l43 199h-159l-43 -199h159z" />
    <glyph glyph-name="dollar" unicode="$" horiz-adv-x="506" 
d="M476 190q0 -84 -54.5 -139.5t-145.5 -64.5v-86h-26v85h-5q-120 0 -213 52l29 182h6q13 -90 61.5 -144t121.5 -59v253l-67 32q-139 67 -139 192q0 82 56.5 134.5t149.5 57.5v65h26v-65q110 -3 188 -49l-32 -174h-6q-28 173 -150 193v-243l66 -33q72 -36 103 -79.5
t31 -109.5zM218 441l32 -16v233h-7q-56 0 -90 -28t-34 -74q0 -38 21.5 -63.5t77.5 -51.5zM276 15q55 3 86.5 33.5t31.5 79.5q0 39 -22 66t-73 51l-23 11v-241z" />
    <glyph glyph-name="percent" unicode="%" horiz-adv-x="755" 
d="M145 -40l429 722h35l-427 -722h-37zM196 315q-71 0 -113.5 47.5t-42.5 125.5t42.5 125.5t113.5 47.5q72 0 114.5 -47.5t42.5 -125.5t-42.5 -125.5t-114.5 -47.5zM196 331q37 0 56 43t19 114t-19 114t-56 43t-55.5 -43t-18.5 -114t18.5 -114t55.5 -43zM559 -20
q-71 0 -113.5 47.5t-42.5 125.5t42.5 125.5t113.5 47.5q72 0 114.5 -47.5t42.5 -125.5t-42.5 -125.5t-114.5 -47.5zM559 -4q37 0 56 43t19 114t-19 114t-56 43t-55.5 -43t-18.5 -114t18.5 -114t55.5 -43z" />
    <glyph glyph-name="ampersand" unicode="&#x26;" horiz-adv-x="746" 
d="M733 105l5 -3q-16 -55 -54.5 -87t-87.5 -32q-42 0 -70.5 18.5t-64.5 63.5l-43 53q-28 -62 -81 -98.5t-118 -36.5q-81 0 -136 52t-55 134q0 78 44.5 133.5t129.5 83.5l-9 11q-43 52 -61.5 90.5t-18.5 80.5q0 65 51 108.5t138 43.5q99 0 167 -45l-39 -154h-6q-2 83 -34 132
t-95 49q-45 0 -67 -21.5t-22 -51.5q0 -31 14.5 -58t57.5 -80l295 -362q52 -67 102 -67q39 0 58 43zM299 53q75 0 112 74l-203 252q-79 -35 -79 -135q0 -80 47 -135.5t123 -55.5z" />
    <glyph glyph-name="quotesingle" unicode="'" horiz-adv-x="222" 
d="M105 470l-52 150q-7 25 -7 44q1 28 19.5 47t45.5 19q28 0 46.5 -19t19.5 -47q0 -15 -8 -44l-52 -150h-12z" />
    <glyph glyph-name="parenleft" unicode="(" horiz-adv-x="310" 
d="M299 -147q-44 19 -87.5 56.5t-83 92.5t-64 134t-24.5 167t24.5 167t64 134t83 92.5t87.5 56.5l3 -3q-81 -64 -125.5 -185t-44.5 -262t44.5 -262t125.5 -185z" />
    <glyph glyph-name="parenright" unicode=")" horiz-adv-x="310" 
d="M11 753q44 -19 87.5 -56.5t83 -92.5t64 -134t24.5 -167t-24.5 -167t-64 -134t-83 -92.5t-87.5 -56.5l-3 3q81 64 125.5 185t44.5 262t-44.5 262t-125.5 185z" />
    <glyph glyph-name="asterisk" unicode="*" horiz-adv-x="396" 
d="M349 618q10 -35 -31 -52q-16 -6 -43 -4l-64 3l53 -35q21 -14 34 -30q11 -15 9.5 -31.5t-17.5 -27.5q-28 -22 -57 12q-11 14 -19 41l-16 62l-17 -62q-6 -28 -18 -41q-28 -35 -58 -12q-29 22 -7 59q7 12 34 30l53 35l-64 -3q-25 -2 -44 4q-40 16 -29 52q11 37 54 25
q13 -4 38 -23l50 -40l-23 60q-9 20 -9 43q0 20 10.5 32t29.5 12q37 0 40 -44q1 -16 -9 -43l-24 -61l51 41q22 18 38 23q43 12 55 -25z" />
    <glyph glyph-name="plus" unicode="+" 
d="M490 319v-22h-188v-187h-23v187h-189v22h189v188h23v-188h188z" />
    <glyph glyph-name="comma" unicode="," horiz-adv-x="252" 
d="M71 -137l-5 16q84 25 84 75q0 32 -48 46q-56 17 -56 64q0 28 17.5 47t48.5 19q35 0 59.5 -28t24.5 -80q0 -120 -125 -159z" />
    <glyph glyph-name="hyphen" unicode="-" horiz-adv-x="364" 
d="M38 284v43h287v-43h-287z" />
    <glyph glyph-name="period" unicode="." horiz-adv-x="234" 
d="M117 -13q-30 0 -50.5 20.5t-20.5 50.5t20.5 50.5t50.5 20.5t50.5 -21t20.5 -50t-20.5 -50t-50.5 -21z" />
    <glyph glyph-name="slash" unicode="/" horiz-adv-x="338" 
d="M8 -60l293 822h29l-293 -822h-29z" />
    <glyph glyph-name="zero" unicode="0" horiz-adv-x="596" 
d="M298 -15q-109 0 -183 77t-74 211t74 211t183 77t183 -77t74 -211t-74 -211t-183 -77zM298 10q68 0 97.5 64.5t29.5 198.5t-29.5 198.5t-97.5 64.5t-97.5 -64.5t-29.5 -198.5t29.5 -198.5t97.5 -64.5z" />
    <glyph glyph-name="one" unicode="1" horiz-adv-x="423" 
d="M41 0v9q68 7 93 24.5t25 62.5v311q0 32 -12 47t-40 15q-22 0 -64 -15l-3 10l230 97h7v-465q0 -44 25.5 -62.5t92.5 -24.5v-9h-354z" />
    <glyph glyph-name="two" unicode="2" horiz-adv-x="487" 
d="M28 0v6l134 122q82 74 115.5 128t33.5 122q0 60 -30 93t-81 33q-52 0 -88.5 -33t-50.5 -92l-11 1q10 86 66.5 133.5t145.5 47.5q83 0 131 -39.5t48 -106.5q0 -64 -43.5 -118t-161.5 -141l-64 -51h292l-33 -105h-403z" />
    <glyph glyph-name="three" unicode="3" horiz-adv-x="497" 
d="M244 -155q-73 0 -129 29.5t-82 83.5l11 6q47 -79 134 -79q67 0 109 46.5t42 122.5t-42 117t-120 41h-20v14h21q69 0 110.5 42t41.5 111q0 64 -34.5 101.5t-94.5 37.5q-56 0 -93.5 -31.5t-51.5 -87.5l-10 4q11 73 68.5 115.5t145.5 42.5q91 0 145.5 -43.5t54.5 -117.5
q0 -73 -51.5 -121t-139.5 -57v-4q89 1 145 -45.5t56 -129.5q0 -84 -61.5 -141t-154.5 -57z" />
    <glyph glyph-name="four" unicode="4" horiz-adv-x="539" 
d="M287 -140v216h-277v21l345 449h52v-436h119v-34h-119v-216h-120zM52 111h235v310z" />
    <glyph glyph-name="five" unicode="5" horiz-adv-x="504" 
d="M206 -155q-141 0 -190 110l14 8q37 -85 139 -85q70 0 112 50.5t42 138.5q0 78 -38 124.5t-99 46.5q-60 0 -97 -34l-18 10l79 332h339l-31 -101h-299l-49 -202q46 31 121 31q110 0 166.5 -56t56.5 -149q0 -102 -71 -163t-177 -61z" />
    <glyph glyph-name="six" unicode="6" horiz-adv-x="563" 
d="M329 411q90 0 144.5 -52.5t54.5 -141.5q0 -100 -65.5 -166t-171.5 -66q-112 0 -181 82t-69 217q0 170 106 285.5t272 115.5q59 0 105 -16l-7 -17q-33 12 -83 12q-123 0 -187 -83t-73 -251q49 81 155 81zM289 2q53 0 80.5 48.5t27.5 134.5q0 90 -32 138t-91 48
q-67 0 -100 -62q-1 -12 -1 -36q0 -271 116 -271z" />
    <glyph glyph-name="seven" unicode="7" horiz-adv-x="467" 
d="M37 -140l349 585h-363l31 101h406l2 -4l-340 -682h-85z" />
    <glyph glyph-name="eight" unicode="8" horiz-adv-x="559" 
d="M415 340q111 -59 111 -159q0 -85 -68.5 -140.5t-183.5 -55.5q-107 0 -174 47.5t-67 126.5q0 123 166 169l-20 12q-127 69 -127 171q0 80 61.5 127t166.5 47q98 0 159.5 -42.5t61.5 -113.5q0 -104 -153 -151zM161 563q0 -80 85 -126l89 -51q63 43 63 134q0 71 -32.5 108.5
t-93.5 37.5q-53 0 -82 -27t-29 -76zM282 4q65 0 99.5 32.5t34.5 91.5q0 81 -83 123l-120 69q-75 -44 -75 -152q0 -78 38.5 -121t105.5 -43z" />
    <glyph glyph-name="nine" unicode="9" horiz-adv-x="563" 
d="M272 561q112 0 181 -82t69 -217q0 -177 -106 -297t-272 -120q-59 0 -105 16l7 17q33 -12 83 -12q242 0 260 351q-49 -82 -155 -82q-89 0 -143.5 53.5t-54.5 145.5q0 99 65.5 163t170.5 64zM289 174q67 0 101 65v34q0 270 -114 270q-53 0 -81.5 -48.5t-28.5 -133.5
q0 -90 32 -138.5t91 -48.5z" />
    <glyph glyph-name="colon" unicode=":" horiz-adv-x="234" 
d="M117 371q-30 0 -50.5 20.5t-20.5 50.5t20.5 50.5t50.5 20.5t50.5 -21t20.5 -50t-20.5 -50t-50.5 -21zM117 -13q-30 0 -50.5 20.5t-20.5 50.5t20.5 50.5t50.5 20.5t50.5 -21t20.5 -50t-20.5 -50t-50.5 -21z" />
    <glyph glyph-name="semicolon" unicode=";" horiz-adv-x="254" 
d="M117 371q-30 0 -50.5 20.5t-20.5 50.5t20.5 50.5t50.5 20.5t50.5 -21t20.5 -50t-20.5 -50t-50.5 -21zM73 -137l-5 16q84 25 84 75q0 32 -48 46q-56 17 -56 64q0 28 17.5 47t48.5 19q35 0 59.5 -28t24.5 -80q0 -120 -125 -159z" />
    <glyph glyph-name="less" unicode="&#x3c;" 
d="M490 64l-400 204v18l400 204v-26l-369 -187l369 -187v-26z" />
    <glyph glyph-name="equal" unicode="=" 
d="M91 377v22h399v-22h-399zM91 217v22h399v-22h-399z" />
    <glyph glyph-name="greater" unicode="&#x3e;" 
d="M90 64v26l369 187l-369 187v26l400 -204v-18z" />
    <glyph glyph-name="question" unicode="?" horiz-adv-x="454" 
d="M191 201v34q0 37 11.5 61t38.5 52q76 84 76 173q0 66 -36 104.5t-94 38.5q-130 0 -162 -140l-7 2q14 88 71 141t151 53q84 0 137 -48.5t53 -125.5q0 -112 -132 -193q-48 -31 -66.5 -60t-18.5 -74v-18h-22zM205 -13q-30 0 -50.5 20.5t-20.5 50.5t20.5 50.5t50.5 20.5
t50.5 -21t20.5 -50t-20.5 -50t-50.5 -21z" />
    <glyph glyph-name="at" unicode="@" horiz-adv-x="804" 
d="M403 330l41 8v12q0 112 -92 112q-75 0 -100 -71l-6 1q14 56 54.5 88.5t99.5 32.5q64 0 101.5 -38.5t37.5 -105.5v-174q0 -70 54 -70q59 0 98.5 63t39.5 157q0 141 -88.5 223.5t-228.5 82.5q-152 0 -246 -97.5t-94 -252.5q0 -165 98 -260t259 -95q172 0 247 103l5 -4
q-82 -131 -268 -131q-169 0 -275.5 105.5t-106.5 280.5q0 169 107 277t274 108q157 0 257 -93.5t100 -245.5q0 -116 -57.5 -187t-153.5 -71q-101 0 -115 86q-28 -78 -111 -78q-47 0 -75.5 25.5t-28.5 70.5q0 110 173 138zM383 140q27 0 43.5 21t17.5 56v108l-25 -5
q-92 -20 -92 -106q0 -35 15 -54.5t41 -19.5z" />
    <glyph glyph-name="A" unicode="A" horiz-adv-x="729" 
d="M635 104q18 -50 35.5 -70t51.5 -27v-7h-283v7q44 9 54 35t-9 84l-45 130h-249l-47 -136q-17 -58 -2.5 -81.5t60.5 -31.5v-7h-193v7q39 8 60.5 33t41.5 81l205 579h107zM199 281h232l-116 337z" />
    <glyph glyph-name="B" unicode="B" horiz-adv-x="643" 
d="M372 358q110 1 175 -45t65 -130q0 -88 -69.5 -135.5t-199.5 -47.5h-313v7q42 6 57 25.5t15 71.5v499q0 45 -15.5 64t-56.5 26v7h306q242 0 242 -166q0 -74 -55.5 -120t-150.5 -52v-4zM291 679h-57v-312h56q78 0 113.5 39.5t35.5 120.5q0 152 -148 152zM314 21
q72 0 112.5 42t40.5 119q0 165 -161 165h-72v-326h80z" />
    <glyph glyph-name="C" unicode="C" horiz-adv-x="648" 
d="M346 -20q-141 0 -227 98.5t-86 261.5q0 170 95 275t247 105q120 0 226 -46l-37 -235h-8q-15 231 -210 231q-95 0 -151.5 -67t-56.5 -180q0 -147 77.5 -240t200.5 -93q151 0 186 133l8 -3q-47 -240 -264 -240z" />
    <glyph glyph-name="D" unicode="D" horiz-adv-x="712" 
d="M311 700q172 0 268.5 -92.5t96.5 -256.5q0 -168 -99.5 -259.5t-264.5 -91.5h-282v7q42 6 57 25.5t15 71.5v499q0 45 -15.5 64t-56.5 26v7h281zM282 21q132 0 190.5 72t58.5 250q0 183 -60 259.5t-189 76.5h-48v-658h48z" />
    <glyph glyph-name="E" unicode="E" horiz-adv-x="606" 
d="M559 265h6l-26 -265h-509v7q42 6 57 25.5t15 71.5v499q0 45 -15.5 64t-56.5 26v7h497l19 -230h-7q-28 109 -77 159t-139 50h-89v-309h60q62 0 95 31.5t47 96.5h6v-284h-6q-14 68 -47 101t-95 33h-60v-327h87q106 0 156 54t82 190z" />
    <glyph glyph-name="F" unicode="F" horiz-adv-x="564" 
d="M527 700l19 -230h-7q-29 112 -84.5 160.5t-150.5 48.5h-70v-320h62q118 0 140 132h6v-284h-6q-22 133 -140 133h-62v-233q0 -53 21.5 -74t83.5 -26v-7h-309v7q40 6 55.5 23.5t16.5 62.5v510q0 45 -15.5 64t-56.5 26v7h497z" />
    <glyph glyph-name="G" unicode="G" horiz-adv-x="729" 
d="M711 332v-7q-41 -7 -56.5 -27t-15.5 -63v-183q-105 -72 -247 -72q-163 0 -261 100t-98 266q0 172 105 273t283 101q112 0 218 -43l-34 -214h-7q-12 225 -193 225q-106 0 -164.5 -83t-58.5 -232q0 -161 65 -265t166 -104q72 0 99 37v176q0 56 -23 77.5t-94 30.5v7h316z
" />
    <glyph glyph-name="H" unicode="H" horiz-adv-x="759" 
d="M729 693q-41 -6 -56.5 -26t-15.5 -68v-498q0 -48 15.5 -68t56.5 -26v-7h-276v7q41 6 56.5 26t15.5 68v240h-291v-240q0 -48 15.5 -68t56.5 -26v-7h-276v7q41 6 56.5 26t15.5 68v498q0 48 -15.5 68t-56.5 26v7h276v-7q-41 -6 -56.5 -26t-15.5 -68v-232h291v232
q0 48 -15.5 68t-56.5 26v7h276v-7z" />
    <glyph glyph-name="I" unicode="I" horiz-adv-x="336" 
d="M306 693q-41 -7 -56.5 -27t-15.5 -63v-499q0 -47 16 -69t56 -28v-7h-276v7q42 6 57 25.5t15 71.5v499q0 45 -15.5 64t-56.5 26v7h276v-7z" />
    <glyph glyph-name="J" unicode="J" horiz-adv-x="326" 
d="M66 -78q-51 0 -78 12v5q9 -2 24 -2q49 0 75.5 35t26.5 103v528q0 45 -15.5 64t-56.5 26v7h276v-7q-41 -7 -56.5 -27t-15.5 -63v-493q0 -92 -47.5 -140t-132.5 -48z" />
    <glyph glyph-name="K" unicode="K" horiz-adv-x="726" 
d="M306 693q-41 -7 -56.5 -27t-15.5 -63v-499q0 -47 16 -69t56 -28v-7h-276v7q42 6 57 25.5t15 71.5v499q0 45 -15.5 64t-56.5 26v7h276v-7zM606 92q36 -47 57 -63.5t56 -21.5v-7h-215l-270 360l216 208q32 31 43.5 46.5t11.5 31.5q0 22 -17 33t-58 14v7h243v-7
q-47 -8 -81.5 -31t-86.5 -72l-160 -156z" />
    <glyph glyph-name="L" unicode="L" horiz-adv-x="560" 
d="M529 276h7l-28 -276h-478v7q42 6 57 25.5t15 71.5v499q0 45 -15.5 64t-56.5 26v7h276v-7q-41 -7 -56.5 -27t-15.5 -63v-582h47q111 0 164.5 59.5t83.5 195.5z" />
    <glyph glyph-name="M" unicode="M" horiz-adv-x="907" 
d="M402 -10l-251 620l-27 -478q-4 -70 16 -93t83 -32v-7h-205v7q42 8 58 33.5t20 91.5l26 457q3 54 -11.5 75t-57.5 29v7h203l202 -501l202 501h196v-7q-42 -7 -57 -28.5t-12 -78.5l26 -478q2 -49 19 -71.5t57 -29.5v-7h-285v7q44 8 61 34.5t14 83.5l-22 489l-251 -624h-4z
" />
    <glyph glyph-name="N" unicode="N" horiz-adv-x="741" 
d="M515 700h211v-7q-47 -6 -67 -31t-20 -79v-593h-4l-485 598v-463q0 -61 21.5 -85.5t75.5 -32.5v-7h-217v7q51 6 71.5 32t20.5 86v497q-46 53 -92 71v7h202l380 -464v347q0 55 -20.5 78.5t-76.5 31.5v7z" />
    <glyph glyph-name="O" unicode="O" horiz-adv-x="774" 
d="M387 -20q-156 0 -255 103.5t-99 266.5t99 266.5t255 103.5t254.5 -103.5t98.5 -266.5t-98.5 -266.5t-254.5 -103.5zM387 9q205 0 205 341t-205 341t-205 -341t205 -341z" />
    <glyph glyph-name="P" unicode="P" horiz-adv-x="598" 
d="M307 304h-73v-197q0 -53 21.5 -74t83.5 -26v-7h-309v7q42 6 57 25.5t15 71.5v499q0 45 -15.5 64t-56.5 26v7h277q127 0 198.5 -49.5t71.5 -148.5t-71.5 -148.5t-198.5 -49.5zM280 679h-46v-354h46q72 0 113.5 46t41.5 131t-41.5 131t-113.5 46z" />
    <glyph glyph-name="Q" unicode="Q" horiz-adv-x="774" 
d="M701 -174q-287 0 -531 220q-137 122 -137 304q0 163 99 266.5t255 103.5t254.5 -103.5t98.5 -266.5q0 -150 -83 -249.5t-225 -115.5q156 -113 368 -113q121 0 186 44l5 -6q-103 -84 -290 -84zM387 9q205 0 205 341t-205 341t-205 -341t205 -341z" />
    <glyph glyph-name="R" unicode="R" horiz-adv-x="703" 
d="M30 0v7q42 6 57 25.5t15 71.5v499q0 45 -15.5 64t-56.5 26v7h287q260 0 260 -170q0 -77 -66 -124.5t-159 -47.5v-5q69 1 121 -29.5t76 -89.5l54 -134q35 -84 95 -92v-8h-190q-22 33 -48 104l-55 138q-25 62 -49 82.5t-74 20.5h-48v-241q0 -47 16 -69t56 -28v-7h-276z
M234 364h43q81 0 118 41t37 122q0 75 -31 113.5t-112 38.5h-55v-315z" />
    <glyph glyph-name="S" unicode="S" horiz-adv-x="549" 
d="M266 -20q-131 0 -234 58l28 201h6q17 -107 78 -167.5t152 -60.5q61 0 97.5 32.5t36.5 89.5q0 43 -24 71t-81 52l-127 57q-153 69 -153 204q0 89 63.5 146t182.5 57q118 0 215 -52l-33 -187h-6q-17 104 -70.5 156.5t-137.5 52.5q-63 0 -98 -28.5t-35 -76.5q0 -42 24 -68.5
t85 -53.5l137 -64q77 -34 110.5 -80t33.5 -114q0 -101 -68 -163t-182 -62z" />
    <glyph glyph-name="T" unicode="T" horiz-adv-x="597" 
d="M577 724h5v-264h-7q-13 113 -55.5 163.5t-120.5 50.5h-35v-567q0 -53 22 -74t83 -26v-7h-341v7q62 5 83.5 26t21.5 74v567h-35q-78 0 -120.5 -50.5t-55.5 -163.5h-6v264h5q21 -24 80 -24h395q58 0 81 24z" />
    <glyph glyph-name="U" unicode="U" horiz-adv-x="685" 
d="M677 700v-7q-41 -6 -59.5 -29.5t-18.5 -76.5v-332q0 -133 -63 -204t-187 -71q-130 0 -199.5 73t-69.5 212v338q0 45 -15.5 64t-56.5 26v7h287v-7q-46 -8 -63.5 -27.5t-17.5 -69.5v-325q0 -232 179 -232q178 0 178 234v307q0 55 -24.5 80.5t-77.5 32.5v7h208z" />
    <glyph glyph-name="V" unicode="V" horiz-adv-x="708" 
d="M352 -10l-249 602q-21 52 -41 74.5t-57 26.5v7h304v-7q-74 -5 -74 -57q0 -21 12 -51l163 -403l154 390q14 36 14 60q0 56 -70 61v7h195v-7q-39 -6 -61.5 -31t-47.5 -88l-238 -584h-4z" />
    <glyph glyph-name="W" unicode="W" horiz-adv-x="985" 
d="M796 700h184v-7q-36 -5 -56.5 -29t-42.5 -85l-215 -589h-4l-170 450l-166 -450h-4l-226 598q-20 55 -38.5 78t-52.5 27v7h282v-7q-57 -6 -57 -52q0 -28 15 -66l134 -370l98 273l-44 117q-17 45 -31 64.5t-43 33.5v7h277v-7q-68 -5 -68 -57q0 -20 10 -46l141 -384l132 369
q12 31 12 58q0 55 -67 60v7z" />
    <glyph glyph-name="X" unicode="X" horiz-adv-x="754" 
d="M619 114q37 -54 64.5 -77.5t62.5 -29.5v-7h-314v7q57 10 57 50q0 26 -46 94l-101 150l-128 -167q-38 -50 -38 -75q0 -41 65 -52v-7h-233v7q46 8 82.5 34t77.5 81l157 204l-183 269q-34 51 -61.5 72t-64.5 26v7h320v-7q-61 -4 -61 -45q0 -23 48 -94l96 -143l110 141
q47 60 47 91q0 45 -70 50v7h219v-7q-36 -6 -68 -32.5t-78 -87.5l-143 -187z" />
    <glyph glyph-name="Y" unicode="Y" horiz-adv-x="658" 
d="M459 700h191v-7q-60 -5 -111 -100l-146 -268v-232q2 -44 24.5 -62.5t79.5 -23.5v-7h-341v7q62 5 83.5 26t21.5 74v214l-150 278q-27 49 -50 70.5t-53 23.5v7h290v-7q-65 -6 -65 -54q0 -21 18 -56l127 -233l124 224q20 36 20 63q0 50 -63 56v7z" />
    <glyph glyph-name="Z" unicode="Z" horiz-adv-x="606" 
d="M23 0v5l400 673h-105q-64 -1 -108 -16t-72.5 -49t-45 -72.5t-33.5 -101.5h-7l27 261h499v-5l-397 -673h117q65 1 113.5 20t79 54.5t49 76.5t31.5 96h7l-29 -269h-526z" />
    <glyph glyph-name="bracketleft" unicode="[" horiz-adv-x="251" 
d="M241 725q-30 -2 -46.5 -6.5t-29 -18.5t-12.5 -40v-714q0 -37 21.5 -49t66.5 -16v-5h-170v854h170v-5z" />
    <glyph glyph-name="backslash" unicode="\" horiz-adv-x="333" 
d="M301 -60l-293 822h25l293 -822h-25z" />
    <glyph glyph-name="bracketright" unicode="]" horiz-adv-x="251" 
d="M10 725v5h170v-854h-170v5q30 2 46.5 6.5t29 18.5t12.5 40v714q0 37 -21.5 49t-66.5 16z" />
    <glyph glyph-name="asciicircum" unicode="^" horiz-adv-x="339" 
d="M26 460l135 245h18l135 -245h-26l-118 217l-118 -217h-26z" />
    <glyph glyph-name="underscore" unicode="_" horiz-adv-x="516" 
d="M0 -49v32h516v-32h-516z" />
    <glyph glyph-name="grave" unicode="`" horiz-adv-x="600" 
d="M205 561l-138 134v5h109l56 -139h-27z" />
    <glyph glyph-name="a" unicode="a" horiz-adv-x="540" 
d="M523 98l9 -1q-12 -53 -44.5 -82.5t-80.5 -29.5q-41 0 -65 23.5t-27 63.5l-2 12q-10 -40 -48 -69.5t-94 -29.5q-63 0 -99 35t-36 87q0 129 181 166l95 19v24q0 138 -117 138q-108 0 -136 -115l-7 2q11 84 63 132t135 48q90 0 135 -52.5t45 -148.5v-219q0 -56 39 -56t54 53
zM230 44q60 0 82 56v172l-57 -12q-106 -20 -106 -118q0 -42 21 -70t60 -28z" />
    <glyph glyph-name="b" unicode="b" horiz-adv-x="563" 
d="M350 521q80 0 130 -64t50 -171q0 -136 -77.5 -218.5t-200.5 -82.5q-99 0 -177 44v577q0 39 -13.5 52t-52.5 13v7l184 52v-304q17 41 61.5 68t95.5 27zM272 8q60 0 95 60.5t35 174.5q0 221 -123 221q-64 0 -86 -56v-362q26 -38 79 -38z" />
    <glyph glyph-name="c" unicode="c" horiz-adv-x="474" 
d="M252 -15q-100 0 -160.5 70.5t-60.5 186.5q0 127 67.5 203t178.5 76q92 0 158 -34l-34 -176h-7q-4 79 -37 122t-95 43q-70 0 -107.5 -47.5t-37.5 -133.5q0 -85 50 -148.5t134 -63.5q108 0 135 96l8 -2q-8 -88 -60 -140t-132 -52z" />
    <glyph glyph-name="d" unicode="d" horiz-adv-x="573" 
d="M488 79q0 -37 15 -51.5t50 -20.5v-6h-183v84q-16 -42 -54 -71t-92 -29q-84 0 -137.5 68.5t-53.5 181.5q0 130 70 208t173 78q51 0 94 -25v116q0 35 -20 47t-71 5v7l209 59v-651zM289 50q60 0 81 52v339q-9 24 -30.5 40.5t-51.5 16.5q-59 0 -93 -61t-34 -169
q0 -101 36 -159.5t92 -58.5z" />
    <glyph glyph-name="e" unicode="e" horiz-adv-x="479" 
d="M438 180l8 -2q-17 -98 -70.5 -145.5t-126.5 -47.5q-94 0 -156 68t-62 191t60 200t163 77q83 0 136.5 -57t50.5 -163h-320q5 -103 53 -160.5t126 -57.5q48 0 83 20.5t55 76.5zM231 497q-50 0 -80 -47.5t-30 -127.5h207q1 90 -25 132.5t-72 42.5z" />
    <glyph glyph-name="f" unicode="f" horiz-adv-x="329" 
d="M258 720q65 0 112 -29l-34 -106l-6 1q-5 46 -30.5 74.5t-66.5 28.5t-61 -26.5t-20 -59.5q0 -66 47 -97h101v-17h-91v-422q0 -31 18 -43.5t67 -16.5v-7h-269v7q36 5 51 18t15 42v422h-63v17h63v36q0 178 167 178z" />
    <glyph glyph-name="g" unicode="g" horiz-adv-x="514" 
d="M358 100q140 -9 140 -120q0 -81 -66 -138t-194 -57q-107 0 -163.5 33t-56.5 90q0 35 24 62.5t70 40.5q-62 24 -62 93q0 37 24 67t65 40q-86 45 -86 142q0 74 55 121t145 47q51 0 90 -15h146v-17h-111q76 -47 76 -136q0 -75 -55 -121.5t-146 -46.5q-54 0 -100 19
q-48 -9 -48 -45q0 -40 70 -45zM254 505q-39 1 -62 -38.5t-23 -116.5q0 -74 22.5 -111.5t62.5 -37.5q39 0 62 38t23 111q0 76 -23 115.5t-62 39.5zM275 -181q82 0 127 29.5t45 73.5q0 33 -20 46t-70 17l-202 16q-18 2 -27 4q-33 -22 -33 -65q0 -55 48.5 -88t131.5 -33z" />
    <glyph glyph-name="h" unicode="h" horiz-adv-x="588" 
d="M20 0v7q36 5 51 18t15 42v539q0 39 -13.5 52t-52.5 13v7l184 52v-314q13 46 54.5 75.5t97.5 29.5q72 0 109.5 -41.5t37.5 -114.5v-298q0 -29 14.5 -42t50.5 -18v-7h-240v7q32 5 44 16t12 39v293q0 112 -88 112q-66 0 -92 -66v-339q0 -28 12 -39t44 -16v-7h-240z" />
    <glyph glyph-name="i" unicode="i" horiz-adv-x="294" 
d="M144 570q-30 0 -50.5 20t-20.5 50q0 31 20 51t51 20q30 0 50.5 -20.5t20.5 -50.5q0 -29 -20.5 -49.5t-50.5 -20.5zM209 67q0 -29 14.5 -42t50.5 -18v-7h-249v7q36 5 51 18t15 42v324q0 42 -13.5 55t-52.5 13v6l184 50v-448z" />
    <glyph glyph-name="j" unicode="j" horiz-adv-x="276" 
d="M137 570q-31 0 -51 20t-20 50q0 31 20 51t51 20q30 0 50.5 -20.5t20.5 -50.5q0 -29 -20.5 -49.5t-50.5 -20.5zM44 -215q-44 0 -71 12v4q11 -3 22 -3q89 0 89 133v460q0 42 -13 55t-53 13v6l184 50v-554q0 -83 -39 -129.5t-119 -46.5z" />
    <glyph glyph-name="k" unicode="k" horiz-adv-x="594" 
d="M20 0v7q36 5 51 18t15 42v539q0 39 -13.5 52t-52.5 13v7l184 52v-668q0 -27 14 -38.5t51 -16.5v-7h-249zM406 0l-197 267l157 125q52 41 52 69q0 36 -58 39v6h193v-6q-55 -21 -124 -79l-116 -97l180 -245q29 -37 50 -52.5t46 -20.5v-6h-183z" />
    <glyph glyph-name="l" unicode="l" horiz-adv-x="289" 
d="M204 67q0 -29 14.5 -42t50.5 -18v-7h-249v7q36 5 51 18t15 42v539q0 39 -13.5 52t-52.5 13v7l184 52v-663z" />
    <glyph glyph-name="m" unicode="m" horiz-adv-x="855" 
d="M770 67q0 -29 14.5 -42t50.5 -18v-7h-238v7q31 4 42.5 11.5t12.5 26.5v311q0 112 -82 112q-58 0 -84 -65q3 -18 3 -37v-304q0 -27 12 -38.5t45 -16.5v-7h-232v7q33 5 45 16t12 39v294q0 112 -82 112q-56 0 -80 -61v-345q0 -28 12 -39t44 -16v-7h-240v7q36 5 51 18t15 42
v327q0 41 -13.5 54.5t-52.5 12.5v7l184 50v-95q14 44 51 71t88 27q110 0 135 -102q17 47 55 74.5t91 27.5q70 0 105.5 -42t35.5 -113v-299z" />
    <glyph glyph-name="n" unicode="n" horiz-adv-x="593" 
d="M508 67q0 -29 14.5 -42t50.5 -18v-7h-240v7q32 5 44 16t12 39v292q0 114 -86 114q-67 0 -94 -67v-339q0 -28 12 -39t44 -16v-7h-240v7q36 5 51 18t15 42v327q0 41 -13.5 54.5t-52.5 12.5v7l184 50v-103q13 46 54.5 76t97.5 30q72 0 109.5 -42t37.5 -115v-297z" />
    <glyph glyph-name="o" unicode="o" horiz-adv-x="559" 
d="M280 -15q-113 0 -181 75t-68 193t68 193t181 75t181 -75t68 -193t-68 -193t-181 -75zM280 11q64 0 93 60t29 182t-29 182t-93 60t-93.5 -60t-29.5 -182t29.5 -182t93.5 -60z" />
    <glyph glyph-name="p" unicode="p" horiz-adv-x="568" 
d="M15 -200v7q36 5 51 18t15 42v527q0 41 -13.5 54.5t-52.5 12.5v7l184 50v-90q19 43 58 68t91 25q81 0 134.5 -67t53.5 -177q0 -128 -68 -210t-168 -82q-58 0 -101 33v-151q0 -31 18 -43.5t67 -16.5v-7h-269zM283 7q54 0 89.5 62.5t35.5 171.5q0 102 -35 162t-92 60
q-58 0 -82 -47v-364q27 -45 84 -45z" />
    <glyph glyph-name="q" unicode="q" horiz-adv-x="564" 
d="M488 -133q0 -29 14.5 -42t50.5 -18v-7h-269v7q50 5 68 17t18 43v214q-16 -41 -57.5 -68.5t-92.5 -27.5q-82 0 -134.5 69t-52.5 169q0 139 76.5 218.5t201.5 79.5q93 0 177 -47v-607zM289 50q59 0 81 48v360q-26 43 -78 43q-59 0 -95 -59.5t-36 -156.5q0 -115 34.5 -175
t93.5 -60z" />
    <glyph glyph-name="r" unicode="r" horiz-adv-x="382" 
d="M361 521h8v-118h-5q-14 8 -46 8q-53 0 -81 -39t-28 -135v-170q0 -31 18 -43.5t67 -16.5v-7h-269v7q36 5 51 18t15 42v321q0 44 -13.5 59t-52.5 14v7l179 50v-208h4q13 211 153 211z" />
    <glyph glyph-name="s" unicode="s" horiz-adv-x="434" 
d="M206 -15q-100 0 -174 51l26 148l8 -1q10 -75 57 -121t110 -46q46 0 70.5 22.5t24.5 57.5q0 53 -72 80l-118 50q-95 40 -95 135q0 67 50.5 113.5t143.5 46.5q92 0 156 -39l-28 -132h-8q-28 143 -148 143q-45 0 -67.5 -20t-22.5 -51q0 -53 65 -79l116 -48q101 -42 101 -135
q0 -76 -52.5 -125.5t-142.5 -49.5z" />
    <glyph glyph-name="t" unicode="t" horiz-adv-x="348" 
d="M333 110l8 -3q-17 -57 -55 -89.5t-93 -32.5t-84 33t-29 90v380h-65v6q122 50 178 168h5v-157h108v-17h-108v-361q0 -38 15 -60t43 -22q55 0 77 65z" />
    <glyph glyph-name="u" unicode="u" horiz-adv-x="573" 
d="M488 78q0 -37 15 -51.5t50 -19.5v-7h-184v88q-16 -44 -55 -73.5t-89 -29.5q-70 0 -108.5 40.5t-38.5 122.5v263q0 42 -13.5 55.5t-52.5 12.5v7l184 32v-361q0 -53 24 -82t66 -27q59 2 83 55v309q0 42 -11.5 55.5t-46.5 13.5v6l177 31v-440z" />
    <glyph glyph-name="v" unicode="v" horiz-adv-x="533" 
d="M263 -10l-182 421q-18 43 -35 63t-41 25v7h255v-7q-61 -6 -61 -46q0 -19 12 -46l106 -250l105 246q13 32 13 50q0 41 -61 46v7h154v-7q-27 -7 -42 -24.5t-34 -62.5l-183 -422h-6z" />
    <glyph glyph-name="w" unicode="w" horiz-adv-x="821" 
d="M666 506h150v-7q-23 -7 -39.5 -25.5t-33.5 -61.5l-174 -422h-5l-150 349l-151 -349h-6l-172 421q-32 79 -80 88v7h243v-7q-46 -9 -46 -44q0 -18 13 -50l98 -249l88 214l-22 52q-28 69 -66 77v7h244v-7q-58 -3 -58 -44q0 -17 11 -48l101 -254l101 251q12 32 12 50
q0 42 -58 45v7z" />
    <glyph glyph-name="x" unicode="x" horiz-adv-x="564" 
d="M470 78q42 -63 87 -71v-7h-270v7q58 3 58 36q0 19 -16 45l-84 127l-84 -111q-27 -34 -27 -54q0 -17 17 -29t44 -14v-7h-185v7q54 10 102 71l119 157l-128 193q-23 36 -43 51.5t-47 19.5v7h270v-6q-58 -7 -58 -36q0 -20 18 -46l72 -108l67 89q29 38 29 58q0 37 -60 43v6
h182v-7q-57 -9 -106 -77l-99 -132z" />
    <glyph glyph-name="y" unicode="y" horiz-adv-x="534" 
d="M81 -215q-50 0 -88 22l25 109h5q33 -31 97 -31q49 0 81.5 16.5t53.5 58.5l7 16l-176 433q-33 83 -80 90v7h254v-7q-31 -4 -44.5 -14.5t-13.5 -30.5q0 -21 11 -51l101 -275l108 267q11 25 11 49q0 47 -57 55v7h153v-7q-27 -8 -42.5 -28t-32.5 -66l-176 -444
q-37 -101 -85.5 -138.5t-111.5 -37.5z" />
    <glyph glyph-name="z" unicode="z" horiz-adv-x="482" 
d="M22 0v2l299 486h-68q-82 0 -129.5 -46.5t-72.5 -137.5h-5l28 202h386v-3l-299 -485h59q93 0 144.5 45.5t80.5 156.5h5l-22 -220h-406z" />
    <glyph glyph-name="braceleft" unicode="{" horiz-adv-x="294" 
d="M282 -137q-85 5 -135 54t-50 129v159q0 70 -61 101v6q61 31 61 108v140q0 80 50 129t135 54v-5q-47 -10 -72.5 -52.5t-25.5 -110.5v-133q0 -71 -61 -108q61 -37 61 -108v-195q0 -67 26 -110t72 -53v-5z" />
    <glyph glyph-name="bar" unicode="|" horiz-adv-x="171" 
d="M100 730v-854h-29v854h29z" />
    <glyph glyph-name="braceright" unicode="}" horiz-adv-x="294" 
d="M13 -137v5q48 10 73 54t25 109v169q0 34 13.5 59.5t22 32t25.5 16.5q-17 10 -25.5 16.5t-22 32t-13.5 59.5v159q0 64 -25.5 108.5t-72.5 54.5v5q89 -4 137 -55t48 -128v-123q0 -69 61 -101v-6q-61 -29 -61 -108v-176q0 -77 -48 -128t-137 -55z" />
    <glyph glyph-name="asciitilde" unicode="~" horiz-adv-x="579" 
d="M401 286q-61 0 -136.5 30.5t-119.5 30.5q-70 0 -100 -55l-7 1q28 91 139 91q44 0 119.5 -30.5t136.5 -30.5q69 0 101 56l6 -2q-29 -91 -139 -91z" />
    <glyph glyph-name="DEL" horiz-adv-x="600" 
 />
    <glyph glyph-name="uni00A0" unicode="&#xa0;" horiz-adv-x="217" 
 />
    <glyph glyph-name="exclamdown" unicode="&#xa1;" horiz-adv-x="287" 
d="M144 518q30 0 50.5 -21t20.5 -50t-20.5 -50t-50.5 -21t-50.5 20.5t-20.5 50.5t20.5 50.5t50.5 20.5zM136 301h15l61 -410q3 -12 3 -31q0 -36 -20 -55.5t-52 -19.5q-31 0 -51 19.5t-20 55.5q0 19 3 31z" />
    <glyph glyph-name="cent" unicode="&#xa2;" horiz-adv-x="508" 
d="M475 184q-7 -85 -55.5 -138t-124.5 -61v-85h-24v84q-108 0 -174 76t-66 200q0 132 65 213t175 88v82h24v-82q103 -2 173 -36l-35 -180h-8q-10 162 -130 177v-438q16 -2 26 -2q118 0 146 104zM120 326q0 -90 41.5 -154.5t109.5 -82.5v435h-2q-71 0 -110 -51.5t-39 -146.5z
" />
    <glyph glyph-name="sterling" unicode="&#xa3;" horiz-adv-x="548" 
d="M493 203l7 -1q-8 -217 -156 -217q-30 0 -87 17t-97 17q-70 0 -117 -34l-10 6q62 61 83.5 106.5t21.5 94.5q0 65 -25 122h-72v20h64q-36 78 -36 142q0 94 61 151.5t162 57.5q122 0 199 -52l-34 -168h-5q-17 99 -58 147.5t-114 48.5q-54 0 -85.5 -29.5t-31.5 -80.5
q0 -50 33.5 -118.5t39.5 -98.5h162v-20h-159q1 -7 1 -22q0 -100 -94 -200l5 -4q38 29 82 29q22 0 72 -15.5t89 -15.5q48 0 70.5 27t28.5 90z" />
    <glyph glyph-name="currency" unicode="&#xa4;" horiz-adv-x="592" 
d="M96 139l-11 11l64 64q-51 56 -51 136t51 136l-64 64l11 11l63 -63q56 53 137 53t137 -53l63 63l11 -11l-64 -64q51 -56 51 -136t-51 -136l64 -64l-11 -11l-63 63q-56 -53 -137 -53t-137 53zM296 165q79 0 129.5 53.5t50.5 131.5t-50.5 131.5t-129.5 53.5t-129.5 -53.5
t-50.5 -131.5t50.5 -131.5t129.5 -53.5z" />
    <glyph glyph-name="yen" unicode="&#xa5;" horiz-adv-x="623" 
d="M139 0v7q62 5 83.5 26t21.5 74v93h-140v21h140v70h-140v21h135l-128 257q-24 49 -48 70.5t-55 23.5v7h282v-7q-59 -6 -59 -54q0 -21 18 -56l112 -223l109 214q21 40 21 63q0 51 -57 56v7h182v-7q-63 -5 -111 -100l-126 -251h137v-21h-140v-70h140v-21h-140v-93
q0 -53 21.5 -74t83.5 -26v-7h-342z" />
    <glyph glyph-name="brokenbar" unicode="&#xa6;" horiz-adv-x="171" 
d="M100 730v-362h-29v362h29zM71 -124v392h29v-392h-29z" />
    <glyph glyph-name="section" unicode="&#xa7;" horiz-adv-x="507" 
d="M393 107q72 -51 72 -133q0 -85 -59.5 -137t-171.5 -52t-202 48l22 173h6q13 -90 68.5 -142.5t136.5 -52.5q58 0 90 27.5t32 77.5q0 37 -22 61t-74 47l-113 51q-135 61 -135 174q0 106 97 153q-79 53 -79 144q0 75 55 124.5t156 49.5q108 0 193 -45l-25 -162h-6
q-15 90 -64 135.5t-126 45.5q-56 0 -85 -24.5t-29 -66.5q0 -35 21.5 -57t77.5 -47l119 -55q67 -30 97.5 -73t30.5 -104q0 -107 -83 -160zM333 141q16 -7 44 -23q40 29 40 91q0 41 -21.5 66t-73.5 47l-125 51q-24 9 -40 19q-49 -26 -49 -84q0 -37 21 -61.5t72 -47.5z" />
    <glyph glyph-name="dieresis" unicode="&#xa8;" horiz-adv-x="600" 
d="M110 585q-26 0 -43 17t-17 43t17 43t43 17t42.5 -17t16.5 -43t-16.5 -43t-42.5 -17zM289 585q-26 0 -43 17t-17 43t17 43t43 17t42.5 -17t16.5 -43t-16.5 -43t-42.5 -17z" />
    <glyph glyph-name="copyright" unicode="&#xa9;" horiz-adv-x="847" 
d="M423 -40q-173 0 -281.5 108t-108.5 282t108.5 282t281.5 108t281.5 -108t108.5 -282t-108.5 -282t-281.5 -108zM424 -6q153 0 250.5 98.5t97.5 257.5t-97.5 257.5t-250.5 98.5t-250 -98.5t-97 -257.5t97 -257.5t250 -98.5zM424 150q-79 0 -126.5 55t-47.5 146
q0 92 53.5 150.5t138.5 58.5q65 0 125 -27l-21 -129h-5q-15 126 -116 126q-50 0 -80 -35t-30 -95q0 -80 42.5 -131t109.5 -51q80 0 99 68l6 -1q-27 -135 -148 -135z" />
    <glyph glyph-name="ordfeminine" unicode="&#xaa;" horiz-adv-x="459" 
d="M414 405l6 -1q-9 -41 -35.5 -63.5t-63.5 -22.5q-29 0 -47 16.5t-20 44.5l-1 7q-8 -28 -35.5 -48t-67.5 -20q-46 0 -72 25t-26 61q0 92 133 118l66 12v16q0 94 -83 94q-78 0 -99 -78l-5 1q8 60 47 94t101 34q67 0 101 -38t34 -106v-147q0 -39 28 -39t39 40zM198 364
q39 0 53 34v121l-36 -7q-73 -13 -73 -81q0 -29 14.5 -48t41.5 -19z" />
    <glyph glyph-name="guillemotleft" unicode="&#xab;" horiz-adv-x="501" 
d="M261 74l-210 200v5l210 201l7 -4l-125 -199l125 -200zM443 74l-210 200v5l210 201l7 -4l-125 -199l125 -200z" />
    <glyph glyph-name="logicalnot" unicode="&#xac;" 
d="M489 363v-190h-23v168h-375v22h398z" />
    <glyph glyph-name="uni00AD" unicode="&#xad;" horiz-adv-x="364" 
d="M38 284v43h287v-43h-287z" />
    <glyph glyph-name="registered" unicode="&#xae;" horiz-adv-x="574" 
d="M287 681q107 0 174 -70.5t67 -175.5t-67 -175.5t-174 -70.5t-174 70.5t-67 175.5t67 175.5t174 70.5zM287 219q93 0 149.5 61.5t56.5 154.5t-56.5 154.5t-149.5 61.5t-149.5 -61.5t-56.5 -154.5t56.5 -154.5t149.5 -61.5zM391 344q12 -32 29 -36v-3h-65q-8 14 -17 40
l-20 53q-8 23 -17 30.5t-28 7.5h-16v-91q0 -33 25 -37v-3h-102v3q15 2 20.5 10t5.5 27v192q0 18 -5.5 25.5t-20.5 9.5v3h107q96 0 96 -65q0 -32 -24 -49.5t-59 -17.5v-2q56 0 72 -46zM271 448q57 0 57 61q0 55 -53 55h-18v-116h14z" />
    <glyph glyph-name="macron" unicode="&#xaf;" horiz-adv-x="600" 
d="M50 608v32h290v-32h-290z" />
    <glyph glyph-name="degree" unicode="&#xb0;" horiz-adv-x="309" 
d="M155 511q-44 0 -76.5 31t-32.5 77t32.5 77t76.5 31t76.5 -31t32.5 -77t-32.5 -77t-76.5 -31zM155 548q28 0 48.5 19.5t20.5 51.5t-20.5 52t-48.5 20q-29 0 -49 -20t-20 -52t20 -51.5t49 -19.5z" />
    <glyph glyph-name="plusminus" unicode="&#xb1;" 
d="M299 319h188v-22h-188v-187h-23v187h-189v22h189v188h23v-188zM87 0v22h400v-22h-400z" />
    <glyph glyph-name="two.sups" unicode="&#xb2;" horiz-adv-x="445" 
d="M50 328v6l89 88q79 72 109.5 122t30.5 111q0 46 -23.5 72.5t-67.5 26.5q-43 0 -74 -26t-39 -79h-8q3 67 44.5 113t121.5 46q70 0 108.5 -37.5t37.5 -91.5q-1 -53 -39 -101t-143 -125l-54 -43h163q40 0 58.5 11t29.5 34h5l-42 -127h-307z" />
    <glyph glyph-name="three.sups" unicode="&#xb3;" horiz-adv-x="421" 
d="M209 318q-51 0 -93 20t-62 59l8 4q31 -50 95 -50q46 0 76.5 29t30.5 73q0 53 -28 82t-84 29h-15v10h16q50 0 81 30.5t31 79.5q0 42 -24.5 66t-67.5 24q-74 0 -102 -77l-7 3q11 51 52.5 79.5t103.5 28.5q66 0 105 -29.5t39 -78.5q0 -52 -38 -87t-101 -41v-3
q64 0 103.5 -32t39.5 -87q0 -56 -43 -94t-116 -38z" />
    <glyph glyph-name="acute" unicode="&#xb4;" horiz-adv-x="600" 
d="M77 561h-27l56 139h109v-5z" />
    <glyph glyph-name="uni00B5" unicode="&#xb5;" horiz-adv-x="573" 
d="M78 -150v561q0 42 -13.5 55.5t-52.5 12.5v7l184 32v-361q0 -53 24 -82t66 -27q59 2 83 55v309q0 42 -11.5 55.5t-46.5 13.5v6l177 31v-440q0 -37 15 -51.5t50 -19.5v-7h-184v88q-16 -44 -55 -73.5t-89 -29.5q-98 0 -129 76v-57q0 -67 29 -103.5t94 -45.5v-5h-141z" />
    <glyph glyph-name="paragraph" unicode="&#xb6;" horiz-adv-x="520" 
d="M510 700v-7q-42 -5 -57 -19t-15 -53v-751h-26v812h-131v-812h-26v470q-102 0 -168 47.5t-66 132.5t66 132.5t168 47.5h255z" />
    <glyph glyph-name="periodcentered" unicode="&#xb7;" horiz-adv-x="234" 
d="M117 280q-30 0 -50.5 20.5t-20.5 50.5t20.5 50.5t50.5 20.5t50.5 -21t20.5 -50t-20.5 -50t-50.5 -21z" />
    <glyph glyph-name="cedilla" unicode="&#xb8;" horiz-adv-x="600" 
d="M212 -131q0 -37 -24 -60.5t-60 -23.5q-31 0 -51.5 17t-26.5 46l8 4q16 -32 50 -32q21 0 34.5 14t13.5 37q0 21 -12 33t-30 12t-30 -9l-10 5l53 88h17l-40 -63q10 9 33 9q32 0 53.5 -20.5t21.5 -56.5z" />
    <glyph glyph-name="one.sups" unicode="&#xb9;" horiz-adv-x="373" 
d="M60 328v4q47 5 65.5 17.5t18.5 40.5v313q0 40 -36 40q-15 0 -47 -11l-3 6l176 70h5v-418q0 -28 19.5 -40.5t65.5 -17.5v-4h-264z" />
    <glyph glyph-name="ordmasculine" unicode="&#xba;" horiz-adv-x="469" 
d="M235 318q-83 0 -134 52.5t-51 135.5t51 136t134 53t133.5 -53t50.5 -136t-50.5 -135.5t-133.5 -52.5zM235 338q43 0 63 41t20 127q0 87 -20 128.5t-63 41.5q-44 0 -64 -41.5t-20 -128.5q0 -86 20 -127t64 -41z" />
    <glyph glyph-name="guillemotright" unicode="&#xbb;" horiz-adv-x="501" 
d="M58 74l-7 3l125 200l-125 199l7 4l210 -201v-5zM240 74l-7 3l125 200l-125 199l7 4l210 -201v-5z" />
    <glyph glyph-name="onequarter" unicode="&#xbc;" horiz-adv-x="790" 
d="M54 302q37 5 52.5 16t15.5 36v260q0 36 -32 36q-12 0 -35 -9l-3 6l153 62h5v-355q0 -25 16 -36.5t51 -15.5v-4h-223v4zM557 682h35l-427 -722h-37zM752 123h-71v-58q0 -52 42 -61v-4h-190v4q34 4 47.5 17.5t13.5 44.5v57h-161v17l211 262h37v-256h71v-23zM455 147h139
v172z" />
    <glyph glyph-name="onehalf" unicode="&#xbd;" horiz-adv-x="779" 
d="M54 298v4q37 5 52.5 16t15.5 36v260q0 36 -32 36q-12 0 -35 -9l-3 6l153 62h5v-355q0 -25 16 -36.5t51 -15.5v-4h-223zM128 -40l429 722h35l-427 -722h-37zM443 0v5l74 81q61 57 86 99t25 92q0 39 -19 61t-54 22q-33 0 -58.5 -21.5t-33.5 -65.5h-6q3 58 37.5 98t103.5 40
q58 0 89.5 -32t30.5 -78q-1 -49 -33 -90t-119 -103l-39 -32h133q33 0 48 9t23 28h5l-36 -113h-257z" />
    <glyph glyph-name="threequarters" unicode="&#xbe;" horiz-adv-x="828" 
d="M313 404q0 -48 -36 -81.5t-97 -33.5q-42 0 -77.5 17.5t-53.5 51.5l7 3q27 -41 75 -41q37 0 61.5 25t24.5 63q0 92 -87 92h-12v9h13q39 0 64 26t25 66q0 35 -19.5 55.5t-53.5 20.5q-59 0 -83 -64l-6 2q10 45 44.5 69.5t87.5 24.5q56 0 88.5 -25.5t32.5 -67.5
q0 -43 -31 -73t-82 -36v-3q50 0 82.5 -27t32.5 -73zM595 682h35l-427 -722h-37zM790 123h-71v-58q0 -52 42 -61v-4h-190v4q34 4 47.5 17.5t13.5 44.5v57h-161v17l211 262h37v-256h71v-23zM493 147h139v172z" />
    <glyph glyph-name="questiondown" unicode="&#xbf;" horiz-adv-x="408" 
d="M251 519q30 0 50.5 -20.5t20.5 -50.5t-20.5 -50.5t-50.5 -20.5t-50.5 21t-20.5 50t20.5 50t50.5 21zM261 304v-33q-1 -39 -11 -62t-35 -51q-77 -92 -77 -173q0 -67 36 -105.5t98 -38.5q110 0 138 94l7 -2q-13 -66 -65 -107t-138 -41q-83 0 -135.5 47.5t-52.5 121.5
q0 119 130 199q48 30 67 59.5t19 74.5v17h19z" />
    <glyph glyph-name="Agrave" unicode="&#xc0;" horiz-adv-x="729" 
d="M370 746h-12l-163 108v6h107zM635 104q18 -50 35.5 -70t51.5 -27v-7h-283v7q44 9 54 35t-9 84l-45 130h-249l-47 -136q-17 -58 -2.5 -81.5t60.5 -31.5v-7h-193v7q39 8 60.5 33t41.5 81l205 579h107zM199 281h232l-116 337z" />
    <glyph glyph-name="Aacute" unicode="&#xc1;" horiz-adv-x="729" 
d="M542 854l-163 -108h-11l67 114h107v-6zM635 104q18 -50 35.5 -70t51.5 -27v-7h-283v7q44 9 54 35t-9 84l-45 130h-249l-47 -136q-17 -58 -2.5 -81.5t60.5 -31.5v-7h-193v7q39 8 60.5 33t41.5 81l205 579h107zM199 281h232l-116 337z" />
    <glyph glyph-name="Acircumflex" unicode="&#xc2;" horiz-adv-x="729" 
d="M369 803l-115 -69h-13l121 126h14l121 -126h-13zM635 104q18 -50 35.5 -70t51.5 -27v-7h-283v7q44 9 54 35t-9 84l-45 130h-249l-47 -136q-17 -58 -2.5 -81.5t60.5 -31.5v-7h-193v7q39 8 60.5 33t41.5 81l205 579h107zM199 281h232l-116 337z" />
    <glyph glyph-name="Atilde" unicode="&#xc3;" horiz-adv-x="729" 
d="M301 800q-54 0 -69 -45h-6q4 51 30 75.5t67 24.5q30 0 68 -20.5t63 -20.5q55 0 69 46h6q-4 -51 -29.5 -76t-66.5 -25q-30 0 -68.5 20.5t-63.5 20.5zM635 104q18 -50 35.5 -70t51.5 -27v-7h-283v7q44 9 54 35t-9 84l-45 130h-249l-47 -136q-17 -58 -2.5 -81.5t60.5 -31.5
v-7h-193v7q39 8 60.5 33t41.5 81l205 579h107zM199 281h232l-116 337z" />
    <glyph glyph-name="Adieresis" unicode="&#xc4;" horiz-adv-x="729" 
d="M263 759q-23 0 -39 16t-16 39t16 39t39 16t39 -16t16 -39t-16 -39t-39 -16zM475 759q-23 0 -39 16t-16 39t16 39t39 16t39 -16t16 -39t-16 -39t-39 -16zM635 104q18 -50 35.5 -70t51.5 -27v-7h-283v7q44 9 54 35t-9 84l-45 130h-249l-47 -136q-17 -58 -2.5 -81.5
t60.5 -31.5v-7h-193v7q39 8 60.5 33t41.5 81l205 579h107zM199 281h232l-116 337z" />
    <glyph glyph-name="Aring" unicode="&#xc5;" horiz-adv-x="729" 
d="M369 723q-34 0 -55 21t-21 53t21 52.5t55 20.5t55 -20.5t21 -52.5t-21 -53t-55 -21zM369 854q-25 0 -41.5 -15.5t-16.5 -41.5t16.5 -41.5t41.5 -15.5t41.5 15.5t16.5 41.5t-16.5 41.5t-41.5 15.5zM635 104q18 -50 35.5 -70t51.5 -27v-7h-283v7q44 9 54 35t-9 84l-45 130
h-249l-47 -136q-17 -58 -2.5 -81.5t60.5 -31.5v-7h-193v7q39 8 60.5 33t41.5 81l205 579h107zM199 281h232l-116 337z" />
    <glyph glyph-name="AE" unicode="&#xc6;" horiz-adv-x="935" 
d="M5 0v7q38 6 63 30.5t55 79.5l322 583h407l23 -230h-7q-31 117 -91 163.5t-192 47.5v-322h49q65 0 99.5 27t50.5 91h7v-260h-7q-13 61 -49 90t-101 29h-49v-317q80 1 130 12.5t83.5 42.5t52 73.5t36.5 117.5h7l-26 -265h-487v7q42 6 57 25.5t15 71.5v152h-219l-85 -157
q-17 -31 -17 -50q0 -16 12.5 -25.5t43.5 -16.5v-7h-183zM246 280h207v384z" />
    <glyph glyph-name="Ccedilla" unicode="&#xc7;" horiz-adv-x="648" 
d="M610 220q-46 -232 -252 -240l-27 -43q11 9 33 9q32 0 53.5 -20.5t21.5 -56.5q0 -37 -24 -60.5t-60 -23.5q-31 0 -51.5 17t-26.5 46l8 4q16 -32 50 -32q21 0 34.5 14t13.5 37q0 21 -12 33t-30 12t-30 -9l-10 5l41 68q-140 2 -224.5 100.5t-84.5 259.5q0 170 95 275
t247 105q120 0 226 -46l-37 -235h-8q-15 231 -210 231q-95 0 -151.5 -67t-56.5 -180q0 -147 77.5 -240t200.5 -93q151 0 186 133z" />
    <glyph glyph-name="Egrave" unicode="&#xc8;" horiz-adv-x="606" 
d="M312 746l-163 108v6h107l68 -114h-12zM559 265h6l-26 -265h-509v7q42 6 57 25.5t15 71.5v499q0 45 -15.5 64t-56.5 26v7h497l19 -230h-7q-28 109 -77 159t-139 50h-89v-309h60q62 0 95 31.5t47 96.5h6v-284h-6q-14 68 -47 101t-95 33h-60v-327h87q106 0 156 54t82 190z
" />
    <glyph glyph-name="Eacute" unicode="&#xc9;" horiz-adv-x="606" 
d="M333 746h-11l67 114h107v-6zM559 265h6l-26 -265h-509v7q42 6 57 25.5t15 71.5v499q0 45 -15.5 64t-56.5 26v7h497l19 -230h-7q-28 109 -77 159t-139 50h-89v-309h60q62 0 95 31.5t47 96.5h6v-284h-6q-14 68 -47 101t-95 33h-60v-327h87q106 0 156 54t82 190z" />
    <glyph glyph-name="Ecircumflex" unicode="&#xca;" horiz-adv-x="606" 
d="M208 734h-13l121 126h14l121 -126h-13l-115 69zM559 265h6l-26 -265h-509v7q42 6 57 25.5t15 71.5v499q0 45 -15.5 64t-56.5 26v7h497l19 -230h-7q-28 109 -77 159t-139 50h-89v-309h60q62 0 95 31.5t47 96.5h6v-284h-6q-14 68 -47 101t-95 33h-60v-327h87q106 0 156 54
t82 190z" />
    <glyph glyph-name="Edieresis" unicode="&#xcb;" horiz-adv-x="606" 
d="M217 759q-23 0 -39 16t-16 39t16 39t39 16t39 -16t16 -39t-16 -39t-39 -16zM429 759q-23 0 -39 16t-16 39t16 39t39 16t39 -16t16 -39t-16 -39t-39 -16zM559 265h6l-26 -265h-509v7q42 6 57 25.5t15 71.5v499q0 45 -15.5 64t-56.5 26v7h497l19 -230h-7q-28 109 -77 159
t-139 50h-89v-309h60q62 0 95 31.5t47 96.5h6v-284h-6q-14 68 -47 101t-95 33h-60v-327h87q106 0 156 54t82 190z" />
    <glyph glyph-name="Igrave" unicode="&#xcc;" horiz-adv-x="336" 
d="M157 746l-163 108v6h107l68 -114h-12zM306 693q-41 -7 -56.5 -27t-15.5 -63v-499q0 -47 16 -69t56 -28v-7h-276v7q42 6 57 25.5t15 71.5v499q0 45 -15.5 64t-56.5 26v7h276v-7z" />
    <glyph glyph-name="Iacute" unicode="&#xcd;" horiz-adv-x="336" 
d="M178 746h-11l67 114h107v-6zM306 693q-41 -7 -56.5 -27t-15.5 -63v-499q0 -47 16 -69t56 -28v-7h-276v7q42 6 57 25.5t15 71.5v499q0 45 -15.5 64t-56.5 26v7h276v-7z" />
    <glyph glyph-name="Icircumflex" unicode="&#xce;" horiz-adv-x="336" 
d="M53 734h-13l121 126h14l121 -126h-13l-115 69zM306 693q-41 -7 -56.5 -27t-15.5 -63v-499q0 -47 16 -69t56 -28v-7h-276v7q42 6 57 25.5t15 71.5v499q0 45 -15.5 64t-56.5 26v7h276v-7z" />
    <glyph glyph-name="Idieresis" unicode="&#xcf;" horiz-adv-x="336" 
d="M62 759q-23 0 -39 16t-16 39t16 39t39 16t39 -16t16 -39t-16 -39t-39 -16zM274 759q-23 0 -39 16t-16 39t16 39t39 16t39 -16t16 -39t-16 -39t-39 -16zM306 693q-41 -7 -56.5 -27t-15.5 -63v-499q0 -47 16 -69t56 -28v-7h-276v7q42 6 57 25.5t15 71.5v499q0 45 -15.5 64
t-56.5 26v7h276v-7z" />
    <glyph glyph-name="Eth" unicode="&#xd0;" horiz-adv-x="724" 
d="M323 700q172 0 268.5 -92.5t96.5 -256.5q0 -168 -99.5 -259.5t-264.5 -91.5h-282v7q42 6 57 25.5t15 71.5v245h-84v16h84v238q0 45 -15.5 64t-56.5 26v7h281zM294 21q132 0 190.5 72t58.5 250q0 183 -60 259.5t-189 76.5h-48v-314h117v-16h-117v-328h48z" />
    <glyph glyph-name="Ntilde" unicode="&#xd1;" horiz-adv-x="741" 
d="M334 798q-54 0 -69 -45h-6q4 51 30 75.5t67 24.5q30 0 68 -20.5t63 -20.5q55 0 69 46h6q-4 -51 -29.5 -76t-66.5 -25q-30 0 -68.5 20.5t-63.5 20.5zM515 700h211v-7q-47 -6 -67 -31t-20 -79v-593h-4l-485 598v-463q0 -61 21.5 -85.5t75.5 -32.5v-7h-217v7q51 6 71.5 32
t20.5 86v497q-46 53 -92 71v7h202l380 -464v347q0 55 -20.5 78.5t-76.5 31.5v7z" />
    <glyph glyph-name="Ograve" unicode="&#xd2;" horiz-adv-x="774" 
d="M376 746l-163 108v6h107l68 -114h-12zM387 -20q-156 0 -255 103.5t-99 266.5t99 266.5t255 103.5t254.5 -103.5t98.5 -266.5t-98.5 -266.5t-254.5 -103.5zM387 9q205 0 205 341t-205 341t-205 -341t205 -341z" />
    <glyph glyph-name="Oacute" unicode="&#xd3;" horiz-adv-x="774" 
d="M397 746h-11l67 114h107v-6zM387 -20q-156 0 -255 103.5t-99 266.5t99 266.5t255 103.5t254.5 -103.5t98.5 -266.5t-98.5 -266.5t-254.5 -103.5zM387 9q205 0 205 341t-205 341t-205 -341t205 -341z" />
    <glyph glyph-name="Ocircumflex" unicode="&#xd4;" horiz-adv-x="774" 
d="M272 734h-13l121 126h14l121 -126h-13l-115 69zM387 -20q-156 0 -255 103.5t-99 266.5t99 266.5t255 103.5t254.5 -103.5t98.5 -266.5t-98.5 -266.5t-254.5 -103.5zM387 9q205 0 205 341t-205 341t-205 -341t205 -341z" />
    <glyph glyph-name="Otilde" unicode="&#xd5;" horiz-adv-x="774" 
d="M451 759q-30 0 -68.5 20.5t-63.5 20.5q-54 0 -69 -45h-6q4 51 30 75.5t67 24.5q30 0 68 -20.5t63 -20.5q55 0 69 46h6q-4 -51 -29.5 -76t-66.5 -25zM387 -20q-156 0 -255 103.5t-99 266.5t99 266.5t255 103.5t254.5 -103.5t98.5 -266.5t-98.5 -266.5t-254.5 -103.5z
M387 9q205 0 205 341t-205 341t-205 -341t205 -341z" />
    <glyph glyph-name="Odieresis" unicode="&#xd6;" horiz-adv-x="774" 
d="M281 759q-23 0 -39 16t-16 39t16 39t39 16t39 -16t16 -39t-16 -39t-39 -16zM493 759q-23 0 -39 16t-16 39t16 39t39 16t39 -16t16 -39t-16 -39t-39 -16zM387 -20q-156 0 -255 103.5t-99 266.5t99 266.5t255 103.5t254.5 -103.5t98.5 -266.5t-98.5 -266.5t-254.5 -103.5z
M387 9q205 0 205 341t-205 341t-205 -341t205 -341z" />
    <glyph glyph-name="multiply" unicode="&#xd7;" 
d="M467 468l-160 -160l160 -161l-17 -17l-160 161l-161 -161l-17 17l161 161l-161 160l17 17l161 -160l160 160z" />
    <glyph glyph-name="Oslash" unicode="&#xd8;" horiz-adv-x="774" 
d="M628 630q112 -106 112 -280q0 -163 -98.5 -266.5t-254.5 -103.5q-126 0 -218 71l-56 -71h-34l69 88q-115 104 -115 282q0 163 99 266.5t255 103.5q127 0 221 -73l63 79h33zM182 350q0 -127 28 -205l345 435q-49 111 -168 111q-205 0 -205 -341zM387 9q205 0 205 341
q0 121 -26 202l-345 -435q51 -108 166 -108z" />
    <glyph glyph-name="Ugrave" unicode="&#xd9;" horiz-adv-x="685" 
d="M371 746l-163 108v6h107l68 -114h-12zM677 700v-7q-41 -6 -59.5 -29.5t-18.5 -76.5v-332q0 -133 -63 -204t-187 -71q-130 0 -199.5 73t-69.5 212v338q0 45 -15.5 64t-56.5 26v7h287v-7q-46 -8 -63.5 -27.5t-17.5 -69.5v-325q0 -232 179 -232q178 0 178 234v307
q0 55 -24.5 80.5t-77.5 32.5v7h208z" />
    <glyph glyph-name="Uacute" unicode="&#xda;" horiz-adv-x="685" 
d="M392 746h-11l67 114h107v-6zM677 700v-7q-41 -6 -59.5 -29.5t-18.5 -76.5v-332q0 -133 -63 -204t-187 -71q-130 0 -199.5 73t-69.5 212v338q0 45 -15.5 64t-56.5 26v7h287v-7q-46 -8 -63.5 -27.5t-17.5 -69.5v-325q0 -232 179 -232q178 0 178 234v307q0 55 -24.5 80.5
t-77.5 32.5v7h208z" />
    <glyph glyph-name="Ucircumflex" unicode="&#xdb;" horiz-adv-x="685" 
d="M267 734h-13l121 126h14l121 -126h-13l-115 69zM677 700v-7q-41 -6 -59.5 -29.5t-18.5 -76.5v-332q0 -133 -63 -204t-187 -71q-130 0 -199.5 73t-69.5 212v338q0 45 -15.5 64t-56.5 26v7h287v-7q-46 -8 -63.5 -27.5t-17.5 -69.5v-325q0 -232 179 -232q178 0 178 234v307
q0 55 -24.5 80.5t-77.5 32.5v7h208z" />
    <glyph glyph-name="Udieresis" unicode="&#xdc;" horiz-adv-x="685" 
d="M276 759q-23 0 -39 16t-16 39t16 39t39 16t39 -16t16 -39t-16 -39t-39 -16zM488 759q-23 0 -39 16t-16 39t16 39t39 16t39 -16t16 -39t-16 -39t-39 -16zM677 700v-7q-41 -6 -59.5 -29.5t-18.5 -76.5v-332q0 -133 -63 -204t-187 -71q-130 0 -199.5 73t-69.5 212v338
q0 45 -15.5 64t-56.5 26v7h287v-7q-46 -8 -63.5 -27.5t-17.5 -69.5v-325q0 -232 179 -232q178 0 178 234v307q0 55 -24.5 80.5t-77.5 32.5v7h208z" />
    <glyph glyph-name="Yacute" unicode="&#xdd;" horiz-adv-x="658" 
d="M388 746h-11l67 114h107v-6zM459 700h191v-7q-60 -5 -111 -100l-146 -268v-232q2 -44 24.5 -62.5t79.5 -23.5v-7h-341v7q62 5 83.5 26t21.5 74v214l-150 278q-27 49 -50 70.5t-53 23.5v7h290v-7q-65 -6 -65 -54q0 -21 18 -56l127 -233l124 224q20 36 20 63q0 50 -63 56v7
z" />
    <glyph glyph-name="Thorn" unicode="&#xde;" horiz-adv-x="594" 
d="M286 163h-52v-59q0 -47 16 -69t56 -28v-7h-276v7q42 6 57 25.5t15 71.5v499q0 45 -15.5 64t-56.5 26v7h276v-7q-41 -7 -56.5 -27t-15.5 -63v-44h52q140 0 213.5 -50.5t73.5 -147.5t-73.5 -147.5t-213.5 -50.5zM258 538h-24v-354h24q84 0 128.5 45.5t44.5 131.5
t-44.5 131.5t-128.5 45.5z" />
    <glyph glyph-name="germandbls" unicode="&#xdf;" horiz-adv-x="585" 
d="M345 -14q-62 0 -96 27l6 9q20 -17 57 -17q114 0 114 174q0 93 -37.5 140.5t-99.5 47.5h-25v17h25q60 0 87.5 48t27.5 115q0 76 -28 115.5t-76 39.5q-96 0 -96 -125v-577h-184v7q36 5 51 18t15 42v376q0 81 20.5 138.5t55.5 86t71.5 40.5t77.5 12q104 0 158.5 -48.5
t54.5 -119.5q0 -70 -48.5 -119.5t-129.5 -51.5l-33 -2v-4l31 -1q103 -2 155.5 -55t52.5 -130q0 -83 -55 -143t-152 -60z" />
    <glyph glyph-name="agrave" unicode="&#xe0;" horiz-adv-x="540" 
d="M267 561h-27l-138 134v5h109zM523 98l9 -1q-12 -53 -44.5 -82.5t-80.5 -29.5q-41 0 -65 23.5t-27 63.5l-2 12q-10 -40 -48 -69.5t-94 -29.5q-63 0 -99 35t-36 87q0 129 181 166l95 19v24q0 138 -117 138q-108 0 -136 -115l-7 2q11 84 63 132t135 48q90 0 135 -52.5
t45 -148.5v-219q0 -56 39 -56t54 53zM230 44q60 0 82 56v172l-57 -12q-106 -20 -106 -118q0 -42 21 -70t60 -28z" />
    <glyph glyph-name="aacute" unicode="&#xe1;" horiz-adv-x="540" 
d="M405 695l-138 -134h-27l56 139h109v-5zM523 98l9 -1q-12 -53 -44.5 -82.5t-80.5 -29.5q-41 0 -65 23.5t-27 63.5l-2 12q-10 -40 -48 -69.5t-94 -29.5q-63 0 -99 35t-36 87q0 129 181 166l95 19v24q0 138 -117 138q-108 0 -136 -115l-7 2q11 84 63 132t135 48
q90 0 135 -52.5t45 -148.5v-219q0 -56 39 -56t54 53zM230 44q60 0 82 56v172l-57 -12q-106 -20 -106 -118q0 -42 21 -70t60 -28z" />
    <glyph glyph-name="acircumflex" unicode="&#xe2;" horiz-adv-x="540" 
d="M254 640l-108 -86h-28l119 146h34l119 -146h-29zM523 98l9 -1q-12 -53 -44.5 -82.5t-80.5 -29.5q-41 0 -65 23.5t-27 63.5l-2 12q-10 -40 -48 -69.5t-94 -29.5q-63 0 -99 35t-36 87q0 129 181 166l95 19v24q0 138 -117 138q-108 0 -136 -115l-7 2q11 84 63 132t135 48
q90 0 135 -52.5t45 -148.5v-219q0 -56 39 -56t54 53zM230 44q60 0 82 56v172l-57 -12q-106 -20 -106 -118q0 -42 21 -70t60 -28z" />
    <glyph glyph-name="atilde" unicode="&#xe3;" horiz-adv-x="540" 
d="M181 627q-53 0 -67 -49h-5q4 54 28.5 81.5t63.5 27.5q29 0 66 -22.5t61 -22.5q52 0 67 49h5q-7 -109 -92 -109q-29 0 -66 22.5t-61 22.5zM523 98l9 -1q-12 -53 -44.5 -82.5t-80.5 -29.5q-41 0 -65 23.5t-27 63.5l-2 12q-10 -40 -48 -69.5t-94 -29.5q-63 0 -99 35t-36 87
q0 129 181 166l95 19v24q0 138 -117 138q-108 0 -136 -115l-7 2q11 84 63 132t135 48q90 0 135 -52.5t45 -148.5v-219q0 -56 39 -56t54 53zM230 44q60 0 82 56v172l-57 -12q-106 -20 -106 -118q0 -42 21 -70t60 -28z" />
    <glyph glyph-name="adieresis" unicode="&#xe4;" horiz-adv-x="540" 
d="M164 585q-26 0 -43 17t-17 43t17 43t43 17t42.5 -17t16.5 -43t-16.5 -43t-42.5 -17zM343 585q-26 0 -43 17t-17 43t17 43t43 17t42.5 -17t16.5 -43t-16.5 -43t-42.5 -17zM523 98l9 -1q-12 -53 -44.5 -82.5t-80.5 -29.5q-41 0 -65 23.5t-27 63.5l-2 12q-10 -40 -48 -69.5
t-94 -29.5q-63 0 -99 35t-36 87q0 129 181 166l95 19v24q0 138 -117 138q-108 0 -136 -115l-7 2q11 84 63 132t135 48q90 0 135 -52.5t45 -148.5v-219q0 -56 39 -56t54 53zM230 44q60 0 82 56v172l-57 -12q-106 -20 -106 -118q0 -42 21 -70t60 -28z" />
    <glyph glyph-name="aring" unicode="&#xe5;" horiz-adv-x="540" 
d="M254 553q-41 0 -68 26.5t-27 66.5t27 66.5t68 26.5q42 0 69 -26t27 -67t-27 -67t-69 -26zM254 716q-31 0 -50 -19t-19 -51t19 -51t50 -19t50.5 19t19.5 51t-19.5 51t-50.5 19zM523 98l9 -1q-12 -53 -44.5 -82.5t-80.5 -29.5q-41 0 -65 23.5t-27 63.5l-2 12
q-10 -40 -48 -69.5t-94 -29.5q-63 0 -99 35t-36 87q0 129 181 166l95 19v24q0 138 -117 138q-108 0 -136 -115l-7 2q11 84 63 132t135 48q90 0 135 -52.5t45 -148.5v-219q0 -56 39 -56t54 53zM230 44q60 0 82 56v172l-57 -12q-106 -20 -106 -118q0 -42 21 -70t60 -28z" />
    <glyph glyph-name="ae" unicode="&#xe6;" horiz-adv-x="742" 
d="M576 77q94 0 127 96l6 -1q-33 -185 -182 -185q-130 0 -180 129q-16 -63 -58.5 -97.5t-104.5 -34.5q-69 0 -108.5 38t-39.5 102q0 76 60.5 124.5t182.5 53.5l31 1l-2 12q-11 74 -42.5 106.5t-89.5 32.5q-48 0 -79.5 -27t-39.5 -76l-7 2q11 79 63 123.5t127 44.5
q57 0 96 -28.5t52 -82.5q41 111 143 111q80 0 127 -61.5t51 -171.5h-290q5 -101 45.5 -156t111.5 -55zM513 498q-44 0 -69.5 -44.5t-25.5 -132.5v-17h176q0 103 -19 148.5t-62 45.5zM247 51q34 0 58.5 21.5t35.5 61.5q-10 33 -13 55l-16 99h-4q-155 -3 -155 -125
q0 -53 25.5 -82.5t68.5 -29.5z" />
    <glyph glyph-name="ccedilla" unicode="&#xe7;" horiz-adv-x="474" 
d="M444 177q-8 -85 -57 -136.5t-124 -55.5l-31 -48q10 9 33 9q32 0 53.5 -20.5t21.5 -56.5q0 -37 -24 -60.5t-60 -23.5q-31 0 -51.5 17t-26.5 46l8 4q16 -32 50 -32q21 0 34.5 14t13.5 37q0 21 -12 33t-30 12t-30 -9l-10 5l44 73q-98 2 -156.5 72t-58.5 185q0 127 67.5 203
t178.5 76q92 0 158 -34l-34 -176h-7q-4 79 -37 122t-95 43q-70 0 -107.5 -47.5t-37.5 -133.5q0 -85 50 -148.5t134 -63.5q108 0 135 96z" />
    <glyph glyph-name="egrave" unicode="&#xe8;" horiz-adv-x="479" 
d="M249 561h-27l-138 134v5h109zM438 180l8 -2q-17 -98 -70.5 -145.5t-126.5 -47.5q-94 0 -156 68t-62 191t60 200t163 77q83 0 136.5 -57t50.5 -163h-320q5 -103 53 -160.5t126 -57.5q48 0 83 20.5t55 76.5zM231 497q-50 0 -80 -47.5t-30 -127.5h207q1 90 -25 132.5
t-72 42.5z" />
    <glyph glyph-name="eacute" unicode="&#xe9;" horiz-adv-x="479" 
d="M387 695l-138 -134h-27l56 139h109v-5zM438 180l8 -2q-17 -98 -70.5 -145.5t-126.5 -47.5q-94 0 -156 68t-62 191t60 200t163 77q83 0 136.5 -57t50.5 -163h-320q5 -103 53 -160.5t126 -57.5q48 0 83 20.5t55 76.5zM231 497q-50 0 -80 -47.5t-30 -127.5h207
q1 90 -25 132.5t-72 42.5z" />
    <glyph glyph-name="ecircumflex" unicode="&#xea;" horiz-adv-x="479" 
d="M236 640l-108 -86h-28l119 146h34l119 -146h-29zM438 180l8 -2q-17 -98 -70.5 -145.5t-126.5 -47.5q-94 0 -156 68t-62 191t60 200t163 77q83 0 136.5 -57t50.5 -163h-320q5 -103 53 -160.5t126 -57.5q48 0 83 20.5t55 76.5zM231 497q-50 0 -80 -47.5t-30 -127.5h207
q1 90 -25 132.5t-72 42.5z" />
    <glyph glyph-name="edieresis" unicode="&#xeb;" horiz-adv-x="479" 
d="M146 585q-26 0 -43 17t-17 43t17 43t43 17t42.5 -17t16.5 -43t-16.5 -43t-42.5 -17zM325 585q-26 0 -43 17t-17 43t17 43t43 17t42.5 -17t16.5 -43t-16.5 -43t-42.5 -17zM438 180l8 -2q-17 -98 -70.5 -145.5t-126.5 -47.5q-94 0 -156 68t-62 191t60 200t163 77
q83 0 136.5 -57t50.5 -163h-320q5 -103 53 -160.5t126 -57.5q48 0 83 20.5t55 76.5zM231 497q-50 0 -80 -47.5t-30 -127.5h207q1 90 -25 132.5t-72 42.5z" />
    <glyph glyph-name="igrave" unicode="&#xec;" horiz-adv-x="294" 
d="M130 561l-138 134v5h109l56 -139h-27zM209 67q0 -29 14.5 -42t50.5 -18v-7h-249v7q36 5 51 18t15 42v324q0 42 -13.5 55t-52.5 13v6l184 50v-448z" />
    <glyph glyph-name="iacute" unicode="&#xed;" horiz-adv-x="294" 
d="M157 561h-27l56 139h109v-5zM209 67q0 -29 14.5 -42t50.5 -18v-7h-249v7q36 5 51 18t15 42v324q0 42 -13.5 55t-52.5 13v6l184 50v-448z" />
    <glyph glyph-name="icircumflex" unicode="&#xee;" horiz-adv-x="294" 
d="M8 554l119 146h34l119 -146h-29l-107 86l-108 -86h-28zM209 67q0 -29 14.5 -42t50.5 -18v-7h-249v7q36 5 51 18t15 42v324q0 42 -13.5 55t-52.5 13v6l184 50v-448z" />
    <glyph glyph-name="idieresis" unicode="&#xef;" horiz-adv-x="294" 
d="M54 585q-26 0 -43 17t-17 43t17 43t43 17t42.5 -17t16.5 -43t-16.5 -43t-42.5 -17zM233 585q-26 0 -43 17t-17 43t17 43t43 17t42.5 -17t16.5 -43t-16.5 -43t-42.5 -17zM209 67q0 -29 14.5 -42t50.5 -18v-7h-249v7q36 5 51 18t15 42v324q0 42 -13.5 55t-52.5 13v6l184 50
v-448z" />
    <glyph glyph-name="eth" unicode="&#xf0;" horiz-adv-x="554" 
d="M350 643q83 -57 124.5 -148.5t41.5 -200.5q0 -142 -65 -225.5t-176 -83.5q-110 0 -177 69t-67 197q0 126 63 198t154 72q84 0 127 -54q-22 102 -72 157l-179 -75v19l167 69q-59 55 -173 75l1 8q126 -10 214 -66l110 46v-18zM275 4q57 0 87 70t30 198q0 104 -13 175
q-25 43 -87 43q-58 0 -96.5 -62.5t-38.5 -187.5q0 -116 31 -176t87 -60z" />
    <glyph glyph-name="ntilde" unicode="&#xf1;" horiz-adv-x="593" 
d="M349 582q-29 0 -66 22.5t-61 22.5q-53 0 -67 -49h-5q4 54 28.5 81.5t63.5 27.5q29 0 66 -22.5t61 -22.5q52 0 67 49h5q-7 -109 -92 -109zM508 67q0 -29 14.5 -42t50.5 -18v-7h-240v7q32 5 44 16t12 39v292q0 114 -86 114q-67 0 -94 -67v-339q0 -28 12 -39t44 -16v-7h-240
v7q36 5 51 18t15 42v327q0 41 -13.5 54.5t-52.5 12.5v7l184 50v-103q13 46 54.5 76t97.5 30q72 0 109.5 -42t37.5 -115v-297z" />
    <glyph glyph-name="ograve" unicode="&#xf2;" horiz-adv-x="559" 
d="M266 561l-138 134v5h109l56 -139h-27zM280 -15q-113 0 -181 75t-68 193t68 193t181 75t181 -75t68 -193t-68 -193t-181 -75zM280 11q64 0 93 60t29 182t-29 182t-93 60t-93.5 -60t-29.5 -182t29.5 -182t93.5 -60z" />
    <glyph glyph-name="oacute" unicode="&#xf3;" horiz-adv-x="559" 
d="M293 561h-27l56 139h109v-5zM280 -15q-113 0 -181 75t-68 193t68 193t181 75t181 -75t68 -193t-68 -193t-181 -75zM280 11q64 0 93 60t29 182t-29 182t-93 60t-93.5 -60t-29.5 -182t29.5 -182t93.5 -60z" />
    <glyph glyph-name="ocircumflex" unicode="&#xf4;" horiz-adv-x="559" 
d="M144 554l119 146h34l119 -146h-29l-107 86l-108 -86h-28zM280 -15q-113 0 -181 75t-68 193t68 193t181 75t181 -75t68 -193t-68 -193t-181 -75zM280 11q64 0 93 60t29 182t-29 182t-93 60t-93.5 -60t-29.5 -182t29.5 -182t93.5 -60z" />
    <glyph glyph-name="otilde" unicode="&#xf5;" horiz-adv-x="559" 
d="M334 582q-29 0 -66 22.5t-61 22.5q-53 0 -67 -49h-5q4 54 28.5 81.5t63.5 27.5q29 0 66 -22.5t61 -22.5q52 0 67 49h5q-7 -109 -92 -109zM280 -15q-113 0 -181 75t-68 193t68 193t181 75t181 -75t68 -193t-68 -193t-181 -75zM280 11q64 0 93 60t29 182t-29 182t-93 60
t-93.5 -60t-29.5 -182t29.5 -182t93.5 -60z" />
    <glyph glyph-name="odieresis" unicode="&#xf6;" horiz-adv-x="559" 
d="M190 585q-26 0 -43 17t-17 43t17 43t43 17t42.5 -17t16.5 -43t-16.5 -43t-42.5 -17zM369 585q-26 0 -43 17t-17 43t17 43t43 17t42.5 -17t16.5 -43t-16.5 -43t-42.5 -17zM280 -15q-113 0 -181 75t-68 193t68 193t181 75t181 -75t68 -193t-68 -193t-181 -75zM280 11
q64 0 93 60t29 182t-29 182t-93 60t-93.5 -60t-29.5 -182t29.5 -182t93.5 -60z" />
    <glyph glyph-name="divide" unicode="&#xf7;" 
d="M290 402q-23 0 -40 17t-17 40t17 40t40 17q24 0 40.5 -17t16.5 -40t-16.5 -40t-40.5 -17zM91 297v22h398v-22h-398zM290 89q-23 0 -40 17t-17 40t17 39.5t40 16.5q24 0 40.5 -16.5t16.5 -39.5t-16.5 -40t-40.5 -17z" />
    <glyph glyph-name="oslash" unicode="&#xf8;" horiz-adv-x="559" 
d="M441 465q88 -75 88 -212q0 -118 -68 -193t-181 -75q-82 0 -140 40l-31 -45h-26l40 58q-92 75 -92 215q0 118 68 193t181 75q82 0 143 -42l34 49h27zM157 253q0 -87 15 -143l209 306q-28 79 -101 79q-64 0 -93.5 -60t-29.5 -182zM280 11q64 0 93 60t29 182q0 84 -13 136
l-209 -305q30 -73 100 -73z" />
    <glyph glyph-name="ugrave" unicode="&#xf9;" horiz-adv-x="573" 
d="M267 561l-138 134v5h109l56 -139h-27zM488 78q0 -37 15 -51.5t50 -19.5v-7h-184v88q-16 -44 -55 -73.5t-89 -29.5q-70 0 -108.5 40.5t-38.5 122.5v263q0 42 -13.5 55.5t-52.5 12.5v7l184 32v-361q0 -53 24 -82t66 -27q59 2 83 55v309q0 42 -11.5 55.5t-46.5 13.5v6
l177 31v-440z" />
    <glyph glyph-name="uacute" unicode="&#xfa;" horiz-adv-x="573" 
d="M294 561h-27l56 139h109v-5zM488 78q0 -37 15 -51.5t50 -19.5v-7h-184v88q-16 -44 -55 -73.5t-89 -29.5q-70 0 -108.5 40.5t-38.5 122.5v263q0 42 -13.5 55.5t-52.5 12.5v7l184 32v-361q0 -53 24 -82t66 -27q59 2 83 55v309q0 42 -11.5 55.5t-46.5 13.5v6l177 31v-440z
" />
    <glyph glyph-name="ucircumflex" unicode="&#xfb;" horiz-adv-x="573" 
d="M145 554l119 146h34l119 -146h-29l-107 86l-108 -86h-28zM488 78q0 -37 15 -51.5t50 -19.5v-7h-184v88q-16 -44 -55 -73.5t-89 -29.5q-70 0 -108.5 40.5t-38.5 122.5v263q0 42 -13.5 55.5t-52.5 12.5v7l184 32v-361q0 -53 24 -82t66 -27q59 2 83 55v309q0 42 -11.5 55.5
t-46.5 13.5v6l177 31v-440z" />
    <glyph glyph-name="udieresis" unicode="&#xfc;" horiz-adv-x="573" 
d="M191 585q-26 0 -43 17t-17 43t17 43t43 17t42.5 -17t16.5 -43t-16.5 -43t-42.5 -17zM370 585q-26 0 -43 17t-17 43t17 43t43 17t42.5 -17t16.5 -43t-16.5 -43t-42.5 -17zM488 78q0 -37 15 -51.5t50 -19.5v-7h-184v88q-16 -44 -55 -73.5t-89 -29.5q-70 0 -108.5 40.5
t-38.5 122.5v263q0 42 -13.5 55.5t-52.5 12.5v7l184 32v-361q0 -53 24 -82t66 -27q59 2 83 55v309q0 42 -11.5 55.5t-46.5 13.5v6l177 31v-440z" />
    <glyph glyph-name="yacute" unicode="&#xfd;" horiz-adv-x="534" 
d="M332 561h-27l56 139h109v-5zM81 -215q-50 0 -88 22l25 109h5q33 -31 97 -31q49 0 81.5 16.5t53.5 58.5l7 16l-176 433q-33 83 -80 90v7h254v-7q-31 -4 -44.5 -14.5t-13.5 -30.5q0 -21 11 -51l101 -275l108 267q11 25 11 49q0 47 -57 55v7h153v-7q-27 -8 -42.5 -28
t-32.5 -66l-176 -444q-37 -101 -85.5 -138.5t-111.5 -37.5z" />
    <glyph glyph-name="thorn" unicode="&#xfe;" horiz-adv-x="568" 
d="M20 -200v7q36 5 51 18t15 42v739q0 39 -13.5 52t-52.5 13v7l184 52v-302q19 43 58 68t91 25q81 0 134.5 -67t53.5 -177q0 -128 -68 -210t-168 -82q-58 0 -101 33v-151q0 -31 18 -43.5t67 -16.5v-7h-269zM288 7q54 0 89.5 62.5t35.5 171.5q0 102 -35 162t-92 60
q-58 0 -82 -47v-364q28 -45 84 -45z" />
    <glyph glyph-name="ydieresis" unicode="&#xff;" horiz-adv-x="534" 
d="M229 585q-26 0 -43 17t-17 43t17 43t43 17t42.5 -17t16.5 -43t-16.5 -43t-42.5 -17zM408 585q-26 0 -43 17t-17 43t17 43t43 17t42.5 -17t16.5 -43t-16.5 -43t-42.5 -17zM81 -215q-50 0 -88 22l25 109h5q33 -31 97 -31q49 0 81.5 16.5t53.5 58.5l7 16l-176 433
q-33 83 -80 90v7h254v-7q-31 -4 -44.5 -14.5t-13.5 -30.5q0 -21 11 -51l101 -275l108 267q11 25 11 49q0 47 -57 55v7h153v-7q-27 -8 -42.5 -28t-32.5 -66l-176 -444q-37 -101 -85.5 -138.5t-111.5 -37.5z" />
    <glyph glyph-name="Amacron" unicode="&#x100;" horiz-adv-x="729" 
d="M514 817v-32h-290v32h290zM635 104q18 -50 35.5 -70t51.5 -27v-7h-283v7q44 9 54 35t-9 84l-45 130h-249l-47 -136q-17 -58 -2.5 -81.5t60.5 -31.5v-7h-193v7q39 8 60.5 33t41.5 81l205 579h107zM199 281h232l-116 337z" />
    <glyph glyph-name="amacron" unicode="&#x101;" horiz-adv-x="540" 
d="M399 640v-32h-290v32h290zM523 98l9 -1q-12 -53 -44.5 -82.5t-80.5 -29.5q-41 0 -65 23.5t-27 63.5l-2 12q-10 -40 -48 -69.5t-94 -29.5q-63 0 -99 35t-36 87q0 129 181 166l95 19v24q0 138 -117 138q-108 0 -136 -115l-7 2q11 84 63 132t135 48q90 0 135 -52.5
t45 -148.5v-219q0 -56 39 -56t54 53zM230 44q60 0 82 56v172l-57 -12q-106 -20 -106 -118q0 -42 21 -70t60 -28z" />
    <glyph glyph-name="Abreve" unicode="&#x102;" horiz-adv-x="729" 
d="M369 749q-58 0 -95.5 31t-37.5 84h14q3 -30 35.5 -46t83.5 -16t83 16t36 46h15q0 -53 -38 -84t-96 -31zM635 104q18 -50 35.5 -70t51.5 -27v-7h-283v7q44 9 54 35t-9 84l-45 130h-249l-47 -136q-17 -58 -2.5 -81.5t60.5 -31.5v-7h-193v7q39 8 60.5 33t41.5 81l205 579
h107zM199 281h232l-116 337z" />
    <glyph glyph-name="abreve" unicode="&#x103;" horiz-adv-x="540" 
d="M254 557q-52 0 -85 37t-33 106h19q2 -41 29 -62t70 -21t70 21t29 62h19q0 -69 -33 -106t-85 -37zM523 98l9 -1q-12 -53 -44.5 -82.5t-80.5 -29.5q-41 0 -65 23.5t-27 63.5l-2 12q-10 -40 -48 -69.5t-94 -29.5q-63 0 -99 35t-36 87q0 129 181 166l95 19v24q0 138 -117 138
q-108 0 -136 -115l-7 2q11 84 63 132t135 48q90 0 135 -52.5t45 -148.5v-219q0 -56 39 -56t54 53zM230 44q60 0 82 56v172l-57 -12q-106 -20 -106 -118q0 -42 21 -70t60 -28z" />
    <glyph glyph-name="Aogonek" unicode="&#x104;" horiz-adv-x="729" 
d="M439 0q-80 -25 -80 -92q0 -56 59 -56q47 0 66 42l4 -2q-21 -102 -105 -102q-42 0 -66.5 22t-24.5 60q0 48 39 85t108 49v1q44 9 54 35t-9 84l-45 130h-249l-47 -136q-17 -58 -2.5 -81.5t60.5 -31.5v-7h-193v7q39 8 60.5 33t41.5 81l205 579h107l213 -596q18 -50 35.5 -70
t51.5 -27v-7h-283zM199 281h232l-116 337z" />
    <glyph glyph-name="aogonek" unicode="&#x105;" horiz-adv-x="540" 
d="M438 -148q47 0 66 42l4 -2q-21 -102 -105 -102q-42 0 -66.5 22t-24.5 60q0 74 82 114q-72 6 -79 86l-2 12q-10 -40 -48 -69.5t-94 -29.5q-63 0 -99 35t-36 87q0 129 181 166l95 19v24q0 138 -117 138q-108 0 -136 -115l-7 2q11 84 63 132t135 48q90 0 135 -52.5
t45 -148.5v-219q0 -56 39 -56t54 53l9 -1q-11 -47 -37.5 -76t-66.5 -35q-49 -27 -49 -78q0 -56 59 -56zM230 44q60 0 82 56v172l-57 -12q-106 -20 -106 -118q0 -42 21 -70t60 -28z" />
    <glyph glyph-name="Cacute" unicode="&#x106;" horiz-adv-x="648" 
d="M383 746h-11l67 114h107v-6zM346 -20q-141 0 -227 98.5t-86 261.5q0 170 95 275t247 105q120 0 226 -46l-37 -235h-8q-15 231 -210 231q-95 0 -151.5 -67t-56.5 -180q0 -147 77.5 -240t200.5 -93q151 0 186 133l8 -3q-47 -240 -264 -240z" />
    <glyph glyph-name="cacute" unicode="&#x107;" horiz-adv-x="474" 
d="M272 561h-27l56 139h109v-5zM252 -15q-100 0 -160.5 70.5t-60.5 186.5q0 127 67.5 203t178.5 76q92 0 158 -34l-34 -176h-7q-4 79 -37 122t-95 43q-70 0 -107.5 -47.5t-37.5 -133.5q0 -85 50 -148.5t134 -63.5q108 0 135 96l8 -2q-8 -88 -60 -140t-132 -52z" />
    <glyph glyph-name="Ccircumflex" unicode="&#x108;" horiz-adv-x="648" 
d="M258 734h-13l121 126h14l121 -126h-13l-115 69zM346 -20q-141 0 -227 98.5t-86 261.5q0 170 95 275t247 105q120 0 226 -46l-37 -235h-8q-15 231 -210 231q-95 0 -151.5 -67t-56.5 -180q0 -147 77.5 -240t200.5 -93q151 0 186 133l8 -3q-47 -240 -264 -240z" />
    <glyph glyph-name="ccircumflex" unicode="&#x109;" horiz-adv-x="474" 
d="M123 554l119 146h34l119 -146h-29l-107 86l-108 -86h-28zM252 -15q-100 0 -160.5 70.5t-60.5 186.5q0 127 67.5 203t178.5 76q92 0 158 -34l-34 -176h-7q-4 79 -37 122t-95 43q-70 0 -107.5 -47.5t-37.5 -133.5q0 -85 50 -148.5t134 -63.5q108 0 135 96l8 -2
q-8 -88 -60 -140t-132 -52z" />
    <glyph glyph-name="Cdotaccent" unicode="&#x10a;" horiz-adv-x="648" 
d="M373 748q-25 0 -41.5 16t-16.5 42t16.5 42t41.5 16t41.5 -16t16.5 -42t-16.5 -42t-41.5 -16zM346 -20q-141 0 -227 98.5t-86 261.5q0 170 95 275t247 105q120 0 226 -46l-37 -235h-8q-15 231 -210 231q-95 0 -151.5 -67t-56.5 -180q0 -147 77.5 -240t200.5 -93
q151 0 186 133l8 -3q-47 -240 -264 -240z" />
    <glyph glyph-name="cdotaccent" unicode="&#x10b;" horiz-adv-x="474" 
d="M259 581q-28 0 -46.5 18.5t-18.5 45.5t18.5 45.5t46.5 18.5t46 -18.5t18 -45.5t-18 -45.5t-46 -18.5zM252 -15q-100 0 -160.5 70.5t-60.5 186.5q0 127 67.5 203t178.5 76q92 0 158 -34l-34 -176h-7q-4 79 -37 122t-95 43q-70 0 -107.5 -47.5t-37.5 -133.5
q0 -85 50 -148.5t134 -63.5q108 0 135 96l8 -2q-8 -88 -60 -140t-132 -52z" />
    <glyph glyph-name="Ccaron" unicode="&#x10c;" horiz-adv-x="648" 
d="M258 860l115 -57l115 57h13l-121 -114h-14l-121 114h13zM346 -20q-141 0 -227 98.5t-86 261.5q0 170 95 275t247 105q120 0 226 -46l-37 -235h-8q-15 231 -210 231q-95 0 -151.5 -67t-56.5 -180q0 -147 77.5 -240t200.5 -93q151 0 186 133l8 -3q-47 -240 -264 -240z" />
    <glyph glyph-name="ccaron" unicode="&#x10d;" horiz-adv-x="474" 
d="M242 559l-119 141h28l108 -81l107 81h29l-119 -141h-34zM252 -15q-100 0 -160.5 70.5t-60.5 186.5q0 127 67.5 203t178.5 76q92 0 158 -34l-34 -176h-7q-4 79 -37 122t-95 43q-70 0 -107.5 -47.5t-37.5 -133.5q0 -85 50 -148.5t134 -63.5q108 0 135 96l8 -2
q-8 -88 -60 -140t-132 -52z" />
    <glyph glyph-name="Dcaron" unicode="&#x10e;" horiz-adv-x="712" 
d="M237 860l115 -57l115 57h13l-121 -114h-14l-121 114h13zM311 700q172 0 268.5 -92.5t96.5 -256.5q0 -168 -99.5 -259.5t-264.5 -91.5h-282v7q42 6 57 25.5t15 71.5v499q0 45 -15.5 64t-56.5 26v7h281zM282 21q132 0 190.5 72t58.5 250q0 183 -60 259.5t-189 76.5h-48
v-658h48z" />
    <glyph glyph-name="dcaron" unicode="&#x10f;" horiz-adv-x="653" 
d="M488 79q0 -37 15 -51.5t50 -20.5v-6h-183v84q-16 -42 -54 -71t-92 -29q-84 0 -137.5 68.5t-53.5 181.5q0 130 70 208t173 78q51 0 94 -25v116q0 35 -20 47t-71 5v7l209 59v-651zM535 535l-3 9q61 19 61 56q0 27 -32 30q-44 4 -44 43q0 19 13 33t34 14q26 0 44.5 -20.5
t18.5 -58.5q0 -80 -92 -106zM289 50q60 0 81 52v339q-9 24 -30.5 40.5t-51.5 16.5q-59 0 -93 -61t-34 -169q0 -101 36 -159.5t92 -58.5z" />
    <glyph glyph-name="Dcroat" unicode="&#x110;" horiz-adv-x="712" 
d="M311 700q172 0 268.5 -92.5t96.5 -256.5q0 -168 -99.5 -259.5t-264.5 -91.5h-282v7q42 6 57 25.5t15 71.5v249h-71v19h71v231q0 45 -15.5 64t-56.5 26v7h281zM282 21q132 0 190.5 72t58.5 250q0 183 -60 259.5t-189 76.5h-48v-307h135v-19h-135v-332h48z" />
    <glyph glyph-name="dcroat" unicode="&#x111;" horiz-adv-x="573" 
d="M555 585h-67v-506q0 -37 15 -51.5t50 -20.5v-6h-183v84q-16 -42 -54 -71t-92 -29q-84 0 -137.5 68.5t-53.5 181.5q0 130 70 208t173 78q51 0 94 -25v89h-187v15h187v12q0 35 -20 47t-71 5v7l209 59v-130h67v-15zM370 102v339q-9 24 -30.5 40.5t-51.5 16.5q-59 0 -93 -61
t-34 -169q0 -101 36 -159.5t92 -58.5q60 0 81 52z" />
    <glyph glyph-name="Emacron" unicode="&#x112;" horiz-adv-x="606" 
d="M178 785v32h290v-32h-290zM559 265h6l-26 -265h-509v7q42 6 57 25.5t15 71.5v499q0 45 -15.5 64t-56.5 26v7h497l19 -230h-7q-28 109 -77 159t-139 50h-89v-309h60q62 0 95 31.5t47 96.5h6v-284h-6q-14 68 -47 101t-95 33h-60v-327h87q106 0 156 54t82 190z" />
    <glyph glyph-name="emacron" unicode="&#x113;" horiz-adv-x="479" 
d="M381 640v-32h-290v32h290zM438 180l8 -2q-17 -98 -70.5 -145.5t-126.5 -47.5q-94 0 -156 68t-62 191t60 200t163 77q83 0 136.5 -57t50.5 -163h-320q5 -103 53 -160.5t126 -57.5q48 0 83 20.5t55 76.5zM231 497q-50 0 -80 -47.5t-30 -127.5h207q1 90 -25 132.5t-72 42.5z
" />
    <glyph glyph-name="Ebreve" unicode="&#x114;" horiz-adv-x="606" 
d="M323 749q-58 0 -95.5 31t-37.5 84h14q3 -30 35.5 -46t83.5 -16t83 16t36 46h15q0 -53 -38 -84t-96 -31zM559 265h6l-26 -265h-509v7q42 6 57 25.5t15 71.5v499q0 45 -15.5 64t-56.5 26v7h497l19 -230h-7q-28 109 -77 159t-139 50h-89v-309h60q62 0 95 31.5t47 96.5h6
v-284h-6q-14 68 -47 101t-95 33h-60v-327h87q106 0 156 54t82 190z" />
    <glyph glyph-name="ebreve" unicode="&#x115;" horiz-adv-x="479" 
d="M236 557q-52 0 -85 37t-33 106h19q2 -41 29 -62t70 -21t70 21t29 62h19q0 -69 -33 -106t-85 -37zM438 180l8 -2q-17 -98 -70.5 -145.5t-126.5 -47.5q-94 0 -156 68t-62 191t60 200t163 77q83 0 136.5 -57t50.5 -163h-320q5 -103 53 -160.5t126 -57.5q48 0 83 20.5
t55 76.5zM231 497q-50 0 -80 -47.5t-30 -127.5h207q1 90 -25 132.5t-72 42.5z" />
    <glyph glyph-name="Edotaccent" unicode="&#x116;" horiz-adv-x="606" 
d="M323 748q-25 0 -41.5 16t-16.5 42t16.5 42t41.5 16t41.5 -16t16.5 -42t-16.5 -42t-41.5 -16zM559 265h6l-26 -265h-509v7q42 6 57 25.5t15 71.5v499q0 45 -15.5 64t-56.5 26v7h497l19 -230h-7q-28 109 -77 159t-139 50h-89v-309h60q62 0 95 31.5t47 96.5h6v-284h-6
q-14 68 -47 101t-95 33h-60v-327h87q106 0 156 54t82 190z" />
    <glyph glyph-name="edotaccent" unicode="&#x117;" horiz-adv-x="479" 
d="M236 581q-28 0 -46.5 18.5t-18.5 45.5t18.5 45.5t46.5 18.5t46 -18.5t18 -45.5t-18 -45.5t-46 -18.5zM438 180l8 -2q-17 -98 -70.5 -145.5t-126.5 -47.5q-94 0 -156 68t-62 191t60 200t163 77q83 0 136.5 -57t50.5 -163h-320q5 -103 53 -160.5t126 -57.5q48 0 83 20.5
t55 76.5zM231 497q-50 0 -80 -47.5t-30 -127.5h207q1 90 -25 132.5t-72 42.5z" />
    <glyph glyph-name="Eogonek" unicode="&#x118;" horiz-adv-x="606" 
d="M437 0q-80 -25 -80 -92q0 -56 59 -56q47 0 66 42l4 -2q-21 -102 -105 -102q-42 0 -66.5 22t-24.5 60q0 43 32 77.5t89 50.5h-381v7q42 6 57 25.5t15 71.5v499q0 45 -15.5 64t-56.5 26v7h497l19 -230h-7q-28 109 -77 159t-139 50h-89v-309h60q62 0 95 31.5t47 96.5h6v-284
h-6q-14 68 -47 101t-95 33h-60v-327h87q106 0 156 54t82 190h6l-26 -265h-102z" />
    <glyph glyph-name="eogonek" unicode="&#x119;" horiz-adv-x="479" 
d="M311 -5q-65 -27 -65 -87q0 -56 59 -56q47 0 66 42l4 -2q-21 -102 -105 -102q-42 0 -66.5 22t-24.5 60q0 74 82 113h-12q-94 0 -156 68t-62 191t60 200t163 77q83 0 136.5 -57t50.5 -163h-320q5 -103 53 -160.5t126 -57.5q48 0 83 20.5t55 76.5l8 -2q-24 -136 -120 -178
h-1q-1 -1 -2 -1q-4 -2 -12 -4zM231 497q-50 0 -80 -47.5t-30 -127.5h207q1 90 -25 132.5t-72 42.5z" />
    <glyph glyph-name="Ecaron" unicode="&#x11a;" horiz-adv-x="606" 
d="M208 860l115 -57l115 57h13l-121 -114h-14l-121 114h13zM559 265h6l-26 -265h-509v7q42 6 57 25.5t15 71.5v499q0 45 -15.5 64t-56.5 26v7h497l19 -230h-7q-28 109 -77 159t-139 50h-89v-309h60q62 0 95 31.5t47 96.5h6v-284h-6q-14 68 -47 101t-95 33h-60v-327h87
q106 0 156 54t82 190z" />
    <glyph glyph-name="ecaron" unicode="&#x11b;" horiz-adv-x="479" 
d="M253 559h-34l-119 141h28l108 -81l107 81h29zM438 180l8 -2q-17 -98 -70.5 -145.5t-126.5 -47.5q-94 0 -156 68t-62 191t60 200t163 77q83 0 136.5 -57t50.5 -163h-320q5 -103 53 -160.5t126 -57.5q48 0 83 20.5t55 76.5zM231 497q-50 0 -80 -47.5t-30 -127.5h207
q1 90 -25 132.5t-72 42.5z" />
    <glyph glyph-name="Gcircumflex" unicode="&#x11c;" horiz-adv-x="729" 
d="M295 734h-13l121 126h14l121 -126h-13l-115 69zM711 332v-7q-41 -7 -56.5 -27t-15.5 -63v-183q-105 -72 -247 -72q-163 0 -261 100t-98 266q0 172 105 273t283 101q112 0 218 -43l-34 -214h-7q-12 225 -193 225q-106 0 -164.5 -83t-58.5 -232q0 -161 65 -265t166 -104
q72 0 99 37v176q0 56 -23 77.5t-94 30.5v7h316z" />
    <glyph glyph-name="gcircumflex" unicode="&#x11d;" horiz-adv-x="514" 
d="M254 640l-108 -86h-28l119 146h34l119 -146h-29zM358 100q140 -9 140 -120q0 -81 -66 -138t-194 -57q-107 0 -163.5 33t-56.5 90q0 35 24 62.5t70 40.5q-62 24 -62 93q0 37 24 67t65 40q-86 45 -86 142q0 74 55 121t145 47q51 0 90 -15h146v-17h-111q76 -47 76 -136
q0 -75 -55 -121.5t-146 -46.5q-54 0 -100 19q-48 -9 -48 -45q0 -40 70 -45zM254 505q-39 1 -62 -38.5t-23 -116.5q0 -74 22.5 -111.5t62.5 -37.5q39 0 62 38t23 111q0 76 -23 115.5t-62 39.5zM275 -181q82 0 127 29.5t45 73.5q0 33 -20 46t-70 17l-202 16q-18 2 -27 4
q-33 -22 -33 -65q0 -55 48.5 -88t131.5 -33z" />
    <glyph glyph-name="Gbreve" unicode="&#x11e;" horiz-adv-x="729" 
d="M410 749q-58 0 -95.5 31t-37.5 84h14q3 -30 35.5 -46t83.5 -16t83 16t36 46h15q0 -53 -38 -84t-96 -31zM711 332v-7q-41 -7 -56.5 -27t-15.5 -63v-183q-105 -72 -247 -72q-163 0 -261 100t-98 266q0 172 105 273t283 101q112 0 218 -43l-34 -214h-7q-12 225 -193 225
q-106 0 -164.5 -83t-58.5 -232q0 -161 65 -265t166 -104q72 0 99 37v176q0 56 -23 77.5t-94 30.5v7h316z" />
    <glyph glyph-name="gbreve" unicode="&#x11f;" horiz-adv-x="514" 
d="M254 557q-52 0 -85 37t-33 106h19q2 -41 29 -62t70 -21t70 21t29 62h19q0 -69 -33 -106t-85 -37zM358 100q140 -9 140 -120q0 -81 -66 -138t-194 -57q-107 0 -163.5 33t-56.5 90q0 35 24 62.5t70 40.5q-62 24 -62 93q0 37 24 67t65 40q-86 45 -86 142q0 74 55 121t145 47
q51 0 90 -15h146v-17h-111q76 -47 76 -136q0 -75 -55 -121.5t-146 -46.5q-54 0 -100 19q-48 -9 -48 -45q0 -40 70 -45zM254 505q-39 1 -62 -38.5t-23 -116.5q0 -74 22.5 -111.5t62.5 -37.5q39 0 62 38t23 111q0 76 -23 115.5t-62 39.5zM275 -181q82 0 127 29.5t45 73.5
q0 33 -20 46t-70 17l-202 16q-18 2 -27 4q-33 -22 -33 -65q0 -55 48.5 -88t131.5 -33z" />
    <glyph glyph-name="Gdotaccent" unicode="&#x120;" horiz-adv-x="729" 
d="M410 748q-26 0 -42 16t-16 42t16 42t42 16t42 -16t16 -42t-16 -42t-42 -16zM711 332v-7q-41 -7 -56.5 -27t-15.5 -63v-183q-105 -72 -247 -72q-163 0 -261 100t-98 266q0 172 105 273t283 101q112 0 218 -43l-34 -214h-7q-12 225 -193 225q-106 0 -164.5 -83t-58.5 -232
q0 -161 65 -265t166 -104q72 0 99 37v176q0 56 -23 77.5t-94 30.5v7h316z" />
    <glyph glyph-name="gdotaccent" unicode="&#x121;" horiz-adv-x="514" 
d="M254 581q-28 0 -46.5 18.5t-18.5 45.5t18.5 45.5t46.5 18.5t46 -18.5t18 -45.5t-18 -45.5t-46 -18.5zM358 100q140 -9 140 -120q0 -81 -66 -138t-194 -57q-107 0 -163.5 33t-56.5 90q0 35 24 62.5t70 40.5q-62 24 -62 93q0 37 24 67t65 40q-86 45 -86 142q0 74 55 121
t145 47q51 0 90 -15h146v-17h-111q76 -47 76 -136q0 -75 -55 -121.5t-146 -46.5q-54 0 -100 19q-48 -9 -48 -45q0 -40 70 -45zM254 505q-39 1 -62 -38.5t-23 -116.5q0 -74 22.5 -111.5t62.5 -37.5q39 0 62 38t23 111q0 76 -23 115.5t-62 39.5zM275 -181q82 0 127 29.5
t45 73.5q0 33 -20 46t-70 17l-202 16q-18 2 -27 4q-33 -22 -33 -65q0 -55 48.5 -88t131.5 -33z" />
    <glyph glyph-name="Gcommaaccent" unicode="&#x122;" horiz-adv-x="729" 
d="M711 332v-7q-41 -7 -56.5 -27t-15.5 -63v-183q-105 -72 -247 -72q-163 0 -261 100t-98 266q0 172 105 273t283 101q112 0 218 -43l-34 -214h-7q-12 225 -193 225q-106 0 -164.5 -83t-58.5 -232q0 -161 65 -265t166 -104q72 0 99 37v176q0 56 -23 77.5t-94 30.5v7h316z
M391 -212l-3 14q54 15 54 45q0 23 -36 31q-38 8 -38 42q0 20 12.5 32t33.5 12q25 0 44.5 -23.5t19.5 -53.5q0 -75 -87 -99z" />
    <glyph glyph-name="gcommaaccent" unicode="&#x123;" horiz-adv-x="514" 
d="M256 565q-26 0 -43.5 22.5t-17.5 54.5q0 77 85 103l5 -15q-56 -17 -56 -46q0 -22 33 -29q42 -10 42 -46q0 -20 -13 -32t-35 -12zM358 100q140 -9 140 -120q0 -81 -66 -138t-194 -57q-107 0 -163.5 33t-56.5 90q0 35 24 62.5t70 40.5q-62 24 -62 93q0 37 24 67t65 40
q-86 45 -86 142q0 74 55 121t145 47q51 0 90 -15h146v-17h-111q76 -47 76 -136q0 -75 -55 -121.5t-146 -46.5q-54 0 -100 19q-48 -9 -48 -45q0 -40 70 -45zM254 505q-39 1 -62 -38.5t-23 -116.5q0 -74 22.5 -111.5t62.5 -37.5q39 0 62 38t23 111q0 76 -23 115.5t-62 39.5z
M275 -181q82 0 127 29.5t45 73.5q0 33 -20 46t-70 17l-202 16q-18 2 -27 4q-33 -22 -33 -65q0 -55 48.5 -88t131.5 -33z" />
    <glyph glyph-name="Hcircumflex" unicode="&#x124;" horiz-adv-x="759" 
d="M265 734h-13l121 126h14l121 -126h-13l-115 69zM729 693q-41 -6 -56.5 -26t-15.5 -68v-498q0 -48 15.5 -68t56.5 -26v-7h-276v7q41 6 56.5 26t15.5 68v240h-291v-240q0 -48 15.5 -68t56.5 -26v-7h-276v7q41 6 56.5 26t15.5 68v498q0 48 -15.5 68t-56.5 26v7h276v-7
q-41 -6 -56.5 -26t-15.5 -68v-232h291v232q0 48 -15.5 68t-56.5 26v7h276v-7z" />
    <glyph glyph-name="hcircumflex" unicode="&#x125;" horiz-adv-x="588" 
d="M30 734h-13l121 126h14l121 -126h-13l-115 69zM20 0v7q36 5 51 18t15 42v539q0 39 -13.5 52t-52.5 13v7l184 52v-314q13 46 54.5 75.5t97.5 29.5q72 0 109.5 -41.5t37.5 -114.5v-298q0 -29 14.5 -42t50.5 -18v-7h-240v7q32 5 44 16t12 39v293q0 112 -88 112
q-66 0 -92 -66v-339q0 -28 12 -39t44 -16v-7h-240z" />
    <glyph glyph-name="Hbar" unicode="&#x126;" horiz-adv-x="759" 
d="M729 693q-41 -6 -56.5 -26t-15.5 -68v-64h67v-16h-67v-418q0 -48 15.5 -68t56.5 -26v-7h-276v7q41 6 56.5 26t15.5 68v240h-291v-240q0 -48 15.5 -68t56.5 -26v-7h-276v7q41 6 56.5 26t15.5 68v418h-61v16h61v64q0 48 -15.5 68t-56.5 26v7h276v-7q-41 -6 -56.5 -26
t-15.5 -68v-64h291v64q0 48 -15.5 68t-56.5 26v7h276v-7zM525 367v152h-291v-152h291z" />
    <glyph glyph-name="hbar" unicode="&#x127;" horiz-adv-x="588" 
d="M503 67q0 -29 14.5 -42t50.5 -18v-7h-240v7q32 5 44 16t12 39v293q0 112 -88 112q-66 0 -92 -66v-339q0 -28 12 -39t44 -16v-7h-240v7q36 5 51 18t15 42v518h-71v15h71v6q0 39 -13.5 52t-52.5 13v7l184 52v-130h183v-15h-183v-169q13 46 54.5 75.5t97.5 29.5
q72 0 109.5 -41.5t37.5 -114.5v-298z" />
    <glyph glyph-name="Itilde" unicode="&#x128;" horiz-adv-x="336" 
d="M232 759q-30 0 -68.5 20.5t-63.5 20.5q-54 0 -69 -45h-6q4 51 30 75.5t67 24.5q30 0 68 -20.5t63 -20.5q55 0 69 46h6q-4 -51 -29.5 -76t-66.5 -25zM306 693q-41 -7 -56.5 -27t-15.5 -63v-499q0 -47 16 -69t56 -28v-7h-276v7q42 6 57 25.5t15 71.5v499q0 45 -15.5 64
t-56.5 26v7h276v-7z" />
    <glyph glyph-name="itilde" unicode="&#x129;" horiz-adv-x="294" 
d="M198 582q-29 0 -66 22.5t-61 22.5q-53 0 -67 -49h-5q4 54 28.5 81.5t63.5 27.5q29 0 66 -22.5t61 -22.5q52 0 67 49h5q-7 -109 -92 -109zM209 67q0 -29 14.5 -42t50.5 -18v-7h-249v7q36 5 51 18t15 42v324q0 42 -13.5 55t-52.5 13v6l184 50v-448z" />
    <glyph glyph-name="Imacron" unicode="&#x12a;" horiz-adv-x="336" 
d="M23 785v32h290v-32h-290zM306 693q-41 -7 -56.5 -27t-15.5 -63v-499q0 -47 16 -69t56 -28v-7h-276v7q42 6 57 25.5t15 71.5v499q0 45 -15.5 64t-56.5 26v7h276v-7z" />
    <glyph glyph-name="imacron" unicode="&#x12b;" horiz-adv-x="294" 
d="M-1 608v32h290v-32h-290zM209 67q0 -29 14.5 -42t50.5 -18v-7h-249v7q36 5 51 18t15 42v324q0 42 -13.5 55t-52.5 13v6l184 50v-448z" />
    <glyph glyph-name="Ibreve" unicode="&#x12c;" horiz-adv-x="336" 
d="M168 749q-58 0 -95.5 31t-37.5 84h14q3 -30 35.5 -46t83.5 -16t83 16t36 46h15q0 -53 -38 -84t-96 -31zM306 693q-41 -7 -56.5 -27t-15.5 -63v-499q0 -47 16 -69t56 -28v-7h-276v7q42 6 57 25.5t15 71.5v499q0 45 -15.5 64t-56.5 26v7h276v-7z" />
    <glyph glyph-name="ibreve" unicode="&#x12d;" horiz-adv-x="294" 
d="M144 557q-52 0 -85 37t-33 106h19q2 -41 29 -62t70 -21t70 21t29 62h19q0 -69 -33 -106t-85 -37zM209 67q0 -29 14.5 -42t50.5 -18v-7h-249v7q36 5 51 18t15 42v324q0 42 -13.5 55t-52.5 13v6l184 50v-448z" />
    <glyph glyph-name="Iogonek" unicode="&#x12e;" horiz-adv-x="336" 
d="M306 693q-41 -7 -56.5 -27t-15.5 -63v-499q0 -47 16 -69t56 -28v-7h-103q-80 -25 -80 -92q0 -56 59 -56q47 0 66 42l4 -2q-21 -102 -105 -102q-42 0 -66.5 22t-24.5 60q0 43 32 77.5t89 50.5h-147v7q42 6 57 25.5t15 71.5v499q0 45 -15.5 64t-56.5 26v7h276v-7z" />
    <glyph glyph-name="iogonek" unicode="&#x12f;" horiz-adv-x="294" 
d="M144 581q-28 0 -46.5 18.5t-18.5 45.5t18.5 45.5t46.5 18.5t46 -18.5t18 -45.5t-18 -45.5t-46 -18.5zM182 0q-80 -25 -80 -92q0 -56 59 -56q47 0 66 42l4 -2q-21 -102 -105 -102q-42 0 -66.5 22t-24.5 60q0 43 32 77.5t89 50.5h-131v7q36 5 51 18t15 42v324
q0 42 -13.5 55t-52.5 13v6l184 50v-448q0 -29 14.5 -42t50.5 -18v-7h-92z" />
    <glyph glyph-name="Idotaccent" unicode="&#x130;" horiz-adv-x="336" 
d="M168 748q-26 0 -42 16t-16 42t16 42t42 16t42 -16t16 -42t-16 -42t-42 -16zM306 693q-41 -7 -56.5 -27t-15.5 -63v-499q0 -47 16 -69t56 -28v-7h-276v7q42 6 57 25.5t15 71.5v499q0 45 -15.5 64t-56.5 26v7h276v-7z" />
    <glyph glyph-name="dotlessi" unicode="&#x131;" horiz-adv-x="294" 
d="M209 67q0 -29 14.5 -42t50.5 -18v-7h-249v7q36 5 51 18t15 42v324q0 42 -13.5 55t-52.5 13v6l184 50v-448z" />
    <glyph glyph-name="IJ" unicode="&#x132;" horiz-adv-x="662" 
d="M306 693q-41 -7 -56.5 -27t-15.5 -63v-499q0 -47 16 -69t56 -28v-7h-276v7q42 6 57 25.5t15 71.5v499q0 45 -15.5 64t-56.5 26v7h276v-7zM402 -78q-51 0 -78 12v5q9 -2 24 -2q49 0 75.5 35t26.5 103v528q0 45 -15.5 64t-56.5 26v7h276v-7q-41 -7 -56.5 -27t-15.5 -63
v-493q0 -92 -47.5 -140t-132.5 -48z" />
    <glyph glyph-name="ij" unicode="&#x133;" horiz-adv-x="570" 
d="M144 570q-30 0 -50.5 20t-20.5 50q0 31 20 51t51 20q30 0 50.5 -20.5t20.5 -50.5q0 -29 -20.5 -49.5t-50.5 -20.5zM431 570q-31 0 -51 20t-20 50q0 31 20 51t51 20q30 0 50.5 -20.5t20.5 -50.5q0 -29 -20.5 -49.5t-50.5 -20.5zM209 67q0 -29 14.5 -42t50.5 -18v-7h-249v7
q36 5 51 18t15 42v324q0 42 -13.5 55t-52.5 13v6l184 50v-448zM338 -215q-44 0 -71 12v4q11 -3 22 -3q89 0 89 133v460q0 42 -13 55t-53 13v6l184 50v-554q0 -83 -39 -129.5t-119 -46.5z" />
    <glyph glyph-name="Jcircumflex" unicode="&#x134;" horiz-adv-x="326" 
d="M67 734h-13l121 126h14l121 -126h-13l-115 69zM66 -78q-51 0 -78 12v5q9 -2 24 -2q49 0 75.5 35t26.5 103v528q0 45 -15.5 64t-56.5 26v7h276v-7q-41 -7 -56.5 -27t-15.5 -63v-493q0 -92 -47.5 -140t-132.5 -48z" />
    <glyph glyph-name="jcircumflex" unicode="&#x135;" horiz-adv-x="276" 
d="M1 554l119 146h34l119 -146h-29l-107 86l-108 -86h-28zM44 -215q-44 0 -71 12v4q11 -3 22 -3q89 0 89 133v460q0 42 -13 55t-53 13v6l184 50v-554q0 -83 -39 -129.5t-119 -46.5z" />
    <glyph glyph-name="Kcommaaccent" unicode="&#x136;" horiz-adv-x="726" 
d="M306 693q-41 -7 -56.5 -27t-15.5 -63v-499q0 -47 16 -69t56 -28v-7h-276v7q42 6 57 25.5t15 71.5v499q0 45 -15.5 64t-56.5 26v7h276v-7zM606 92q36 -47 57 -63.5t56 -21.5v-7h-215l-270 360l216 208q32 31 43.5 46.5t11.5 31.5q0 22 -17 33t-58 14v7h243v-7
q-47 -8 -81.5 -31t-86.5 -72l-160 -156zM359 -212l-3 14q54 15 54 45q0 23 -36 31q-38 8 -38 42q0 20 12.5 32t33.5 12q25 0 44.5 -23.5t19.5 -53.5q0 -75 -87 -99z" />
    <glyph glyph-name="kcommaaccent" unicode="&#x137;" horiz-adv-x="594" 
d="M20 0v7q36 5 51 18t15 42v539q0 39 -13.5 52t-52.5 13v7l184 52v-668q0 -27 14 -38.5t51 -16.5v-7h-249zM406 0l-197 267l157 125q52 41 52 69q0 36 -58 39v6h193v-6q-55 -21 -124 -79l-116 -97l180 -245q29 -37 50 -52.5t46 -20.5v-6h-183zM274 -212l-3 14q54 15 54 45
q0 23 -36 31q-38 8 -38 42q0 20 12.5 32t33.5 12q25 0 44.5 -23.5t19.5 -53.5q0 -75 -87 -99z" />
    <glyph glyph-name="kgreenlandic" unicode="&#x138;" horiz-adv-x="606" 
d="M209 62q0 -27 14 -38.5t51 -16.5v-7h-249v7q36 5 51 18t15 42v327q0 39 -13.5 52t-52.5 13v7l184 52v-456zM505 79q55 -66 96 -73v-6h-184l-205 267l166 131q48 38 48 63q0 35 -55 39v6h195v-6q-63 -23 -122 -73l-126 -105z" />
    <glyph glyph-name="Lacute" unicode="&#x139;" horiz-adv-x="560" 
d="M178 746h-11l67 114h107v-6zM529 276h7l-28 -276h-478v7q42 6 57 25.5t15 71.5v499q0 45 -15.5 64t-56.5 26v7h276v-7q-41 -7 -56.5 -27t-15.5 -63v-582h47q111 0 164.5 59.5t83.5 195.5z" />
    <glyph glyph-name="lacute" unicode="&#x13a;" horiz-adv-x="289" 
d="M153 746h-11l67 114h107v-6zM204 67q0 -29 14.5 -42t50.5 -18v-7h-249v7q36 5 51 18t15 42v539q0 39 -13.5 52t-52.5 13v7l184 52v-663z" />
    <glyph glyph-name="Lcommaaccent" unicode="&#x13b;" horiz-adv-x="560" 
d="M529 276h7l-28 -276h-478v7q42 6 57 25.5t15 71.5v499q0 45 -15.5 64t-56.5 26v7h276v-7q-41 -7 -56.5 -27t-15.5 -63v-582h47q111 0 164.5 59.5t83.5 195.5zM275 -212l-3 14q54 15 54 45q0 23 -36 31q-38 8 -38 42q0 20 12.5 32t33.5 12q25 0 44.5 -23.5t19.5 -53.5
q0 -75 -87 -99z" />
    <glyph glyph-name="lcommaaccent" unicode="&#x13c;" horiz-adv-x="289" 
d="M204 67q0 -29 14.5 -42t50.5 -18v-7h-249v7q36 5 51 18t15 42v539q0 39 -13.5 52t-52.5 13v7l184 52v-663zM120 -212l-3 14q54 15 54 45q0 23 -36 31q-38 8 -38 42q0 20 12.5 32t33.5 12q25 0 44.5 -23.5t19.5 -53.5q0 -75 -87 -99z" />
    <glyph glyph-name="Lcaron" unicode="&#x13d;" horiz-adv-x="560" 
d="M347 535l-3 9q61 19 61 56q0 27 -32 30q-44 4 -44 43q0 19 13 33t34 14q26 0 44.5 -20.5t18.5 -58.5q0 -80 -92 -106zM529 276h7l-28 -276h-478v7q42 6 57 25.5t15 71.5v499q0 45 -15.5 64t-56.5 26v7h276v-7q-41 -7 -56.5 -27t-15.5 -63v-582h47q111 0 164.5 59.5
t83.5 195.5z" />
    <glyph glyph-name="lcaron" unicode="&#x13e;" horiz-adv-x="369" 
d="M204 67q0 -29 14.5 -42t50.5 -18v-7h-249v7q36 5 51 18t15 42v539q0 39 -13.5 52t-52.5 13v7l184 52v-663zM256 529l-3 9q61 19 61 56q0 27 -32 30q-44 4 -44 43q0 19 13 33t34 14q26 0 44.5 -20.5t18.5 -58.5q0 -80 -92 -106z" />
    <glyph glyph-name="Ldot" unicode="&#x13f;" horiz-adv-x="560" 
d="M529 276h7l-28 -276h-478v7q42 6 57 25.5t15 71.5v499q0 45 -15.5 64t-56.5 26v7h276v-7q-41 -7 -56.5 -27t-15.5 -63v-582h47q111 0 164.5 59.5t83.5 195.5zM385 343q-30 0 -50.5 20.5t-20.5 50.5t20.5 50.5t50.5 20.5t50.5 -21t20.5 -50t-20.5 -50t-50.5 -21z" />
    <glyph glyph-name="ldot" unicode="&#x140;" horiz-adv-x="334" 
d="M204 67q0 -29 14.5 -42t50.5 -18v-7h-249v7q36 5 51 18t15 42v539q0 39 -13.5 52t-52.5 13v7l184 52v-663zM313 315q-28 0 -46.5 19t-18.5 46t18.5 45.5t46.5 18.5q27 0 45.5 -19t18.5 -45q0 -27 -18.5 -46t-45.5 -19z" />
    <glyph glyph-name="Lslash" unicode="&#x141;" horiz-adv-x="560" 
d="M529 276h7l-28 -276h-478v7q42 6 57 25.5t15 71.5v192l-68 -35v19l68 35v288q0 45 -15.5 64t-56.5 26v7h276v-7q-41 -7 -56.5 -27t-15.5 -63v-220l219 112v-19l-219 -112v-343h47q111 0 164.5 59.5t83.5 195.5z" />
    <glyph glyph-name="lslash" unicode="&#x142;" horiz-adv-x="262" 
d="M200 67q0 -29 14.5 -42t50.5 -18v-7h-249v7q36 5 51 18t15 42v250l-51 -46v20l51 46v269q0 39 -13.5 52t-52.5 13v7l184 52v-288l60 54v-20l-60 -54v-355z" />
    <glyph glyph-name="Nacute" unicode="&#x143;" horiz-adv-x="741" 
d="M575 852l-163 -108h-11l67 114h107v-6zM515 700h211v-7q-47 -6 -67 -31t-20 -79v-593h-4l-485 598v-463q0 -61 21.5 -85.5t75.5 -32.5v-7h-217v7q51 6 71.5 32t20.5 86v497q-46 53 -92 71v7h202l380 -464v347q0 55 -20.5 78.5t-76.5 31.5v7z" />
    <glyph glyph-name="nacute" unicode="&#x144;" horiz-adv-x="593" 
d="M308 561h-27l56 139h109v-5zM508 67q0 -29 14.5 -42t50.5 -18v-7h-240v7q32 5 44 16t12 39v292q0 114 -86 114q-67 0 -94 -67v-339q0 -28 12 -39t44 -16v-7h-240v7q36 5 51 18t15 42v327q0 41 -13.5 54.5t-52.5 12.5v7l184 50v-103q13 46 54.5 76t97.5 30q72 0 109.5 -42
t37.5 -115v-297z" />
    <glyph glyph-name="Ncommaaccent" unicode="&#x145;" horiz-adv-x="741" 
d="M515 700h211v-7q-47 -6 -67 -31t-20 -79v-593h-4l-485 598v-463q0 -61 21.5 -85.5t75.5 -32.5v-7h-217v7q51 6 71.5 32t20.5 86v497q-46 53 -92 71v7h202l380 -464v347q0 55 -20.5 78.5t-76.5 31.5v7zM391 -36q25 0 44.5 -23.5t19.5 -53.5q0 -75 -87 -99l-3 14
q54 15 54 45q0 23 -36 31q-38 8 -38 42q0 20 12.5 32t33.5 12z" />
    <glyph glyph-name="ncommaaccent" unicode="&#x146;" horiz-adv-x="593" 
d="M508 67q0 -29 14.5 -42t50.5 -18v-7h-240v7q32 5 44 16t12 39v292q0 114 -86 114q-67 0 -94 -67v-339q0 -28 12 -39t44 -16v-7h-240v7q36 5 51 18t15 42v327q0 41 -13.5 54.5t-52.5 12.5v7l184 50v-103q13 46 54.5 76t97.5 30q72 0 109.5 -42t37.5 -115v-297zM272 -212
l-3 14q54 15 54 45q0 23 -36 31q-38 8 -38 42q0 20 12.5 32t33.5 12q25 0 44.5 -23.5t19.5 -53.5q0 -75 -87 -99z" />
    <glyph glyph-name="Ncaron" unicode="&#x147;" horiz-adv-x="741" 
d="M409 744h-14l-121 114h13l115 -57l115 57h13zM515 700h211v-7q-47 -6 -67 -31t-20 -79v-593h-4l-485 598v-463q0 -61 21.5 -85.5t75.5 -32.5v-7h-217v7q51 6 71.5 32t20.5 86v497q-46 53 -92 71v7h202l380 -464v347q0 55 -20.5 78.5t-76.5 31.5v7z" />
    <glyph glyph-name="ncaron" unicode="&#x148;" horiz-adv-x="593" 
d="M278 559l-119 141h28l108 -81l107 81h29l-119 -141h-34zM508 67q0 -29 14.5 -42t50.5 -18v-7h-240v7q32 5 44 16t12 39v292q0 114 -86 114q-67 0 -94 -67v-339q0 -28 12 -39t44 -16v-7h-240v7q36 5 51 18t15 42v327q0 41 -13.5 54.5t-52.5 12.5v7l184 50v-103
q13 46 54.5 76t97.5 30q72 0 109.5 -42t37.5 -115v-297z" />
    <glyph glyph-name="napostrophe" unicode="&#x149;" horiz-adv-x="593" 
d="M25 535l-3 9q61 19 61 56q0 27 -32 30q-44 4 -44 43q0 19 13 33t34 14q26 0 44.5 -20.5t18.5 -58.5q0 -80 -92 -106zM508 67q0 -29 14.5 -42t50.5 -18v-7h-240v7q32 5 44 16t12 39v292q0 114 -86 114q-67 0 -94 -67v-339q0 -28 12 -39t44 -16v-7h-240v7q36 5 51 18t15 42
v327q0 41 -13.5 54.5t-52.5 12.5v7l184 50v-103q13 46 54.5 76t97.5 30q72 0 109.5 -42t37.5 -115v-297z" />
    <glyph glyph-name="Eng" unicode="&#x14a;" horiz-adv-x="741" 
d="M499 -215q-70 0 -110 31l3 5q27 -12 58 -12q34 0 52.5 25t18.5 68v218l-371 467v-462q0 -61 21.5 -85.5t75.5 -32.5v-7h-217v7q51 6 71.5 32t20.5 86v496q-47 56 -92 72v7h202l380 -469v352q0 55 -20.5 78.5t-76.5 31.5v7h211v-7q-47 -6 -67 -31t-20 -79v-626
q0 -88 -39.5 -130t-100.5 -42z" />
    <glyph glyph-name="eng" unicode="&#x14b;" horiz-adv-x="528" 
d="M361 521q72 0 109.5 -42t37.5 -115v-405q0 -89 -39.5 -131.5t-101.5 -42.5q-68 0 -110 31l4 5q27 -12 57 -12q34 0 52.5 25t18.5 68v452q0 114 -86 114q-67 0 -94 -67v-348q1 -23 12.5 -32.5t43.5 -13.5v-7h-240v7q36 5 51 18t15 42v327q0 41 -13.5 54.5t-52.5 12.5v7
l184 50v-103q13 46 54.5 76t97.5 30z" />
    <glyph glyph-name="Omacron" unicode="&#x14c;" horiz-adv-x="774" 
d="M242 785v32h290v-32h-290zM387 -20q-156 0 -255 103.5t-99 266.5t99 266.5t255 103.5t254.5 -103.5t98.5 -266.5t-98.5 -266.5t-254.5 -103.5zM387 9q205 0 205 341t-205 341t-205 -341t205 -341z" />
    <glyph glyph-name="omacron" unicode="&#x14d;" horiz-adv-x="559" 
d="M135 608v32h290v-32h-290zM280 -15q-113 0 -181 75t-68 193t68 193t181 75t181 -75t68 -193t-68 -193t-181 -75zM280 11q64 0 93 60t29 182t-29 182t-93 60t-93.5 -60t-29.5 -182t29.5 -182t93.5 -60z" />
    <glyph glyph-name="Obreve" unicode="&#x14e;" horiz-adv-x="774" 
d="M387 749q-58 0 -95.5 31t-37.5 84h14q3 -30 35.5 -46t83.5 -16t83 16t36 46h15q0 -53 -38 -84t-96 -31zM387 -20q-156 0 -255 103.5t-99 266.5t99 266.5t255 103.5t254.5 -103.5t98.5 -266.5t-98.5 -266.5t-254.5 -103.5zM387 9q205 0 205 341t-205 341t-205 -341
t205 -341z" />
    <glyph glyph-name="obreve" unicode="&#x14f;" horiz-adv-x="559" 
d="M280 557q-52 0 -85 37t-33 106h19q2 -41 29 -62t70 -21t70 21t29 62h19q0 -69 -33 -106t-85 -37zM280 -15q-113 0 -181 75t-68 193t68 193t181 75t181 -75t68 -193t-68 -193t-181 -75zM280 11q64 0 93 60t29 182t-29 182t-93 60t-93.5 -60t-29.5 -182t29.5 -182t93.5 -60
z" />
    <glyph glyph-name="Ohungarumlaut" unicode="&#x150;" horiz-adv-x="774" 
d="M334 749h-13l57 111h75v-5zM461 749h-13l57 111h75v-5zM387 -20q-156 0 -255 103.5t-99 266.5t99 266.5t255 103.5t254.5 -103.5t98.5 -266.5t-98.5 -266.5t-254.5 -103.5zM387 9q205 0 205 341t-205 341t-205 -341t205 -341z" />
    <glyph glyph-name="ohungarumlaut" unicode="&#x151;" horiz-adv-x="559" 
d="M215 560l82 140h78v-6l-153 -134h-7zM348 560l91 140h81v-6l-165 -134h-7zM280 -15q-113 0 -181 75t-68 193t68 193t181 75t181 -75t68 -193t-68 -193t-181 -75zM280 11q64 0 93 60t29 182t-29 182t-93 60t-93.5 -60t-29.5 -182t29.5 -182t93.5 -60z" />
    <glyph glyph-name="OE" unicode="&#x152;" horiz-adv-x="940" 
d="M896 265h3l-26 -265h-481q-158 0 -258.5 97.5t-100.5 252.5t100.5 252.5t258.5 97.5h465l23 -230h-4q-26 101 -91 156q-35 31 -79.5 42.5t-123.5 12.5v-319h44q70 0 106 32t50 97h3v-282h-3q-14 68 -50.5 101t-105.5 33h-44v-324q90 1 138 13.5t83 45.5q60 57 93 187z
M450 19v662h-36q-113 0 -173 -85t-60 -246t60 -246t173 -85h36z" />
    <glyph glyph-name="oe" unicode="&#x153;" horiz-adv-x="869" 
d="M828 180l8 -2q-17 -98 -70.5 -145.5t-126.5 -47.5q-118 0 -179 99q-60 -99 -188 -99q-109 0 -175 75t-66 193t66 193t175 75q131 0 190 -105q61 105 182 105q83 0 136.5 -57t50.5 -163h-320q5 -103 53 -160.5t126 -57.5q48 0 83 20.5t55 76.5zM621 497q-50 0 -80 -47.5
t-30 -127.5h207q1 90 -25 132.5t-72 42.5zM272 11q63 0 91.5 60t28.5 182t-28.5 182t-91.5 60q-115 0 -115 -242t115 -242z" />
    <glyph glyph-name="Racute" unicode="&#x154;" horiz-adv-x="703" 
d="M307 746h-11l67 114h107v-6zM30 0v7q42 6 57 25.5t15 71.5v499q0 45 -15.5 64t-56.5 26v7h287q260 0 260 -170q0 -77 -66 -124.5t-159 -47.5v-5q69 1 121 -29.5t76 -89.5l54 -134q35 -84 95 -92v-8h-190q-22 33 -48 104l-55 138q-25 62 -49 82.5t-74 20.5h-48v-241
q0 -47 16 -69t56 -28v-7h-276zM234 364h43q81 0 118 41t37 122q0 75 -31 113.5t-112 38.5h-55v-315z" />
    <glyph glyph-name="racute" unicode="&#x155;" horiz-adv-x="382" 
d="M257 561h-27l56 139h109v-5zM361 521h8v-118h-5q-14 8 -46 8q-53 0 -81 -39t-28 -135v-170q0 -31 18 -43.5t67 -16.5v-7h-269v7q36 5 51 18t15 42v321q0 44 -13.5 59t-52.5 14v7l179 50v-208h4q13 211 153 211z" />
    <glyph glyph-name="Rcommaaccent" unicode="&#x156;" horiz-adv-x="703" 
d="M30 0v7q42 6 57 25.5t15 71.5v499q0 45 -15.5 64t-56.5 26v7h287q260 0 260 -170q0 -77 -66 -124.5t-159 -47.5v-5q69 1 121 -29.5t76 -89.5l54 -134q35 -84 95 -92v-8h-190q-22 33 -48 104l-55 138q-25 62 -49 82.5t-74 20.5h-48v-241q0 -47 16 -69t56 -28v-7h-276z
M234 364h43q81 0 118 41t37 122q0 75 -31 113.5t-112 38.5h-55v-315zM335 -212l-3 14q54 15 54 45q0 23 -36 31q-38 8 -38 42q0 20 12.5 32t33.5 12q25 0 44.5 -23.5t19.5 -53.5q0 -75 -87 -99z" />
    <glyph glyph-name="rcommaaccent" unicode="&#x157;" horiz-adv-x="382" 
d="M361 521h8v-118h-5q-14 8 -46 8q-53 0 -81 -39t-28 -135v-170q0 -31 18 -43.5t67 -16.5v-7h-269v7q36 5 51 18t15 42v321q0 44 -13.5 59t-52.5 14v7l179 50v-208h4q13 211 153 211zM128 -212l-3 14q54 15 54 45q0 23 -36 31q-38 8 -38 42q0 20 12.5 32t33.5 12
q25 0 44.5 -23.5t19.5 -53.5q0 -75 -87 -99z" />
    <glyph glyph-name="Rcaron" unicode="&#x158;" horiz-adv-x="703" 
d="M182 860l115 -57l115 57h13l-121 -114h-14l-121 114h13zM30 0v7q42 6 57 25.5t15 71.5v499q0 45 -15.5 64t-56.5 26v7h287q260 0 260 -170q0 -77 -66 -124.5t-159 -47.5v-5q69 1 121 -29.5t76 -89.5l54 -134q35 -84 95 -92v-8h-190q-22 33 -48 104l-55 138
q-25 62 -49 82.5t-74 20.5h-48v-241q0 -47 16 -69t56 -28v-7h-276zM234 364h43q81 0 118 41t37 122q0 75 -31 113.5t-112 38.5h-55v-315z" />
    <glyph glyph-name="rcaron" unicode="&#x159;" horiz-adv-x="382" 
d="M227 559l-119 141h28l108 -81l107 81h29l-119 -141h-34zM361 521h8v-118h-5q-14 8 -46 8q-53 0 -81 -39t-28 -135v-170q0 -31 18 -43.5t67 -16.5v-7h-269v7q36 5 51 18t15 42v321q0 44 -13.5 59t-52.5 14v7l179 50v-208h4q13 211 153 211z" />
    <glyph glyph-name="Sacute" unicode="&#x15a;" horiz-adv-x="549" 
d="M300 746h-11l67 114h107v-6zM266 -20q-131 0 -234 58l28 201h6q17 -107 78 -167.5t152 -60.5q61 0 97.5 32.5t36.5 89.5q0 43 -24 71t-81 52l-127 57q-153 69 -153 204q0 89 63.5 146t182.5 57q118 0 215 -52l-33 -187h-6q-17 104 -70.5 156.5t-137.5 52.5
q-63 0 -98 -28.5t-35 -76.5q0 -42 24 -68.5t85 -53.5l137 -64q77 -34 110.5 -80t33.5 -114q0 -101 -68 -163t-182 -62z" />
    <glyph glyph-name="sacute" unicode="&#x15b;" horiz-adv-x="434" 
d="M245 561h-27l56 139h109v-5zM206 -15q-100 0 -174 51l26 148l8 -1q10 -75 57 -121t110 -46q46 0 70.5 22.5t24.5 57.5q0 53 -72 80l-118 50q-95 40 -95 135q0 67 50.5 113.5t143.5 46.5q92 0 156 -39l-28 -132h-8q-28 143 -148 143q-45 0 -67.5 -20t-22.5 -51
q0 -53 65 -79l116 -48q101 -42 101 -135q0 -76 -52.5 -125.5t-142.5 -49.5z" />
    <glyph glyph-name="Scircumflex" unicode="&#x15c;" horiz-adv-x="549" 
d="M175 734h-13l121 126h14l121 -126h-13l-115 69zM266 -20q-131 0 -234 58l28 201h6q17 -107 78 -167.5t152 -60.5q61 0 97.5 32.5t36.5 89.5q0 43 -24 71t-81 52l-127 57q-153 69 -153 204q0 89 63.5 146t182.5 57q118 0 215 -52l-33 -187h-6q-17 104 -70.5 156.5
t-137.5 52.5q-63 0 -98 -28.5t-35 -76.5q0 -42 24 -68.5t85 -53.5l137 -64q77 -34 110.5 -80t33.5 -114q0 -101 -68 -163t-182 -62z" />
    <glyph glyph-name="scircumflex" unicode="&#x15d;" horiz-adv-x="434" 
d="M96 554l119 146h34l119 -146h-29l-107 86l-108 -86h-28zM206 -15q-100 0 -174 51l26 148l8 -1q10 -75 57 -121t110 -46q46 0 70.5 22.5t24.5 57.5q0 53 -72 80l-118 50q-95 40 -95 135q0 67 50.5 113.5t143.5 46.5q92 0 156 -39l-28 -132h-8q-28 143 -148 143
q-45 0 -67.5 -20t-22.5 -51q0 -53 65 -79l116 -48q101 -42 101 -135q0 -76 -52.5 -125.5t-142.5 -49.5z" />
    <glyph glyph-name="Scedilla" unicode="&#x15e;" horiz-adv-x="549" 
d="M516 205q0 -94 -60 -155t-161 -69l-28 -44q11 9 33 9q32 0 53.5 -20.5t21.5 -56.5q0 -37 -24 -60.5t-60 -23.5q-31 0 -51.5 17t-26.5 46l8 4q16 -32 50 -32q21 0 34.5 14t13.5 37q0 21 -12 33t-30 12t-30 -9l-10 5l41 68h-12q-131 0 -234 58l28 201h6q17 -107 78 -167.5
t152 -60.5q61 0 97.5 32.5t36.5 89.5q0 43 -24 71t-81 52l-127 57q-153 69 -153 204q0 89 63.5 146t182.5 57q118 0 215 -52l-33 -187h-6q-17 104 -70.5 156.5t-137.5 52.5q-63 0 -98 -28.5t-35 -76.5q0 -42 24 -68.5t85 -53.5l137 -64q77 -34 110.5 -80t33.5 -114z" />
    <glyph glyph-name="scedilla" unicode="&#x15f;" horiz-adv-x="434" 
d="M401 160q0 -70 -44.5 -118t-123.5 -56l-31 -49q10 9 33 9q32 0 53.5 -20.5t21.5 -56.5q0 -37 -24 -60.5t-60 -23.5q-31 0 -51.5 17t-26.5 46l8 4q16 -32 50 -32q21 0 34.5 14t13.5 37q0 21 -12 33t-30 12t-30 -9l-10 5l44 73h-10q-100 0 -174 51l26 148l8 -1
q10 -75 57 -121t110 -46q46 0 70.5 22.5t24.5 57.5q0 53 -72 80l-118 50q-95 40 -95 135q0 67 50.5 113.5t143.5 46.5q92 0 156 -39l-28 -132h-8q-28 143 -148 143q-45 0 -67.5 -20t-22.5 -51q0 -53 65 -79l116 -48q101 -42 101 -135z" />
    <glyph glyph-name="Scaron" unicode="&#x160;" horiz-adv-x="549" 
d="M175 860l115 -57l115 57h13l-121 -114h-14l-121 114h13zM266 -20q-131 0 -234 58l28 201h6q17 -107 78 -167.5t152 -60.5q61 0 97.5 32.5t36.5 89.5q0 43 -24 71t-81 52l-127 57q-153 69 -153 204q0 89 63.5 146t182.5 57q118 0 215 -52l-33 -187h-6q-17 104 -70.5 156.5
t-137.5 52.5q-63 0 -98 -28.5t-35 -76.5q0 -42 24 -68.5t85 -53.5l137 -64q77 -34 110.5 -80t33.5 -114q0 -101 -68 -163t-182 -62z" />
    <glyph glyph-name="scaron" unicode="&#x161;" horiz-adv-x="434" 
d="M215 559l-119 141h28l108 -81l107 81h29l-119 -141h-34zM206 -15q-100 0 -174 51l26 148l8 -1q10 -75 57 -121t110 -46q46 0 70.5 22.5t24.5 57.5q0 53 -72 80l-118 50q-95 40 -95 135q0 67 50.5 113.5t143.5 46.5q92 0 156 -39l-28 -132h-8q-28 143 -148 143
q-45 0 -67.5 -20t-22.5 -51q0 -53 65 -79l116 -48q101 -42 101 -135q0 -76 -52.5 -125.5t-142.5 -49.5z" />
    <glyph glyph-name="uni0162" unicode="&#x162;" horiz-adv-x="597" 
d="M577 724h5v-264h-7q-13 113 -55.5 163.5t-120.5 50.5h-35v-567q0 -53 22 -74t83 -26v-7h-163l-40 -63q10 9 33 9q32 0 53.5 -20.5t21.5 -56.5q0 -37 -24 -60.5t-60 -23.5q-31 0 -51.5 17t-26.5 46l8 4q16 -32 50 -32q21 0 34.5 14t13.5 37q0 21 -12 33t-30 12t-30 -9
l-10 5l53 88h-161v7q62 5 83.5 26t21.5 74v567h-35q-78 0 -120.5 -50.5t-55.5 -163.5h-6v264h5q21 -24 80 -24h395q58 0 81 24z" />
    <glyph glyph-name="uni0163" unicode="&#x163;" horiz-adv-x="348" 
d="M341 107q-17 -56 -54 -88.5t-92 -33.5l-30 -48q11 9 33 9q32 0 53.5 -20.5t21.5 -56.5q0 -37 -24 -60.5t-60 -23.5q-31 0 -51.5 17t-26.5 46l8 4q16 -32 50 -32q21 0 34.5 14t13.5 37q0 21 -12 33t-30 12t-30 -9l-10 5l44 74q-49 4 -74 36t-25 86v380h-65v6
q122 50 178 168h5v-157h108v-17h-108v-361q0 -38 15 -60t43 -22q55 0 77 65z" />
    <glyph glyph-name="Tcaron" unicode="&#x164;" horiz-adv-x="597" 
d="M183 860l115 -57l115 57h13l-121 -114h-14l-121 114h13zM577 724h5v-264h-7q-13 113 -55.5 163.5t-120.5 50.5h-35v-567q0 -53 22 -74t83 -26v-7h-341v7q62 5 83.5 26t21.5 74v567h-35q-78 0 -120.5 -50.5t-55.5 -163.5h-6v264h5q21 -24 80 -24h395q58 0 81 24z" />
    <glyph glyph-name="tcaron" unicode="&#x165;" horiz-adv-x="348" 
d="M277 630q-44 4 -44 43q0 19 13 33t34 14q26 0 44.5 -20.5t18.5 -58.5q0 -80 -92 -106l-3 9q61 19 61 56q0 27 -32 30zM256 45q55 0 77 65l8 -3q-17 -57 -55 -89.5t-93 -32.5t-84 33t-29 90v380h-65v6q122 50 178 168h5v-157h108v-17h-108v-361q0 -38 15 -60t43 -22z" />
    <glyph glyph-name="Tbar" unicode="&#x166;" horiz-adv-x="597" 
d="M577 724h5v-264h-7q-13 113 -55.5 163.5t-120.5 50.5h-35v-279h116v-16h-116v-272q0 -53 22 -74t83 -26v-7h-341v7q62 5 83.5 26t21.5 74v272h-116v16h116v279h-35q-78 0 -120.5 -50.5t-55.5 -163.5h-6v264h5q21 -24 80 -24h395q58 0 81 24z" />
    <glyph glyph-name="tbar" unicode="&#x167;" horiz-adv-x="348" 
d="M333 110l8 -3q-17 -57 -55 -89.5t-93 -32.5t-84 33t-29 90v238h-65v14h65v128h-65v6q122 50 178 168h5v-157h108v-17h-108v-128h102v-14h-102v-219q0 -38 15 -60t43 -22q55 0 77 65z" />
    <glyph glyph-name="Utilde" unicode="&#x168;" horiz-adv-x="685" 
d="M446 759q-30 0 -68.5 20.5t-63.5 20.5q-54 0 -69 -45h-6q4 51 30 75.5t67 24.5q30 0 68 -20.5t63 -20.5q55 0 69 46h6q-4 -51 -29.5 -76t-66.5 -25zM677 700v-7q-41 -6 -59.5 -29.5t-18.5 -76.5v-332q0 -133 -63 -204t-187 -71q-130 0 -199.5 73t-69.5 212v338
q0 45 -15.5 64t-56.5 26v7h287v-7q-46 -8 -63.5 -27.5t-17.5 -69.5v-325q0 -232 179 -232q178 0 178 234v307q0 55 -24.5 80.5t-77.5 32.5v7h208z" />
    <glyph glyph-name="utilde" unicode="&#x169;" horiz-adv-x="573" 
d="M335 582q-29 0 -66 22.5t-61 22.5q-53 0 -67 -49h-5q4 54 28.5 81.5t63.5 27.5q29 0 66 -22.5t61 -22.5q52 0 67 49h5q-7 -109 -92 -109zM488 78q0 -37 15 -51.5t50 -19.5v-7h-184v88q-16 -44 -55 -73.5t-89 -29.5q-70 0 -108.5 40.5t-38.5 122.5v263q0 42 -13.5 55.5
t-52.5 12.5v7l184 32v-361q0 -53 24 -82t66 -27q59 2 83 55v309q0 42 -11.5 55.5t-46.5 13.5v6l177 31v-440z" />
    <glyph glyph-name="Umacron" unicode="&#x16a;" horiz-adv-x="685" 
d="M237 785v32h290v-32h-290zM677 700v-7q-41 -6 -59.5 -29.5t-18.5 -76.5v-332q0 -133 -63 -204t-187 -71q-130 0 -199.5 73t-69.5 212v338q0 45 -15.5 64t-56.5 26v7h287v-7q-46 -8 -63.5 -27.5t-17.5 -69.5v-325q0 -232 179 -232q178 0 178 234v307q0 55 -24.5 80.5
t-77.5 32.5v7h208z" />
    <glyph glyph-name="umacron" unicode="&#x16b;" horiz-adv-x="573" 
d="M136 608v32h290v-32h-290zM488 78q0 -37 15 -51.5t50 -19.5v-7h-184v88q-16 -44 -55 -73.5t-89 -29.5q-70 0 -108.5 40.5t-38.5 122.5v263q0 42 -13.5 55.5t-52.5 12.5v7l184 32v-361q0 -53 24 -82t66 -27q59 2 83 55v309q0 42 -11.5 55.5t-46.5 13.5v6l177 31v-440z" />
    <glyph glyph-name="Ubreve" unicode="&#x16c;" horiz-adv-x="685" 
d="M382 749q-58 0 -95.5 31t-37.5 84h14q3 -30 35.5 -46t83.5 -16t83 16t36 46h15q0 -53 -38 -84t-96 -31zM677 700v-7q-41 -6 -59.5 -29.5t-18.5 -76.5v-332q0 -133 -63 -204t-187 -71q-130 0 -199.5 73t-69.5 212v338q0 45 -15.5 64t-56.5 26v7h287v-7q-46 -8 -63.5 -27.5
t-17.5 -69.5v-325q0 -232 179 -232q178 0 178 234v307q0 55 -24.5 80.5t-77.5 32.5v7h208z" />
    <glyph glyph-name="ubreve" unicode="&#x16d;" horiz-adv-x="573" 
d="M281 557q-52 0 -85 37t-33 106h19q2 -41 29 -62t70 -21t70 21t29 62h19q0 -69 -33 -106t-85 -37zM488 78q0 -37 15 -51.5t50 -19.5v-7h-184v88q-16 -44 -55 -73.5t-89 -29.5q-70 0 -108.5 40.5t-38.5 122.5v263q0 42 -13.5 55.5t-52.5 12.5v7l184 32v-361q0 -53 24 -82
t66 -27q59 2 83 55v309q0 42 -11.5 55.5t-46.5 13.5v6l177 31v-440z" />
    <glyph glyph-name="Uring" unicode="&#x16e;" horiz-adv-x="685" 
d="M382 723q-34 0 -55 21t-21 53t21 52.5t55 20.5t55 -20.5t21 -52.5t-21 -53t-55 -21zM382 740q25 0 41.5 15.5t16.5 41.5t-16.5 41.5t-41.5 15.5t-41.5 -15.5t-16.5 -41.5t16.5 -41.5t41.5 -15.5zM677 700v-7q-41 -6 -59.5 -29.5t-18.5 -76.5v-332q0 -133 -63 -204
t-187 -71q-130 0 -199.5 73t-69.5 212v338q0 45 -15.5 64t-56.5 26v7h287v-7q-46 -8 -63.5 -27.5t-17.5 -69.5v-325q0 -232 179 -232q178 0 178 234v307q0 55 -24.5 80.5t-77.5 32.5v7h208z" />
    <glyph glyph-name="uring" unicode="&#x16f;" horiz-adv-x="573" 
d="M281 553q-41 0 -68 26.5t-27 66.5t27 66.5t68 26.5q42 0 69 -26t27 -67t-27 -67t-69 -26zM281 576q31 0 50.5 19t19.5 51t-19.5 51t-50.5 19t-50 -19t-19 -51t19 -51t50 -19zM488 78q0 -37 15 -51.5t50 -19.5v-7h-184v88q-16 -44 -55 -73.5t-89 -29.5q-70 0 -108.5 40.5
t-38.5 122.5v263q0 42 -13.5 55.5t-52.5 12.5v7l184 32v-361q0 -53 24 -82t66 -27q59 2 83 55v309q0 42 -11.5 55.5t-46.5 13.5v6l177 31v-440z" />
    <glyph glyph-name="Uhungarumlaut" unicode="&#x170;" horiz-adv-x="685" 
d="M329 749h-13l57 111h75v-5zM456 749h-13l57 111h75v-5zM677 700v-7q-41 -6 -59.5 -29.5t-18.5 -76.5v-332q0 -133 -63 -204t-187 -71q-130 0 -199.5 73t-69.5 212v338q0 45 -15.5 64t-56.5 26v7h287v-7q-46 -8 -63.5 -27.5t-17.5 -69.5v-325q0 -232 179 -232
q178 0 178 234v307q0 55 -24.5 80.5t-77.5 32.5v7h208z" />
    <glyph glyph-name="uhungarumlaut" unicode="&#x171;" horiz-adv-x="573" 
d="M216 560l82 140h78v-6l-153 -134h-7zM349 560l91 140h81v-6l-165 -134h-7zM488 78q0 -37 15 -51.5t50 -19.5v-7h-184v88q-16 -44 -55 -73.5t-89 -29.5q-70 0 -108.5 40.5t-38.5 122.5v263q0 42 -13.5 55.5t-52.5 12.5v7l184 32v-361q0 -53 24 -82t66 -27q59 2 83 55v309
q0 42 -11.5 55.5t-46.5 13.5v6l177 31v-440z" />
    <glyph glyph-name="Uogonek" unicode="&#x172;" horiz-adv-x="685" 
d="M469 700h208v-7q-41 -6 -59.5 -29.5t-18.5 -76.5v-332q0 -217 -161 -264q-58 -26 -58 -83q0 -56 59 -56q47 0 66 42l4 -2q-21 -102 -105 -102q-42 0 -66.5 22t-24.5 60q0 70 75 110q-24 -2 -39 -2q-130 0 -199.5 73t-69.5 212v338q0 45 -15.5 64t-56.5 26v7h287v-7
q-46 -8 -63.5 -27.5t-17.5 -69.5v-325q0 -232 179 -232q178 0 178 234v307q0 55 -24.5 80.5t-77.5 32.5v7z" />
    <glyph glyph-name="uogonek" unicode="&#x173;" horiz-adv-x="573" 
d="M383 0q-80 -25 -80 -92q0 -56 59 -56q47 0 66 42l4 -2q-21 -102 -105 -102q-42 0 -66.5 22t-24.5 60q0 45 35 80.5t98 50.5v85q-16 -44 -55 -73.5t-89 -29.5q-70 0 -108.5 40.5t-38.5 122.5v263q0 42 -13.5 55.5t-52.5 12.5v7l184 32v-361q0 -53 24 -82t66 -27
q59 2 83 55v309q0 42 -11.5 55.5t-46.5 13.5v6l177 31v-440q0 -37 15 -51.5t50 -19.5v-7h-170z" />
    <glyph glyph-name="Wcircumflex" unicode="&#x174;" horiz-adv-x="985" 
d="M483 803l-115 -69h-13l121 126h14l121 -126h-13zM796 700h184v-7q-36 -5 -56.5 -29t-42.5 -85l-215 -589h-4l-170 450l-166 -450h-4l-226 598q-20 55 -38.5 78t-52.5 27v7h282v-7q-57 -6 -57 -52q0 -28 15 -66l134 -370l98 273l-44 117q-17 45 -31 64.5t-43 33.5v7h277
v-7q-68 -5 -68 -57q0 -20 10 -46l141 -384l132 369q12 31 12 58q0 55 -67 60v7z" />
    <glyph glyph-name="wcircumflex" unicode="&#x175;" horiz-adv-x="821" 
d="M430 640l-108 -86h-28l119 146h34l119 -146h-29zM666 506h150v-7q-23 -7 -39.5 -25.5t-33.5 -61.5l-174 -422h-5l-150 349l-151 -349h-6l-172 421q-32 79 -80 88v7h243v-7q-46 -9 -46 -44q0 -18 13 -50l98 -249l88 214l-22 52q-28 69 -66 77v7h244v-7q-58 -3 -58 -44
q0 -17 11 -48l101 -254l101 251q12 32 12 50q0 42 -58 45v7z" />
    <glyph glyph-name="Ycircumflex" unicode="&#x176;" horiz-adv-x="658" 
d="M263 734h-13l121 126h14l121 -126h-13l-115 69zM459 700h191v-7q-60 -5 -111 -100l-146 -268v-232q2 -44 24.5 -62.5t79.5 -23.5v-7h-341v7q62 5 83.5 26t21.5 74v214l-150 278q-27 49 -50 70.5t-53 23.5v7h290v-7q-65 -6 -65 -54q0 -21 18 -56l127 -233l124 224
q20 36 20 63q0 50 -63 56v7z" />
    <glyph glyph-name="ycircumflex" unicode="&#x177;" horiz-adv-x="534" 
d="M183 554l119 146h34l119 -146h-29l-107 86l-108 -86h-28zM81 -215q-50 0 -88 22l25 109h5q33 -31 97 -31q49 0 81.5 16.5t53.5 58.5l7 16l-176 433q-33 83 -80 90v7h254v-7q-31 -4 -44.5 -14.5t-13.5 -30.5q0 -21 11 -51l101 -275l108 267q11 25 11 49q0 47 -57 55v7h153
v-7q-27 -8 -42.5 -28t-32.5 -66l-176 -444q-37 -101 -85.5 -138.5t-111.5 -37.5z" />
    <glyph glyph-name="Ydieresis" unicode="&#x178;" horiz-adv-x="658" 
d="M272 759q-23 0 -39 16t-16 39t16 39t39 16t39 -16t16 -39t-16 -39t-39 -16zM484 759q-23 0 -39 16t-16 39t16 39t39 16t39 -16t16 -39t-16 -39t-39 -16zM459 700h191v-7q-60 -5 -111 -100l-146 -268v-232q2 -44 24.5 -62.5t79.5 -23.5v-7h-341v7q62 5 83.5 26t21.5 74
v214l-150 278q-27 49 -50 70.5t-53 23.5v7h290v-7q-65 -6 -65 -54q0 -21 18 -56l127 -233l124 224q20 36 20 63q0 50 -63 56v7z" />
    <glyph glyph-name="Zacute" unicode="&#x179;" horiz-adv-x="606" 
d="M311 746h-11l67 114h107v-6zM23 0v5l400 673h-105q-64 -1 -108 -16t-72.5 -49t-45 -72.5t-33.5 -101.5h-7l27 261h499v-5l-397 -673h117q65 1 113.5 20t79 54.5t49 76.5t31.5 96h7l-29 -269h-526z" />
    <glyph glyph-name="zacute" unicode="&#x17a;" horiz-adv-x="482" 
d="M275 561h-27l56 139h109v-5zM22 0v2l299 486h-68q-82 0 -129.5 -46.5t-72.5 -137.5h-5l28 202h386v-3l-299 -485h59q93 0 144.5 45.5t80.5 156.5h5l-22 -220h-406z" />
    <glyph glyph-name="Zdotaccent" unicode="&#x17b;" horiz-adv-x="606" 
d="M301 748q-25 0 -41.5 16t-16.5 42t16.5 42t41.5 16t41.5 -16t16.5 -42t-16.5 -42t-41.5 -16zM23 0v5l400 673h-105q-64 -1 -108 -16t-72.5 -49t-45 -72.5t-33.5 -101.5h-7l27 261h499v-5l-397 -673h117q65 1 113.5 20t79 54.5t49 76.5t31.5 96h7l-29 -269h-526z" />
    <glyph glyph-name="zdotaccent" unicode="&#x17c;" horiz-adv-x="482" 
d="M262 581q-28 0 -46.5 18.5t-18.5 45.5t18.5 45.5t46.5 18.5t46 -18.5t18 -45.5t-18 -45.5t-46 -18.5zM22 0v2l299 486h-68q-82 0 -129.5 -46.5t-72.5 -137.5h-5l28 202h386v-3l-299 -485h59q93 0 144.5 45.5t80.5 156.5h5l-22 -220h-406z" />
    <glyph glyph-name="Zcaron" unicode="&#x17d;" horiz-adv-x="606" 
d="M186 860l115 -57l115 57h13l-121 -114h-14l-121 114h13zM23 0v5l400 673h-105q-64 -1 -108 -16t-72.5 -49t-45 -72.5t-33.5 -101.5h-7l27 261h499v-5l-397 -673h117q65 1 113.5 20t79 54.5t49 76.5t31.5 96h7l-29 -269h-526z" />
    <glyph glyph-name="zcaron" unicode="&#x17e;" horiz-adv-x="482" 
d="M245 559l-119 141h28l108 -81l107 81h29l-119 -141h-34zM22 0v2l299 486h-68q-82 0 -129.5 -46.5t-72.5 -137.5h-5l28 202h386v-3l-299 -485h59q93 0 144.5 45.5t80.5 156.5h5l-22 -220h-406z" />
    <glyph glyph-name="florin" unicode="&#x192;" horiz-adv-x="520" 
d="M489 703q39 0 61 -20l-38 -85h-13q-29 70 -80 75q-29 -12 -44 -77l-23 -103h98l-7 -23h-96l-90 -405q-27 -122 -107 -201t-146 -79q-46 0 -71 22l32 97h13q15 -40 38.5 -60t48.5 -20q23 14 38 81l124 544q1 3 2.5 10t2.5 11h-76l7 23h76q19 59 52 102.5t69 65.5t68 32
t61 10z" />
    <glyph glyph-name="AEacute" unicode="&#x1fc;" horiz-adv-x="935" 
d="M644 740h-11l67 114h107v-6zM5 0v7q38 6 63 30.5t55 79.5l322 583h407l23 -230h-7q-31 117 -91 163.5t-192 47.5v-322h49q65 0 99.5 27t50.5 91h7v-260h-7q-13 61 -49 90t-101 29h-49v-317q80 1 130 12.5t83.5 42.5t52 73.5t36.5 117.5h7l-26 -265h-487v7q42 6 57 25.5
t15 71.5v152h-219l-85 -157q-17 -31 -17 -50q0 -16 12.5 -25.5t43.5 -16.5v-7h-183zM246 280h207v384z" />
    <glyph glyph-name="aeacute" unicode="&#x1fd;" horiz-adv-x="742" 
d="M531 695l-138 -134h-27l56 139h109v-5zM576 77q94 0 127 96l6 -1q-33 -185 -182 -185q-130 0 -180 129q-16 -63 -58.5 -97.5t-104.5 -34.5q-69 0 -108.5 38t-39.5 102q0 76 60.5 124.5t182.5 53.5l31 1l-2 12q-11 74 -42.5 106.5t-89.5 32.5q-48 0 -79.5 -27t-39.5 -76
l-7 2q11 79 63 123.5t127 44.5q57 0 96 -28.5t52 -82.5q41 111 143 111q80 0 127 -61.5t51 -171.5h-290q5 -101 45.5 -156t111.5 -55zM513 498q-44 0 -69.5 -44.5t-25.5 -132.5v-17h176q0 103 -19 148.5t-62 45.5zM247 51q34 0 58.5 21.5t35.5 61.5q-10 33 -13 55l-16 99h-4
q-155 -3 -155 -125q0 -53 25.5 -82.5t68.5 -29.5z" />
    <glyph glyph-name="Oslashacute" unicode="&#x1fe;" horiz-adv-x="774" 
d="M535 854l-163 -108h-11l67 114h107v-6zM628 630q112 -106 112 -280q0 -163 -98.5 -266.5t-254.5 -103.5q-126 0 -218 71l-56 -71h-34l69 88q-115 104 -115 282q0 163 99 266.5t255 103.5q127 0 221 -73l63 79h33zM182 350q0 -127 28 -205l345 435q-49 111 -168 111
q-205 0 -205 -341zM387 9q205 0 205 341q0 121 -26 202l-345 -435q51 -108 166 -108z" />
    <glyph glyph-name="oslashacute" unicode="&#x1ff;" horiz-adv-x="559" 
d="M410 695l-138 -134h-27l56 139h109v-5zM441 465q88 -75 88 -212q0 -118 -68 -193t-181 -75q-82 0 -140 40l-31 -45h-26l40 58q-92 75 -92 215q0 118 68 193t181 75q82 0 143 -42l34 49h27zM157 253q0 -87 15 -143l209 306q-28 79 -101 79q-64 0 -93.5 -60t-29.5 -182z
M280 11q64 0 93 60t29 182q0 84 -13 136l-209 -305q30 -73 100 -73z" />
    <glyph glyph-name="Scommaaccent" unicode="&#x218;" horiz-adv-x="549" 
d="M266 -20q-131 0 -234 58l28 201h6q17 -107 78 -167.5t152 -60.5q61 0 97.5 32.5t36.5 89.5q0 43 -24 71t-81 52l-127 57q-153 69 -153 204q0 89 63.5 146t182.5 57q118 0 215 -52l-33 -187h-6q-17 104 -70.5 156.5t-137.5 52.5q-63 0 -98 -28.5t-35 -76.5q0 -42 24 -68.5
t85 -53.5l137 -64q77 -34 110.5 -80t33.5 -114q0 -101 -68 -163t-182 -62zM276 -212l-3 14q54 15 54 45q0 23 -36 31q-38 8 -38 42q0 20 12.5 32t33.5 12q25 0 44.5 -23.5t19.5 -53.5q0 -75 -87 -99z" />
    <glyph glyph-name="scommaaccent" unicode="&#x219;" horiz-adv-x="434" 
d="M206 -15q-100 0 -174 51l26 148l8 -1q10 -75 57 -121t110 -46q46 0 70.5 22.5t24.5 57.5q0 53 -72 80l-118 50q-95 40 -95 135q0 67 50.5 113.5t143.5 46.5q92 0 156 -39l-28 -132h-8q-28 143 -148 143q-45 0 -67.5 -20t-22.5 -51q0 -53 65 -79l116 -48q101 -42 101 -135
q0 -76 -52.5 -125.5t-142.5 -49.5zM211 -212l-3 14q54 15 54 45q0 23 -36 31q-38 8 -38 42q0 20 12.5 32t33.5 12q25 0 44.5 -23.5t19.5 -53.5q0 -75 -87 -99z" />
    <glyph glyph-name="uni021A" unicode="&#x21a;" horiz-adv-x="597" 
d="M577 724h5v-264h-7q-13 113 -55.5 163.5t-120.5 50.5h-35v-567q0 -53 22 -74t83 -26v-7h-341v7q62 5 83.5 26t21.5 74v567h-35q-78 0 -120.5 -50.5t-55.5 -163.5h-6v264h5q21 -24 80 -24h395q58 0 81 24zM275 -212l-3 14q54 15 54 45q0 23 -36 31q-38 8 -38 42
q0 20 12.5 32t33.5 12q25 0 44.5 -23.5t19.5 -53.5q0 -75 -87 -99z" />
    <glyph glyph-name="uni021B" unicode="&#x21b;" horiz-adv-x="348" 
d="M333 110l8 -3q-17 -57 -55 -89.5t-93 -32.5t-84 33t-29 90v380h-65v6q122 50 178 168h5v-157h108v-17h-108v-361q0 -38 15 -60t43 -22q55 0 77 65zM197 -36q25 0 44.5 -23.5t19.5 -53.5q0 -75 -87 -99l-3 14q54 15 54 45q0 23 -36 31q-38 8 -38 42q0 20 12.5 32t33.5 12z
" />
    <glyph glyph-name="uni0237" unicode="&#x237;" horiz-adv-x="276" 
d="M44 -215q-44 0 -71 12v4q11 -3 22 -3q89 0 89 133v460q0 42 -13 55t-53 13v6l184 50v-554q0 -83 -39 -129.5t-119 -46.5z" />
    <glyph glyph-name="uni02BC" unicode="&#x2bc;" horiz-adv-x="249" 
d="M71 449l-5 11q35 13 54.5 29t23 26.5t3.5 23.5q0 40 -44 45q-25 3 -41 19t-16 43q0 26 17.5 44t45.5 18q34 0 59 -27.5t25 -78.5q0 -114 -122 -153z" />
    <glyph glyph-name="circumflex" unicode="&#x2c6;" horiz-adv-x="600" 
d="M50 554l119 146h34l119 -146h-29l-107 86l-108 -86h-28z" />
    <glyph glyph-name="caron" unicode="&#x2c7;" horiz-adv-x="600" 
d="M169 559l-119 141h28l108 -81l107 81h29l-119 -141h-34z" />
    <glyph glyph-name="breve" unicode="&#x2d8;" horiz-adv-x="600" 
d="M168 557q-52 0 -85 37t-33 106h19q2 -41 29 -62t70 -21t70 21t29 62h19q0 -69 -33 -106t-85 -37z" />
    <glyph glyph-name="dotaccent" unicode="&#x2d9;" horiz-adv-x="600" 
d="M115 581q-28 0 -46.5 18.5t-18.5 45.5t18.5 45.5t46.5 18.5t46 -18.5t18 -45.5t-18 -45.5t-46 -18.5z" />
    <glyph glyph-name="ring" unicode="&#x2da;" horiz-adv-x="600" 
d="M145 553q-41 0 -68 26.5t-27 66.5t27 66.5t68 26.5q42 0 69 -26t27 -67t-27 -67t-69 -26zM145 576q31 0 50.5 19t19.5 51t-19.5 51t-50.5 19t-50 -19t-19 -51t19 -51t50 -19z" />
    <glyph glyph-name="ogonek" unicode="&#x2db;" horiz-adv-x="600" 
d="M141 -210q-42 0 -66.5 22t-24.5 60q0 48 39 85t108 49v-6q-80 -25 -80 -92q0 -56 59 -56q47 0 66 42l4 -2q-21 -102 -105 -102z" />
    <glyph glyph-name="tilde" unicode="&#x2dc;" horiz-adv-x="600" 
d="M249 582q-29 0 -66 22.5t-61 22.5q-53 0 -67 -49h-5q4 54 28.5 81.5t63.5 27.5q29 0 66 -22.5t61 -22.5q52 0 67 49h5q-7 -109 -92 -109z" />
    <glyph glyph-name="hungarumlaut" unicode="&#x2dd;" horiz-adv-x="600" 
d="M56 560l82 140h78v-6l-153 -134h-7zM189 560l91 140h81v-6l-165 -134h-7z" />
    <glyph glyph-name="gravecomb" unicode="&#x300;" horiz-adv-x="0" 
d="M-77 561l-138 134v5h109l56 -139h-27z" />
    <glyph glyph-name="acutecomb" unicode="&#x301;" horiz-adv-x="0" 
d="M-205 561h-27l56 139h109v-5z" />
    <glyph glyph-name="uni0302" unicode="&#x302;" horiz-adv-x="0" 
d="M-322 554l119 146h34l119 -146h-29l-107 86l-108 -86h-28z" />
    <glyph glyph-name="tildecomb" unicode="&#x303;" horiz-adv-x="0" 
d="M-142 582q-29 0 -66 22.5t-61 22.5q-53 0 -67 -49h-5q4 54 28.5 81.5t63.5 27.5q29 0 66 -22.5t61 -22.5q52 0 67 49h5q-7 -109 -92 -109z" />
    <glyph glyph-name="uni0304" unicode="&#x304;" horiz-adv-x="0" 
d="M-340 608v32h290v-32h-290z" />
    <glyph glyph-name="uni0306" unicode="&#x306;" horiz-adv-x="0" 
d="M-168 557q-52 0 -85 37t-33 106h19q2 -41 29 -62t70 -21t70 21t29 62h19q0 -69 -33 -106t-85 -37z" />
    <glyph glyph-name="uni0307" unicode="&#x307;" horiz-adv-x="0" 
d="M-114 581q-28 0 -46.5 18.5t-18.5 45.5t18.5 45.5t46.5 18.5t46 -18.5t18 -45.5t-18 -45.5t-46 -18.5z" />
    <glyph glyph-name="uni0308" unicode="&#x308;" horiz-adv-x="0" 
d="M-288 585q-26 0 -43 17t-17 43t17 43t43 17t42.5 -17t16.5 -43t-16.5 -43t-42.5 -17zM-109 585q-26 0 -43 17t-17 43t17 43t43 17t42.5 -17t16.5 -43t-16.5 -43t-42.5 -17z" />
    <glyph glyph-name="uni030A" unicode="&#x30a;" horiz-adv-x="0" 
d="M-146 553q-41 0 -68 26.5t-27 66.5t27 66.5t68 26.5q42 0 69 -26t27 -67t-27 -67t-69 -26zM-146 576q31 0 50.5 19t19.5 51t-19.5 51t-50.5 19t-50 -19t-19 -51t19 -51t50 -19z" />
    <glyph glyph-name="uni030B" unicode="&#x30b;" horiz-adv-x="0" 
d="M-361 560l82 140h78v-6l-153 -134h-7zM-228 560l91 140h81v-6l-165 -134h-7z" />
    <glyph glyph-name="uni030C" unicode="&#x30c;" horiz-adv-x="0" 
d="M-203 559l-119 141h28l108 -81l107 81h29l-119 -141h-34z" />
    <glyph glyph-name="uni0312" unicode="&#x312;" horiz-adv-x="0" 
d="M-74 745l5 -15q-56 -17 -56 -46q0 -22 33 -29q42 -10 42 -46q0 -20 -13 -32t-35 -12q-26 0 -43.5 22.5t-17.5 54.5q0 77 85 103z" />
    <glyph glyph-name="uni0326" unicode="&#x326;" horiz-adv-x="0" 
d="M-137 -212l-3 14q54 15 54 45q0 23 -36 31q-38 8 -38 42q0 20 12.5 32t33.5 12q25 0 44.5 -23.5t19.5 -53.5q0 -75 -87 -99z" />
    <glyph glyph-name="uni0327" unicode="&#x327;" horiz-adv-x="0" 
d="M-50 -131q0 -37 -24 -60.5t-60 -23.5q-31 0 -51.5 17t-26.5 46l8 4q16 -32 50 -32q21 0 34.5 14t13.5 37q0 21 -12 33t-30 12t-30 -9l-10 5l53 88h17l-40 -63q10 9 33 9q32 0 53.5 -20.5t21.5 -56.5z" />
    <glyph glyph-name="uni0328" unicode="&#x328;" horiz-adv-x="0" 
d="M-155 -210q-42 0 -66.5 22t-24.5 60q0 48 39 85t108 49v-6q-80 -25 -80 -92q0 -56 59 -56q47 0 66 42l4 -2q-21 -102 -105 -102z" />
    <glyph glyph-name="uni0394" unicode="&#x394;" horiz-adv-x="730" 
d="M10 0l-2 4l341 701h5l368 -701l-3 -4h-709zM43 22h527l-273 523z" />
    <glyph glyph-name="uni03A9" unicode="&#x3a9;" horiz-adv-x="679" 
d="M536 85q39 0 55.5 18t20.5 53h5v-156h-248v163q70 20 106 95t36 172q0 114 -44.5 192t-127.5 78t-127 -78t-44 -192q0 -98 35.5 -172.5t106.5 -94.5v-163h-248v156h5q4 -35 20.5 -53t55.5 -18h143v64q-117 25 -185 94t-68 187q0 131 88.5 210.5t217.5 79.5t218 -79.5
t89 -210.5q0 -118 -68 -187t-185 -94v-64h143z" />
    <glyph glyph-name="uni03BC" unicode="&#x3bc;" horiz-adv-x="573" 
d="M78 -150v561q0 42 -13.5 55.5t-52.5 12.5v7l184 32v-361q0 -53 24 -82t66 -27q59 2 83 55v309q0 42 -11.5 55.5t-46.5 13.5v6l177 31v-440q0 -37 15 -51.5t50 -19.5v-7h-184v88q-16 -44 -55 -73.5t-89 -29.5q-98 0 -129 76v-57q0 -67 29 -103.5t94 -45.5v-5h-141z" />
    <glyph glyph-name="pi" unicode="&#x3c0;" horiz-adv-x="650" 
d="M512 -15q-43 0 -72.5 23.5t-29.5 81.5v394h-167v-484h-119v484h-32q-31 0 -44 -19.5t-18 -64.5h-5v106h593v-22h-89v-387q0 -54 41 -54q34 0 51 27l5 -3q-14 -40 -45 -61t-69 -21z" />
    <glyph glyph-name="uni0E3F" unicode="&#xe3f;" horiz-adv-x="597" 
d="M338 343q104 0 166 -44t62 -124q0 -84 -66 -129.5t-188 -45.5h-2v-100h-22v100h-258v7q39 6 52.5 24t13.5 68v479q0 43 -14 61t-52 24v7h258v80h22v-80q225 -2 225 -159q0 -71 -53.5 -115t-143.5 -50v-3zM212 651v-301h53q16 0 23 1v299q-7 1 -22 1h-54zM414 505
q0 121 -104 142v-293q104 19 104 151zM212 19h76v313h-7h-69v-313zM310 20q61 6 95 46t34 108q0 143 -129 157v-311z" />
    <glyph glyph-name="Wgrave" unicode="&#x1e80;" horiz-adv-x="985" 
d="M484 746h-12l-163 108v6h107zM796 700h184v-7q-36 -5 -56.5 -29t-42.5 -85l-215 -589h-4l-170 450l-166 -450h-4l-226 598q-20 55 -38.5 78t-52.5 27v7h282v-7q-57 -6 -57 -52q0 -28 15 -66l134 -370l98 273l-44 117q-17 45 -31 64.5t-43 33.5v7h277v-7q-68 -5 -68 -57
q0 -20 10 -46l141 -384l132 369q12 31 12 58q0 55 -67 60v7z" />
    <glyph glyph-name="wgrave" unicode="&#x1e81;" horiz-adv-x="821" 
d="M443 561h-27l-138 134v5h109zM666 506h150v-7q-23 -7 -39.5 -25.5t-33.5 -61.5l-174 -422h-5l-150 349l-151 -349h-6l-172 421q-32 79 -80 88v7h243v-7q-46 -9 -46 -44q0 -18 13 -50l98 -249l88 214l-22 52q-28 69 -66 77v7h244v-7q-58 -3 -58 -44q0 -17 11 -48l101 -254
l101 251q12 32 12 50q0 42 -58 45v7z" />
    <glyph glyph-name="Wacute" unicode="&#x1e82;" horiz-adv-x="985" 
d="M656 854l-163 -108h-11l67 114h107v-6zM796 700h184v-7q-36 -5 -56.5 -29t-42.5 -85l-215 -589h-4l-170 450l-166 -450h-4l-226 598q-20 55 -38.5 78t-52.5 27v7h282v-7q-57 -6 -57 -52q0 -28 15 -66l134 -370l98 273l-44 117q-17 45 -31 64.5t-43 33.5v7h277v-7
q-68 -5 -68 -57q0 -20 10 -46l141 -384l132 369q12 31 12 58q0 55 -67 60v7z" />
    <glyph glyph-name="wacute" unicode="&#x1e83;" horiz-adv-x="821" 
d="M581 695l-138 -134h-27l56 139h109v-5zM666 506h150v-7q-23 -7 -39.5 -25.5t-33.5 -61.5l-174 -422h-5l-150 349l-151 -349h-6l-172 421q-32 79 -80 88v7h243v-7q-46 -9 -46 -44q0 -18 13 -50l98 -249l88 214l-22 52q-28 69 -66 77v7h244v-7q-58 -3 -58 -44q0 -17 11 -48
l101 -254l101 251q12 32 12 50q0 42 -58 45v7z" />
    <glyph glyph-name="Wdieresis" unicode="&#x1e84;" horiz-adv-x="985" 
d="M377 759q-23 0 -39 16t-16 39t16 39t39 16t39 -16t16 -39t-16 -39t-39 -16zM589 759q-23 0 -39 16t-16 39t16 39t39 16t39 -16t16 -39t-16 -39t-39 -16zM796 700h184v-7q-36 -5 -56.5 -29t-42.5 -85l-215 -589h-4l-170 450l-166 -450h-4l-226 598q-20 55 -38.5 78
t-52.5 27v7h282v-7q-57 -6 -57 -52q0 -28 15 -66l134 -370l98 273l-44 117q-17 45 -31 64.5t-43 33.5v7h277v-7q-68 -5 -68 -57q0 -20 10 -46l141 -384l132 369q12 31 12 58q0 55 -67 60v7z" />
    <glyph glyph-name="wdieresis" unicode="&#x1e85;" horiz-adv-x="821" 
d="M340 585q-26 0 -43 17t-17 43t17 43t43 17t42.5 -17t16.5 -43t-16.5 -43t-42.5 -17zM519 585q-26 0 -43 17t-17 43t17 43t43 17t42.5 -17t16.5 -43t-16.5 -43t-42.5 -17zM666 506h150v-7q-23 -7 -39.5 -25.5t-33.5 -61.5l-174 -422h-5l-150 349l-151 -349h-6l-172 421
q-32 79 -80 88v7h243v-7q-46 -9 -46 -44q0 -18 13 -50l98 -249l88 214l-22 52q-28 69 -66 77v7h244v-7q-58 -3 -58 -44q0 -17 11 -48l101 -254l101 251q12 32 12 50q0 42 -58 45v7z" />
    <glyph glyph-name="Ygrave" unicode="&#x1ef2;" horiz-adv-x="658" 
d="M367 746l-163 108v6h107l68 -114h-12zM459 700h191v-7q-60 -5 -111 -100l-146 -268v-232q2 -44 24.5 -62.5t79.5 -23.5v-7h-341v7q62 5 83.5 26t21.5 74v214l-150 278q-27 49 -50 70.5t-53 23.5v7h290v-7q-65 -6 -65 -54q0 -21 18 -56l127 -233l124 224q20 36 20 63
q0 50 -63 56v7z" />
    <glyph glyph-name="ygrave" unicode="&#x1ef3;" horiz-adv-x="534" 
d="M305 561l-138 134v5h109l56 -139h-27zM81 -215q-50 0 -88 22l25 109h5q33 -31 97 -31q49 0 81.5 16.5t53.5 58.5l7 16l-176 433q-33 83 -80 90v7h254v-7q-31 -4 -44.5 -14.5t-13.5 -30.5q0 -21 11 -51l101 -275l108 267q11 25 11 49q0 47 -57 55v7h153v-7
q-27 -8 -42.5 -28t-32.5 -66l-176 -444q-37 -101 -85.5 -138.5t-111.5 -37.5z" />
    <glyph glyph-name="uni2003" unicode="&#x2003;" horiz-adv-x="600" 
 />
    <glyph glyph-name="uni2004" unicode="&#x2004;" horiz-adv-x="600" 
 />
    <glyph glyph-name="uni2005" unicode="&#x2005;" horiz-adv-x="600" 
 />
    <glyph glyph-name="uni2009" unicode="&#x2009;" horiz-adv-x="600" 
 />
    <glyph glyph-name="uni200A" unicode="&#x200a;" horiz-adv-x="600" 
 />
    <glyph glyph-name="endash" unicode="&#x2013;" horiz-adv-x="552" 
d="M38 292v27h475v-27h-475z" />
    <glyph glyph-name="emdash" unicode="&#x2014;" horiz-adv-x="817" 
d="M38 292v27h740v-27h-740z" />
    <glyph glyph-name="quoteleft" unicode="&#x2018;" horiz-adv-x="249" 
d="M178 728l5 -11q-35 -13 -54.5 -29t-23 -26.5t-3.5 -23.5q0 -40 43 -45q25 -3 41.5 -19t16.5 -43q0 -26 -17 -44t-47 -18q-34 0 -58.5 27.5t-24.5 78.5q0 114 122 153z" />
    <glyph glyph-name="quoteright" unicode="&#x2019;" horiz-adv-x="249" 
d="M71 449l-5 11q35 13 54.5 29t23 26.5t3.5 23.5q0 40 -44 45q-25 3 -41 19t-16 43q0 26 17.5 44t45.5 18q34 0 59 -27.5t25 -78.5q0 -114 -122 -153z" />
    <glyph glyph-name="quotesinglbase" unicode="&#x201a;" horiz-adv-x="249" 
d="M71 -172l-5 11q35 13 54.5 29t23 26.5t3.5 23.5q0 40 -44 45q-25 3 -41 19t-16 43q0 26 17.5 44t45.5 18q34 0 59 -27.5t25 -78.5q0 -114 -122 -153z" />
    <glyph glyph-name="quotedblleft" unicode="&#x201c;" horiz-adv-x="426" 
d="M178 728l5 -11q-35 -13 -54.5 -29t-23 -26.5t-3.5 -23.5q0 -40 43 -45q25 -3 41.5 -19t16.5 -43q0 -26 -17 -44t-47 -18q-34 0 -58.5 27.5t-24.5 78.5q0 114 122 153zM355 728l5 -11q-35 -13 -54.5 -29t-23 -26.5t-3.5 -23.5q0 -40 43 -45q25 -3 41.5 -19t16.5 -43
q0 -26 -17 -44t-47 -18q-34 0 -58.5 27.5t-24.5 78.5q0 114 122 153z" />
    <glyph glyph-name="quotedblright" unicode="&#x201d;" horiz-adv-x="420" 
d="M71 449l-5 11q35 13 54.5 29t23 26.5t3.5 23.5q0 40 -44 45q-25 3 -41 19t-16 43q0 26 17.5 44t45.5 18q34 0 59 -27.5t25 -78.5q0 -114 -122 -153zM242 449l-5 11q35 13 54.5 29t23 26.5t3.5 23.5q0 40 -44 45q-25 3 -41 19t-16 43q0 26 17.5 44t45.5 18q34 0 59 -27.5
t25 -78.5q0 -114 -122 -153z" />
    <glyph glyph-name="quotedblbase" unicode="&#x201e;" horiz-adv-x="420" 
d="M81 -171l-5 11q35 13 54.5 29t23 26.5t3.5 23.5q0 40 -44 45q-25 3 -41 19t-16 43q0 26 17.5 44t45.5 18q34 0 59 -27.5t25 -78.5q0 -114 -122 -153zM252 -171l-5 11q35 13 54.5 29t23 26.5t3.5 23.5q0 40 -44 45q-25 3 -41 19t-16 43q0 26 17.5 44t45.5 18
q34 0 59 -27.5t25 -78.5q0 -114 -122 -153z" />
    <glyph glyph-name="dagger" unicode="&#x2020;" horiz-adv-x="471" 
d="M233 -85q-8 151 -26 222.5t-68 121.5v5q28 5 51 35t23 82v30q0 38 -14 52t-53 14h-10q-80 0 -91 -80h-5v201h5q11 -80 91 -80h10q39 0 53 12.5t14 50.5v15q0 76 -79 87v5h203v-5q-79 -11 -79 -87v-15q0 -38 14 -50.5t54 -12.5h9q42 0 64.5 22t26.5 58h5v-201h-5
q-4 36 -26.5 58t-64.5 22h-9q-39 0 -53.5 -14t-14.5 -52v-30q0 -52 23 -82t52 -35v-5q-50 -50 -68 -121.5t-26 -222.5h-6z" />
    <glyph glyph-name="daggerdbl" unicode="&#x2021;" horiz-adv-x="471" 
d="M134 -60v5q79 11 79 87v15q0 38 -14 50.5t-53 12.5h-10q-80 0 -91 -80h-5v201h5q11 -80 91 -80h10q39 0 53 14t14 52q0 92 -109 94v6q109 2 109 94q0 38 -14 52t-53 14h-10q-80 0 -91 -80h-5v201h5q11 -80 91 -80h10q39 0 53 12.5t14 50.5v15q0 76 -79 87v5h203v-5
q-79 -11 -79 -87v-15q0 -38 14 -50.5t54 -12.5h9q42 0 64.5 22t26.5 58h5v-201h-5q-4 36 -26.5 58t-64.5 22h-9q-39 0 -53.5 -14t-14.5 -52q0 -92 109 -94v-6q-109 -2 -109 -94q0 -38 14.5 -52t53.5 -14h9q42 0 64.5 22t26.5 58h5v-201h-5q-4 36 -26.5 58t-64.5 22h-9
q-40 0 -54 -12.5t-14 -50.5v-15q0 -76 79 -87v-5h-203z" />
    <glyph glyph-name="bullet" unicode="&#x2022;" horiz-adv-x="600" 
d="M300 236q-46 0 -77.5 31.5t-31.5 77.5t31.5 77.5t77.5 31.5t77.5 -31.5t31.5 -77.5t-31.5 -77.5t-77.5 -31.5z" />
    <glyph glyph-name="ellipsis" unicode="&#x2026;" horiz-adv-x="651" 
d="M117 -13q-30 0 -50.5 20.5t-20.5 50.5t20.5 50.5t50.5 20.5t50.5 -21t20.5 -50t-20.5 -50t-50.5 -21zM326 -13q-30 0 -50.5 20.5t-20.5 50.5t20.5 50.5t50.5 20.5t50.5 -21t20.5 -50t-20.5 -50t-50.5 -21zM534 -13q-30 0 -50.5 20.5t-20.5 50.5t20.5 50.5t50.5 20.5
t50.5 -21t20.5 -50t-20.5 -50t-50.5 -21z" />
    <glyph glyph-name="perthousand" unicode="&#x2030;" horiz-adv-x="1113" 
d="M145 -40l429 722h35l-427 -722h-37zM196 315q-71 0 -113.5 47.5t-42.5 125.5t42.5 125.5t113.5 47.5q72 0 114.5 -47.5t42.5 -125.5t-42.5 -125.5t-114.5 -47.5zM196 331q37 0 56 43t19 114t-19 114t-56 43t-55.5 -43t-18.5 -114t18.5 -114t55.5 -43zM559 -20
q-71 0 -113.5 47.5t-42.5 125.5t42.5 125.5t113.5 47.5q72 0 114.5 -47.5t42.5 -125.5t-42.5 -125.5t-114.5 -47.5zM916 -20q-71 0 -113.5 47.5t-42.5 125.5t42.5 125.5t113.5 47.5q72 0 114.5 -47.5t42.5 -125.5t-42.5 -125.5t-114.5 -47.5zM559 -4q37 0 56 43t19 114
t-19 114t-56 43t-55.5 -43t-18.5 -114t18.5 -114t55.5 -43zM916 -4q37 0 56 43t19 114t-19 114t-56 43t-55.5 -43t-18.5 -114t18.5 -114t55.5 -43z" />
    <glyph glyph-name="guilsinglleft" unicode="&#x2039;" horiz-adv-x="319" 
d="M261 74l-210 200v5l210 201l7 -4l-125 -199l125 -200z" />
    <glyph glyph-name="guilsinglright" unicode="&#x203a;" horiz-adv-x="319" 
d="M58 74l-7 3l125 200l-125 199l7 4l210 -201v-5z" />
    <glyph glyph-name="fraction" unicode="&#x2044;" horiz-adv-x="74" 
d="M-195 -40l429 722h35l-427 -722h-37z" />
    <glyph glyph-name="Euro" unicode="&#x20ac;" horiz-adv-x="587" 
d="M380 83q121 0 153 122l8 -2q-16 -107 -70 -162.5t-143 -55.5q-114 0 -182.5 86t-73.5 235h-54v22h54q0 32 5 69h-59v22h62q22 123 95 194.5t180 71.5q103 0 186 -44l-34 -180h-7q-15 183 -166 183q-76 0 -122.5 -61t-49.5 -164h259v-22h-259q0 -32 5 -69h254v-22h-250
q20 -102 76 -162.5t133 -60.5z" />
    <glyph glyph-name="uni20B9" unicode="&#x20b9;" horiz-adv-x="512" 
d="M392 100q39 -85 99 -92v-8h-192q-7 12 -15.5 29.5l-19 40.5l-15.5 34l-53 108q-30 63 -51.5 83t-69.5 20h-39v19h33q148 0 156 149h-189v22h189q-2 67 -29.5 102t-93.5 41h-66v22h437v-22h-217q110 -38 113 -143h104v-22h-105q-9 -64 -75.5 -109.5t-147.5 -45.5v-5
q140 2 195 -119z" />
    <glyph glyph-name="uni20BA" unicode="&#x20ba;" horiz-adv-x="557" 
d="M323 258h211v-6q-21 -3 -28 -19.5t-7 -51.5q0 -90 -51.5 -135.5t-145.5 -45.5h-272v7q42 6 57 25.5t15 71.5v143l-66 -32v24l66 32v62l-66 -32v24l66 32v216q0 45 -15.5 64t-56.5 26v7h263v-7q-41 -7 -56.5 -27t-15.5 -63v-158l158 77v-24l-158 -77v-62l158 77v-24
l-158 -77v-286h32q132 0 132 161q0 33 -13 49.5t-49 22.5v6z" />
    <glyph glyph-name="uni20BD" unicode="&#x20bd;" horiz-adv-x="535" 
d="M260 292h-47v-79h200v-22h-200v-89q0 -51 19.5 -71t75.5 -24v-7h-278v7q38 6 51.5 24t13.5 68v92h-65v22h65v365q0 43 -14 61t-51 25v6h226q259 0 259 -188q0 -92 -66.5 -141t-188.5 -49zM213 651v-340h28q71 0 110.5 44t39.5 127t-39 126t-111 43h-28z" />
    <glyph glyph-name="Bitcoin" unicode="&#x20bf;" horiz-adv-x="597" 
d="M566 175q0 -80 -59.5 -125.5t-170.5 -49.5v-100h-23v100h-1h-65v-100h-23v100h-194v7q39 6 52.5 24t13.5 68v479q0 43 -14 61t-52 24v7h194v80h23v-80h58h8v80h23v-81q199 -11 199 -158q0 -71 -53.5 -115t-143.5 -50v-3q104 0 166 -44t62 -124zM212 651v-301h53
q77 0 113 38t36 117q0 146 -148 146h-54zM288 19q71 0 111 40.5t40 114.5q0 158 -158 158h-69v-313h76z" />
    <glyph glyph-name="uni2113" unicode="&#x2113;" horiz-adv-x="539" 
d="M349 58q66 0 117 101l4 -2q-27 -91 -67.5 -131t-104.5 -40q-161 0 -175 230l-68 -29l-5 10q29 10 72 31q-1 11 -1 36q0 186 72 314t178 128q55 0 86.5 -35.5t31.5 -97.5q0 -166 -257 -304q9 -211 117 -211zM231 305v-10q80 62 120.5 140t40.5 162q0 41 -12.5 64.5
t-32.5 23.5q-46 0 -81 -117t-35 -263z" />
    <glyph glyph-name="uni2116" unicode="&#x2116;" horiz-adv-x="1090" 
d="M726 700v-7q-47 -6 -67 -31t-20 -79v-593h-4l-485 598v-463q0 -61 21.5 -85.5t75.5 -32.5v-7h-217v7q51 6 71.5 32t20.5 86v497q-46 53 -92 71v7h202l380 -464v347q0 55 -20.5 78.5t-76.5 31.5v7h211zM880 137q-84 0 -132.5 52.5t-48.5 133.5t48.5 133.5t132.5 52.5
q83 0 131.5 -52.5t48.5 -133.5t-48.5 -133.5t-131.5 -52.5zM880 478q-93 0 -93 -155t93 -155q92 0 92 155t-92 155zM717 0v43h326v-43h-326z" />
    <glyph glyph-name="trademark" unicode="&#x2122;" horiz-adv-x="799" 
d="M319 684h3v-138h-4q-7 49 -31 78.5t-56 29.5h-15v-279q0 -25 10.5 -36.5t40.5 -15.5v-3h-191v3q30 4 41 15.5t11 36.5v279h-15q-34 0 -57.5 -30t-30.5 -78h-3v138h3q11 -14 44 -14h206q32 0 44 14zM509 310l-127 306l-14 -227q-1 -36 8.5 -47t38.5 -19v-3h-103v3
q22 7 29.5 20t9.5 47l14 226q2 41 -34 51v3h122l95 -226l93 226h117v-3q-20 -6 -27.5 -17.5t-6.5 -36.5l14 -239q3 -41 38 -51v-3h-165v3q41 13 38 66l-11 228l-127 -307h-2z" />
    <glyph glyph-name="uni2126" unicode="&#x2126;" horiz-adv-x="679" 
d="M536 85q39 0 55.5 18t20.5 53h5v-156h-248v163q70 20 106 95t36 172q0 114 -44.5 192t-127.5 78t-127 -78t-44 -192q0 -98 35.5 -172.5t106.5 -94.5v-163h-248v156h5q4 -35 20.5 -53t55.5 -18h143v64q-117 25 -185 94t-68 187q0 131 88.5 210.5t217.5 79.5t218 -79.5
t89 -210.5q0 -118 -68 -187t-185 -94v-64h143z" />
    <glyph glyph-name="estimated" unicode="&#x212e;" horiz-adv-x="686" 
d="M345 13q151 0 226 104l17 -13q-40 -60 -104.5 -88t-138.5 -28q-136 0 -220 91t-84 228q0 138 85.5 230.5t218.5 92.5q137 0 218.5 -90t82.5 -236h-532v-173q79 -118 231 -118zM345 605q-153 0 -231 -122v-156h452v174q-77 104 -221 104z" />
    <glyph glyph-name="uni2153" unicode="&#x2153;" horiz-adv-x="758" 
d="M54 298v4q37 5 52.5 16t15.5 36v260q0 36 -32 36q-12 0 -35 -9l-3 6l153 62h5v-355q0 -25 16 -36.5t51 -15.5v-4h-223zM128 -40l429 722h35l-427 -722h-37zM577 -9q-42 0 -77.5 17.5t-53.5 51.5l7 3q27 -41 75 -41q37 0 61.5 25t24.5 63q0 92 -87 92h-12v9h13q39 0 64 26
t25 66q0 35 -19.5 55.5t-53.5 20.5q-59 0 -83 -64l-6 2q10 45 44.5 69.5t87.5 24.5q56 0 88.5 -25.5t32.5 -67.5q0 -43 -31 -73t-82 -36v-3q50 0 82.5 -27t32.5 -73q0 -48 -36 -81.5t-97 -33.5z" />
    <glyph glyph-name="uni2154" unicode="&#x2154;" horiz-adv-x="817" 
d="M46 298v5l74 81q61 57 86 99t25 92q0 39 -19 61t-54 22q-33 0 -58.5 -21.5t-33.5 -65.5h-6q3 58 37.5 98t103.5 40q58 0 89.5 -32t30.5 -78q-1 -49 -33 -90t-119 -103l-39 -32h133q33 0 48 9t23 28h5l-36 -113h-257zM187 -40l429 722h35l-427 -722h-37zM636 -9
q-42 0 -77.5 17.5t-53.5 51.5l7 3q27 -41 75 -41q37 0 61.5 25t24.5 63q0 92 -87 92h-12v9h13q39 0 64 26t25 66q0 35 -19.5 55.5t-53.5 20.5q-59 0 -83 -64l-6 2q10 45 44.5 69.5t87.5 24.5q56 0 88.5 -25.5t32.5 -67.5q0 -43 -31 -73t-82 -36v-3q50 0 82.5 -27t32.5 -73
q0 -48 -36 -81.5t-97 -33.5z" />
    <glyph glyph-name="oneeighth" unicode="&#x215b;" horiz-adv-x="797" 
d="M54 302q37 5 52.5 16t15.5 36v260q0 36 -32 36q-12 0 -35 -9l-3 6l153 62h5v-355q0 -25 16 -36.5t51 -15.5v-4h-223v4zM557 682h35l-427 -722h-37zM687 207q62 -34 62 -95q0 -53 -42 -87t-114 -34q-66 0 -107 28.5t-41 75.5q0 70 98 97l-18 11q-67 40 -67 101
q0 50 37.5 78.5t102.5 28.5q60 0 98 -25.5t38 -67.5q0 -66 -86 -87zM592 397q-59 0 -59 -55q0 -43 49 -70l53 -33q28 27 28 73q0 85 -71 85zM600 4q35 0 54 18t19 50q0 41 -40 64l-80 50q-34 -28 -34 -84q0 -46 21.5 -72t59.5 -26z" />
    <glyph glyph-name="threeeighths" unicode="&#x215c;" horiz-adv-x="835" 
d="M313 404q0 -48 -36 -81.5t-97 -33.5q-42 0 -77.5 17.5t-53.5 51.5l7 3q27 -41 75 -41q37 0 61.5 25t24.5 63q0 92 -87 92h-12v9h13q39 0 64 26t25 66q0 35 -19.5 55.5t-53.5 20.5q-59 0 -83 -64l-6 2q10 45 44.5 69.5t87.5 24.5q56 0 88.5 -25.5t32.5 -67.5
q0 -43 -31 -73t-82 -36v-3q50 0 82.5 -27t32.5 -73zM595 682h35l-427 -722h-37zM725 207q62 -34 62 -95q0 -53 -42 -87t-114 -34q-66 0 -107 28.5t-41 75.5q0 70 98 97l-18 11q-67 40 -67 101q0 50 37.5 78.5t102.5 28.5q60 0 98 -25.5t38 -67.5q0 -66 -86 -87zM630 397
q-59 0 -59 -55q0 -43 49 -70l53 -33q28 27 28 73q0 85 -71 85zM638 4q35 0 54 18t19 50q0 41 -40 64l-80 50q-34 -28 -34 -84q0 -46 21.5 -72t59.5 -26z" />
    <glyph glyph-name="fiveeighths" unicode="&#x215d;" horiz-adv-x="850" 
d="M310 422q0 -59 -43 -96t-108 -37q-89 0 -121 67l7 4q23 -45 78 -45q41 0 67 28.5t26 76.5q0 45 -22.5 72t-58.5 27q-30 0 -53 -14l-8 5l45 190h159q43 0 56 18h4l-28 -90h-194l-28 -109q35 22 87 22q63 0 99 -34.5t36 -84.5zM610 682h35l-427 -722h-37zM740 207
q62 -34 62 -95q0 -53 -42 -87t-114 -34q-66 0 -107 28.5t-41 75.5q0 70 98 97l-18 11q-67 40 -67 101q0 50 37.5 78.5t102.5 28.5q60 0 98 -25.5t38 -67.5q0 -66 -86 -87zM645 397q-59 0 -59 -55q0 -43 49 -70l53 -33q28 27 28 73q0 85 -71 85zM653 4q35 0 54 18t19 50
q0 41 -40 64l-80 50q-34 -28 -34 -84q0 -46 21.5 -72t59.5 -26z" />
    <glyph glyph-name="arrowleft" unicode="&#x2190;" horiz-adv-x="802" 
d="M764 323v-34h-602l148 -156v-14l-259 187l259 187v-14l-148 -156h602z" />
    <glyph glyph-name="arrowup" unicode="&#x2191;" horiz-adv-x="466" 
d="M420 491h-14l-156 148v-679h-34v679l-156 -148h-14l187 259z" />
    <glyph glyph-name="arrowright" unicode="&#x2192;" horiz-adv-x="802" 
d="M492 119v14l148 156h-602v34h602l-148 156v14l259 -187z" />
    <glyph glyph-name="arrowdown" unicode="&#x2193;" horiz-adv-x="466" 
d="M406 219h14l-187 -259l-187 259h14l156 -148v679h34v-679z" />
    <glyph glyph-name="arrowboth" unicode="&#x2194;" horiz-adv-x="991" 
d="M686 119v14l148 156h-678l148 -156v-14l-259 187l259 187v-14l-148 -156h678l-148 156v14l259 -187z" />
    <glyph glyph-name="arrowupdn" unicode="&#x2195;" horiz-adv-x="466" 
d="M250 71l156 148h14l-187 -259l-187 259h14l156 -148v568l-156 -148h-14l187 259l187 -259h-14l-156 148v-568z" />
    <glyph glyph-name="uni2196" unicode="&#x2196;" horiz-adv-x="792" 
d="M746 24l-24 -24l-610 609l-5 -214l-12 -10l-49 315l315 -50l-10 -11l-216 -5z" />
    <glyph glyph-name="uni2197" unicode="&#x2197;" horiz-adv-x="792" 
d="M431 650l315 50l-49 -315l-12 10l-5 214l-610 -609l-24 24l611 610l-216 5z" />
    <glyph glyph-name="uni2198" unicode="&#x2198;" horiz-adv-x="792" 
d="M431 50l10 11l216 5l-611 610l24 24l610 -609l5 214l12 10l49 -315z" />
    <glyph glyph-name="uni2199" unicode="&#x2199;" horiz-adv-x="792" 
d="M135 66l216 -5l10 -11l-315 -50l49 315l12 -10l5 -214l610 609l24 -24z" />
    <glyph glyph-name="partialdiff" unicode="&#x2202;" horiz-adv-x="517" 
d="M292 715q92 0 143 -72t51 -209q0 -203 -83.5 -326t-212.5 -123q-75 0 -117 46.5t-42 122.5q0 77 32 137t83 93.5t105.5 51t109.5 19.5q-18 196 -135 196q-82 0 -146 -113l-5 3q73 174 217 174zM232 9q33 0 59.5 39t41.5 98.5t23 120t8 111.5q0 26 -2 66
q-80 -7 -144.5 -82t-64.5 -202q0 -151 79 -151z" />
    <glyph glyph-name="emptyset" unicode="&#x2205;" 
d="M537 585l-61 -56q55 -68 55 -162q0 -105 -67 -175t-174 -70q-109 0 -177 73l-62 -57l-9 11l62 57q-55 68 -55 161q0 105 67 175.5t174 70.5q109 0 177 -73l61 56zM84 367q0 -81 44 -139l315 290q-58 65 -153 65q-93 0 -149.5 -61.5t-56.5 -154.5zM496 367q0 80 -44 140
l-315 -290q58 -66 153 -66q93 0 149.5 61.5t56.5 154.5z" />
    <glyph glyph-name="uni2206" unicode="&#x2206;" horiz-adv-x="730" 
d="M10 0l-2 4l341 701h5l368 -701l-3 -4h-709zM43 22h527l-273 523z" />
    <glyph glyph-name="product" unicode="&#x220f;" horiz-adv-x="743" 
d="M713 693q-41 -7 -57 -27t-16 -63v-499q0 -47 16.5 -69t56.5 -28v-7h-275v7q42 6 57 25.5t15 71.5v574h-278v-574q0 -47 16.5 -69t56.5 -28v-7h-275v7q42 6 57 25.5t15 71.5v499q0 45 -15.5 64t-56.5 26v7h683v-7z" />
    <glyph glyph-name="summation" unicode="&#x2211;" horiz-adv-x="654" 
d="M608 29h5v-180h-580l-3 5l301 406l-288 436l2 4h539v-230h-5q-18 114 -61.5 163.5t-150.5 49.5h-169l225 -339v-4l-279 -377h403q53 0 61 66z" />
    <glyph glyph-name="minus" unicode="&#x2212;" 
d="M90 297v22h400v-22h-400z" />
    <glyph glyph-name="radical" unicode="&#x221a;" horiz-adv-x="813" 
d="M297 -15l-185 470h-107v15h121l175 -449l306 745h201v-15h-189l-316 -766h-6z" />
    <glyph glyph-name="infinity" unicode="&#x221e;" horiz-adv-x="620" 
d="M162 142q-54 0 -89 35t-35 87t35 87t89 35q43 0 77 -27t71 -77q37 50 71 77t77 27q54 0 89 -35t35 -87t-35 -87t-89 -35q-43 0 -77 27t-71 77q-37 -50 -71 -77t-77 -27zM162 162q19 0 36.5 7t36 24.5t30 30.5t32.5 40q-21 27 -32.5 40t-30 30.5t-36 24.5t-36.5 7
q-38 0 -68.5 -26.5t-30.5 -75.5t30.5 -75.5t68.5 -26.5zM458 162q38 0 69 26.5t31 75.5t-31 75.5t-69 26.5q-25 0 -50.5 -16t-41 -33.5t-42.5 -52.5q27 -35 42.5 -52.5t41 -33.5t50.5 -16z" />
    <glyph glyph-name="integral" unicode="&#x222b;" horiz-adv-x="500" 
d="M76 -213q-73 0 -123 40l75 113l5 -1q16 -134 62 -134q28 0 48 45.5t34 153.5l68 494q9 63 32.5 108t57 67.5t66 32t67.5 9.5q74 0 122 -40l-74 -113l-5 1q-16 134 -62 134q-28 0 -48 -45.5t-34 -153.5l-68 -494q-9 -63 -32.5 -108t-57 -67.5t-66 -32t-67.5 -9.5z" />
    <glyph glyph-name="approxequal" unicode="&#x2248;" 
d="M385 330q-61 0 -136.5 30.5t-119.5 30.5q-70 0 -100 -55l-7 1q28 91 139 91q44 0 119.5 -30.5t136.5 -30.5q69 0 101 56l6 -2q-29 -91 -139 -91zM375 170q-61 0 -136.5 30.5t-119.5 30.5q-70 0 -100 -55l-7 1q28 91 139 91q44 0 119.5 -30.5t136.5 -30.5q69 0 101 56
l6 -2q-29 -91 -139 -91z" />
    <glyph glyph-name="notequal" unicode="&#x2260;" 
d="M490 377h-155l-68 -138h223v-22h-234l-73 -149h-25l73 149h-140v22h151l68 138h-219v22h230l77 156h25l-77 -156h144v-22z" />
    <glyph glyph-name="lessequal" unicode="&#x2264;" 
d="M490 64l-400 204v18l400 204v-26l-369 -187l369 -187v-26zM90 0v22h400v-22h-400z" />
    <glyph glyph-name="greaterequal" unicode="&#x2265;" 
d="M89 64v26l369 187l-369 187v26l400 -204v-18zM489 0h-400v22h400v-22z" />
    <glyph glyph-name="uni2460" unicode="&#x2460;" horiz-adv-x="847" 
d="M423 -40q-173 0 -281.5 108t-108.5 282t108.5 282t281.5 108t281.5 -108t108.5 -282t-108.5 -282t-281.5 -108zM424 -6q153 0 250.5 98.5t97.5 257.5t-97.5 257.5t-250.5 98.5t-250 -98.5t-97 -257.5t97 -257.5t250 -98.5zM324 171v4q34 4 48 14t14 33v236q0 33 -29 33
q-11 0 -32 -8l-3 5l139 57h5v-323q0 -23 14.5 -33.5t46.5 -13.5v-4h-203z" />
    <glyph glyph-name="uni2461" unicode="&#x2461;" horiz-adv-x="847" 
d="M423 -40q-173 0 -281.5 108t-108.5 282t108.5 282t281.5 108t281.5 -108t108.5 -282t-108.5 -282t-281.5 -108zM424 -6q153 0 250.5 98.5t97.5 257.5t-97.5 257.5t-250.5 98.5t-250 -98.5t-97 -257.5t97 -257.5t250 -98.5zM291 173v5l67 73q55 53 78 90.5t23 83.5
q0 35 -17 55t-49 20q-30 0 -53.5 -19.5t-30.5 -59.5h-5q3 53 34 89.5t94 36.5q53 0 81.5 -29.5t27.5 -70.5q-1 -44 -30.5 -81.5t-107.5 -94.5l-36 -29h121q30 0 43.5 8.5t21.5 25.5h4l-33 -103h-233z" />
    <glyph glyph-name="uni2462" unicode="&#x2462;" horiz-adv-x="847" 
d="M423 -40q-173 0 -281.5 108t-108.5 282t108.5 282t281.5 108t281.5 -108t108.5 -282t-108.5 -282t-281.5 -108zM424 -6q153 0 250.5 98.5t97.5 257.5t-97.5 257.5t-250.5 98.5t-250 -98.5t-97 -257.5t97 -257.5t250 -98.5zM423 163q-39 0 -71 16t-48 47l6 2
q24 -37 68 -37q34 0 56 23t22 57q0 84 -79 84h-11v8h12q35 0 58 23t23 60q0 32 -17.5 51t-48.5 19q-53 0 -76 -59l-5 2q9 41 40.5 63.5t79.5 22.5q51 0 80.5 -23t29.5 -62q0 -40 -28 -67t-75 -32v-3q46 0 75.5 -24.5t29.5 -66.5q0 -43 -33 -73.5t-88 -30.5z" />
    <glyph glyph-name="uni2463" unicode="&#x2463;" horiz-adv-x="847" 
d="M423 740q173 0 281.5 -108t108.5 -282t-108.5 -282t-281.5 -108t-281.5 108t-108.5 282t108.5 282t281.5 108zM424 -6q153 0 250.5 98.5t97.5 257.5t-97.5 257.5t-250.5 98.5t-250 -98.5t-97 -257.5t97 -257.5t250 -98.5zM492 536v-232h65v-21h-65v-53q0 -48 38 -55v-4
h-172v4q31 3 43 15.5t12 40.5v52h-146v15l192 238h33zM287 305h126v156z" />
    <glyph glyph-name="uni2464" unicode="&#x2464;" horiz-adv-x="847" 
d="M423 -40q-173 0 -281.5 108t-108.5 282t108.5 282t281.5 108t281.5 -108t108.5 -282t-108.5 -282t-281.5 -108zM424 -6q153 0 250.5 98.5t97.5 257.5t-97.5 257.5t-250.5 98.5t-250 -98.5t-97 -257.5t97 -257.5t250 -98.5zM398 164q-81 0 -110 61l6 3q22 -41 71 -41
q37 0 60.5 26t23.5 70q0 40 -20.5 65t-52.5 25q-28 0 -48 -13l-8 5l41 172h145q39 0 51 17h3l-25 -82h-177l-25 -99q31 20 79 20q57 0 90 -31.5t33 -76.5q0 -54 -39 -87.5t-98 -33.5z" />
    <glyph glyph-name="uni2465" unicode="&#x2465;" horiz-adv-x="847" 
d="M423 740q173 0 281.5 -108t108.5 -282t-108.5 -282t-281.5 -108t-281.5 108t-108.5 282t108.5 282t281.5 108zM424 -6q153 0 250.5 98.5t97.5 257.5t-97.5 257.5t-250.5 98.5t-250 -98.5t-97 -257.5t97 -257.5t250 -98.5zM501 537q-69 0 -102.5 -44t-38.5 -131
q33 39 83 39q47 0 75.5 -29.5t28.5 -81.5q0 -53 -36 -87.5t-95 -34.5q-63 0 -101 44t-38 119q0 92 60 155.5t153 63.5q26 0 59 -9l-4 -10q-24 6 -44 6zM402 373q-25 0 -42 -19q-1 -10 -1 -30q0 -145 56 -145q50 0 50 94q0 100 -63 100z" />
    <glyph glyph-name="uni2466" unicode="&#x2466;" horiz-adv-x="847" 
d="M423 -40q-173 0 -281.5 108t-108.5 282t108.5 282t281.5 108t281.5 -108t108.5 -282t-108.5 -282t-281.5 -108zM424 -6q153 0 250.5 98.5t97.5 257.5t-97.5 257.5t-250.5 98.5t-250 -98.5t-97 -257.5t97 -257.5t250 -98.5zM343 167q18 174 154 300h-146q-39 0 -52 -20h-4
l27 85h238v-6q-74 -89 -100 -168t-26 -191h-91z" />
    <glyph glyph-name="uni2467" unicode="&#x2467;" horiz-adv-x="847" 
d="M423 740q173 0 281.5 -108t108.5 -282t-108.5 -282t-281.5 -108t-281.5 108t-108.5 282t108.5 282t281.5 108zM424 -6q153 0 250.5 98.5t97.5 257.5t-97.5 257.5t-250.5 98.5t-250 -98.5t-97 -257.5t97 -257.5t250 -98.5zM506 359q56 -31 56 -86q0 -48 -38 -79t-104 -31
q-60 0 -97 25.5t-37 68.5q0 65 89 89l-17 10q-61 35 -61 91q0 45 34.5 71.5t93.5 26.5q54 0 88.5 -23.5t34.5 -61.5q0 -60 -78 -79zM419 532q-53 0 -53 -50q0 -39 44 -64l48 -30q26 23 26 67q0 77 -65 77zM427 175q31 0 48.5 16t17.5 45q0 37 -36 59l-73 45q-31 -22 -31 -76
q0 -42 19.5 -65.5t54.5 -23.5z" />
    <glyph glyph-name="uni2468" unicode="&#x2468;" horiz-adv-x="847" 
d="M423 740q173 0 281.5 -108t108.5 -282t-108.5 -282t-281.5 -108t-281.5 108t-108.5 282t108.5 282t281.5 108zM424 -6q153 0 250.5 98.5t97.5 257.5t-97.5 257.5t-250.5 98.5t-250 -98.5t-97 -257.5t97 -257.5t250 -98.5zM436 544q63 0 101 -44.5t38 -118.5
q0 -93 -60 -156t-153 -63q-34 0 -59 9l4 10q18 -6 44 -6q69 0 102.5 43.5t38.5 131.5q-32 -39 -83 -39q-47 0 -75.5 29.5t-28.5 81.5q0 53 36 87.5t95 34.5zM450 338q24 0 42 20q1 9 1 29q0 146 -56 146q-50 0 -50 -95q0 -100 63 -100z" />
    <glyph glyph-name="uni24EA" unicode="&#x24ea;" horiz-adv-x="847" 
d="M423 -40q-173 0 -281.5 108t-108.5 282t108.5 282t281.5 108t281.5 -108t108.5 -282t-108.5 -282t-281.5 -108zM424 -6q153 0 250.5 98.5t97.5 257.5t-97.5 257.5t-250.5 98.5t-250 -98.5t-97 -257.5t97 -257.5t250 -98.5zM425 163q-63 0 -103.5 49t-40.5 142t40.5 142
t103.5 49t103 -49t40 -142t-40 -142t-103 -49zM425 181q33 0 45 38t12 135q0 96 -12 134t-45 38t-45.5 -38t-12.5 -134q0 -97 12.5 -135t45.5 -38z" />
    <glyph glyph-name="uni24FF" unicode="&#x24ff;" horiz-adv-x="847" 
d="M423 -40q-173 0 -281.5 108t-108.5 282t108.5 282t281.5 108t281.5 -108t108.5 -282t-108.5 -282t-281.5 -108zM424 163q63 0 103 49t40 142t-40 142t-103 49t-103.5 -49t-40.5 -142t40.5 -142t103.5 -49zM424 181q-33 0 -46 38.5t-13 134.5t13 134.5t46 38.5t45 -38.5
t12 -134.5q0 -97 -12 -135t-45 -38z" />
    <glyph glyph-name="lozenge" unicode="&#x25ca;" horiz-adv-x="538" 
d="M268 -16l-263 367v4l261 360h4l263 -367v-4l-260 -360h-5zM321 90l135 186l-238 333l-135 -187z" />
    <glyph glyph-name="circle" unicode="&#x25cb;" horiz-adv-x="847" 
d="M423 -40q-173 0 -281.5 108t-108.5 282t108.5 282t281.5 108t281.5 -108t108.5 -282t-108.5 -282t-281.5 -108zM424 -6q153 0 250.5 98.5t97.5 257.5t-97.5 257.5t-250.5 98.5t-250 -98.5t-97 -257.5t97 -257.5t250 -98.5z" />
    <glyph glyph-name="uni25CF" unicode="&#x25cf;" horiz-adv-x="847" 
d="M423 -40q-173 0 -281.5 108t-108.5 282t108.5 282t281.5 108t281.5 -108t108.5 -282t-108.5 -282t-281.5 -108z" />
    <glyph glyph-name="uni2776" unicode="&#x2776;" horiz-adv-x="847" 
d="M423 -40q-173 0 -281.5 108t-108.5 282t108.5 282t281.5 108t281.5 -108t108.5 -282t-108.5 -282t-281.5 -108zM323 171h203v4q-32 3 -46.5 13.5t-14.5 33.5v323h-5l-138 -57l2 -5q23 8 32 8q29 0 29 -33v-236q0 -23 -14 -32.5t-48 -14.5v-4z" />
    <glyph glyph-name="uni2777" unicode="&#x2777;" horiz-adv-x="847" 
d="M423 -40q-173 0 -281.5 108t-108.5 282t108.5 282t281.5 108t281.5 -108t108.5 -282t-108.5 -282t-281.5 -108zM290 173h233l33 102h-4q-8 -17 -21 -25t-43 -8h-121l35 29q79 57 108.5 94.5t29.5 80.5q1 42 -27.5 71.5t-81.5 29.5q-63 0 -94 -36.5t-34 -89.5h5
q7 40 30.5 59.5t53.5 19.5q32 0 49 -20t17 -55q0 -46 -22.5 -83.5t-77.5 -90.5l-68 -73v-5z" />
    <glyph glyph-name="uni2778" unicode="&#x2778;" horiz-adv-x="847" 
d="M423 -40q-173 0 -281.5 108t-108.5 282t108.5 282t281.5 108t281.5 -108t108.5 -282t-108.5 -282t-281.5 -108zM418 163q56 0 88.5 30.5t32.5 73.5t-29.5 67.5t-75.5 23.5v3q47 5 75 32t28 67q0 39 -29.5 62t-80.5 23q-47 0 -79 -22.5t-41 -62.5l6 -3q22 59 75 59
q31 0 48.5 -18.5t17.5 -50.5q0 -37 -22.5 -60.5t-57.5 -23.5h-12v-8h11q79 0 79 -84q0 -34 -22 -57t-56 -23q-45 0 -69 38l-6 -4q16 -30 48.5 -46t70.5 -16z" />
    <glyph glyph-name="uni2779" unicode="&#x2779;" horiz-adv-x="847" 
d="M423 -40q-173 0 -281.5 108t-108.5 282t108.5 282t281.5 108t281.5 -108t108.5 -282t-108.5 -282t-281.5 -108zM341 171h173v4q-38 9 -38 56v52h65v21h-65v232h-34l-191 -238v-15h145v-52q0 -28 -12 -40.5t-43 -15.5v-4zM270 304l126 157v-157h-126z" />
    <glyph glyph-name="uni277A" unicode="&#x277a;" horiz-adv-x="847" 
d="M423 -40q-173 0 -281.5 108t-108.5 282t108.5 282t281.5 108t281.5 -108t108.5 -282t-108.5 -282t-281.5 -108zM387 164q59 0 98 33.5t39 87.5q0 45 -33 76t-90 31q-45 0 -79 -19l25 99h177l25 82h-3q-12 -17 -51 -17h-144l-42 -172l8 -5q22 13 48 13q33 0 53.5 -24.5
t20.5 -66.5q0 -43 -24 -69t-61 -26q-49 0 -71 41l-6 -3q29 -61 110 -61z" />
    <glyph glyph-name="uni277B" unicode="&#x277b;" horiz-adv-x="847" 
d="M423 740q173 0 281.5 -108t108.5 -282t-108.5 -282t-281.5 -108t-281.5 108t-108.5 282t108.5 282t281.5 108zM429 401q-52 0 -84 -40q5 88 39 132t103 44q26 0 44 -6l4 9q-22 10 -60 10q-93 0 -152.5 -63.5t-59.5 -156.5q0 -73 38 -117.5t100 -44.5q60 0 96 34.5
t36 87.5q0 52 -28.5 81.5t-75.5 29.5zM401 179q-57 0 -57 145q0 19 1 28q18 21 43 21q63 0 63 -100q0 -94 -50 -94zM334 336l4 15l7 10v-9q-6 -6 -11 -16z" />
    <glyph glyph-name="uni277C" unicode="&#x277c;" horiz-adv-x="847" 
d="M423 -40q-173 0 -281.5 108t-108.5 282t108.5 282t281.5 108t281.5 -108t108.5 -282t-108.5 -282t-281.5 -108zM330 167h91q0 112 26 191t100 168v7h-238l-27 -86h3q13 20 53 20h146q-137 -127 -154 -300z" />
    <glyph glyph-name="uni277D" unicode="&#x277d;" horiz-adv-x="847" 
d="M423 -40q-173 0 -281.5 108t-108.5 282t108.5 282t281.5 108t281.5 -108t108.5 -282t-108.5 -282t-281.5 -108zM420 163q65 0 103 31t38 78q0 56 -56 87l-34 21q76 23 76 80q0 38 -34 61.5t-90 23.5q-58 0 -92 -26.5t-34 -71.5q0 -57 61 -91l15 -11q-88 -24 -88 -88
q0 -43 37 -68.5t98 -25.5zM455 391l-46 27q-44 26 -44 64q0 50 54 50q64 0 64 -77q0 -42 -28 -64zM426 175q-35 0 -54.5 23.5t-19.5 65.5q0 50 34 73l69 -43q37 -21 37 -58q0 -29 -17.5 -45t-48.5 -16z" />
    <glyph glyph-name="uni277E" unicode="&#x277e;" horiz-adv-x="847" 
d="M423 -40q-173 0 -281.5 108t-108.5 282t108.5 282t281.5 108t281.5 -108t108.5 -282t-108.5 -282t-281.5 -108zM363 161q93 0 153 63.5t60 156.5q0 74 -38.5 118t-100.5 44q-59 0 -95 -34.5t-36 -87.5q0 -52 28.5 -81.5t74.5 -29.5q52 0 85 41q-9 -177 -142 -177
q-29 0 -44 7l-4 -10q28 -10 59 -10zM450 338q-63 0 -63 101q0 94 51 94q56 0 56 -166q-14 -29 -44 -29z" />
    <glyph glyph-name="uniF8FF" unicode="&#xf8ff;" horiz-adv-x="662" 
d="M460 479q182 -89 182 -256q0 -132 -93 -215.5t-241 -83.5q-128 0 -208 58t-80 150q0 70 46 111t126 41q89 0 152.5 -50t63.5 -120q0 -45 -27.5 -72.5t-72.5 -27.5q-43 0 -70.5 27.5t-27.5 69.5q0 38 28 64.5t68 26.5q22 0 40 -6q-39 52 -114 52q-51 0 -81 -31.5
t-30 -86.5q0 -77 58 -127t147 -50q82 0 132.5 41t50.5 106q0 93 -129 156l-152 74q-153 75 -153 211q0 99 75.5 161t196.5 62q68 0 142.5 -17.5t121.5 -44.5l-72 -194h-5q-22 93 -93 156t-154 63q-43 0 -67 -18t-24 -49q0 -28 23.5 -52t77.5 -50z" />
    <glyph glyph-name="bar.case" horiz-adv-x="171" 
d="M100 760v-854h-29v854h29z" />
    <glyph glyph-name="brokenbar.case" horiz-adv-x="171" 
d="M100 760v-362h-29v362h29zM71 -94v392h29v-392h-29z" />
    <glyph glyph-name="parenleft.case" horiz-adv-x="310" 
d="M299 -117q-44 19 -87.5 56.5t-83 92.5t-64 134t-24.5 167t24.5 167t64 134t83 92.5t87.5 56.5l3 -3q-81 -64 -125.5 -185t-44.5 -262t44.5 -262t125.5 -185z" />
    <glyph glyph-name="parenright.case" horiz-adv-x="310" 
d="M11 783q44 -19 87.5 -56.5t83 -92.5t64 -134t24.5 -167t-24.5 -167t-64 -134t-83 -92.5t-87.5 -56.5l-3 3q81 64 125.5 185t44.5 262t-44.5 262t-125.5 185z" />
    <glyph glyph-name="hyphen.case" horiz-adv-x="364" 
d="M38 334v43h287v-43h-287z" />
    <glyph glyph-name="bracketleft.case" horiz-adv-x="251" 
d="M241 755q-30 -2 -46.5 -6.5t-29 -18.5t-12.5 -40v-714q0 -37 21.5 -49t66.5 -16v-5h-170v854h170v-5z" />
    <glyph glyph-name="bracketright.case" horiz-adv-x="251" 
d="M10 755v5h170v-854h-170v5q30 2 46.5 6.5t29 18.5t12.5 40v714q0 37 -21.5 49t-66.5 16z" />
    <glyph glyph-name="braceleft.case" horiz-adv-x="294" 
d="M282 -107q-85 5 -135 54t-50 129v159q0 70 -61 101v6q61 31 61 108v140q0 80 50 129t135 54v-5q-47 -10 -72.5 -52.5t-25.5 -110.5v-133q0 -71 -61 -108q61 -37 61 -108v-195q0 -67 26 -110t72 -53v-5z" />
    <glyph glyph-name="braceright.case" horiz-adv-x="294" 
d="M13 -107v5q48 10 73 54t25 109v169q0 34 13.5 59.5t22 32t25.5 16.5q-17 10 -25.5 16.5t-22 32t-13.5 59.5v159q0 64 -25.5 108.5t-72.5 54.5v5q89 -4 137 -55t48 -128v-123q0 -69 61 -101v-6q-61 -29 -61 -108v-176q0 -77 -48 -128t-137 -55z" />
    <glyph glyph-name="endash.case" horiz-adv-x="552" 
d="M38 342v27h475v-27h-475z" />
    <glyph glyph-name="emdash.case" horiz-adv-x="817" 
d="M38 342v27h740v-27h-740z" />
    <glyph glyph-name="guilsinglleft.case" horiz-adv-x="319" 
d="M261 104l-210 200v5l210 201l7 -4l-125 -199l125 -200z" />
    <glyph glyph-name="guilsinglright.case" horiz-adv-x="319" 
d="M58 104l-7 3l125 200l-125 199l7 4l210 -201v-5z" />
    <glyph glyph-name="exclamdown.case" horiz-adv-x="287" 
d="M144 713q30 0 50.5 -21t20.5 -50t-20.5 -50t-50.5 -21t-50.5 20.5t-20.5 50.5t20.5 50.5t50.5 20.5zM136 496h15l61 -410q3 -12 3 -31q0 -36 -20 -55.5t-52 -19.5q-31 0 -51 19.5t-20 55.5q0 19 3 31z" />
    <glyph glyph-name="questiondown.case" horiz-adv-x="413" 
d="M251 713q30 0 50.5 -20.5t20.5 -50.5t-20.5 -50.5t-50.5 -20.5t-50.5 21t-20.5 50t20.5 50t50.5 21zM261 499v-34q-1 -38 -11 -60.5t-35 -52.5q-77 -90 -77 -173q0 -66 36 -104.5t98 -38.5q111 0 138 94l7 -2q-13 -66 -65 -107t-138 -41q-83 0 -135.5 47.5t-52.5 121.5
q0 118 130 198q49 31 67.5 60t18.5 74v18h19z" />
    <glyph glyph-name="a.sc" horiz-adv-x="609" 
d="M525 84q12 -37 26.5 -54.5t41.5 -24.5v-5h-242v5q33 9 40.5 31.5t-7.5 68.5l-33 95h-191l-37 -105q-27 -74 43 -90v-5h-150v5q29 7 46 27.5t33 64.5l162 449h99zM167 220h177l-88 251z" />
    <glyph glyph-name="b.sc" horiz-adv-x="548" 
d="M321 280q90 1 142 -35.5t52 -100.5q0 -70 -57 -107t-164 -37h-260v5q33 8 44.5 24.5t11.5 54.5v383q0 35 -11.5 50.5t-44.5 23.5v5h257q196 0 196 -129q0 -58 -44 -94t-122 -40v-3zM250 527h-38v-241h38q108 0 108 124q0 117 -108 117zM266 19q53 0 83 33t30 91
q0 127 -120 127h-47v-251h54z" />
    <glyph glyph-name="c.sc" horiz-adv-x="539" 
d="M280 -15q-111 0 -178 72.5t-67 197.5q0 136 77.5 221t199.5 85q101 0 185 -39l-37 -181h-6q-20 176 -167 176q-71 0 -113 -52.5t-42 -141.5q0 -105 59.5 -172t153.5 -67q119 0 149 92l6 -2q-39 -189 -220 -189z" />
    <glyph glyph-name="d.sc" horiz-adv-x="596" 
d="M267 546q136 0 214 -73t78 -199q0 -131 -80.5 -202.5t-210.5 -71.5h-234v5q32 7 44 23.5t12 55.5v383q0 37 -12.5 52t-43.5 22v5h233zM237 19q48 0 80.5 10t58.5 36t38 75.5t12 124.5q0 78 -13 130.5t-39 80.5t-58.5 39.5t-78.5 11.5h-25v-508h25z" />
    <glyph glyph-name="e.sc" horiz-adv-x="509" 
d="M464 210h5l-21 -210h-414v5q33 8 44.5 24.5t11.5 54.5v383q0 35 -11.5 50.5t-44.5 23.5v5h404l15 -185h-5q-23 85 -67 125.5t-112 40.5h-57v-238h37q93 0 118 97h5v-219h-5q-26 103 -118 103h-37v-251h57q79 0 122.5 42.5t72.5 148.5z" />
    <glyph glyph-name="f.sc" horiz-adv-x="477" 
d="M434 546l19 -185h-5q-44 166 -190 166h-46v-243h40q44 0 74.5 26.5t40.5 74.5h5v-219h-5q-11 49 -41.5 75.5t-73.5 26.5h-40v-183q0 -41 17.5 -58.5t64.5 -21.5v-5h-260v5q33 7 44.5 22t11.5 47v393q0 34 -11.5 50t-44.5 24v5h400z" />
    <glyph glyph-name="g.sc" horiz-adv-x="604" 
d="M321 -14q-130 0 -208 76.5t-78 205.5q0 134 85.5 214.5t229.5 80.5q92 0 177 -37l-35 -164h-6q-9 172 -148 172q-79 0 -122 -62.5t-43 -176.5q0 -124 47.5 -205.5t122.5 -83.5q46 0 65 24v139q0 42 -17.5 60.5t-68.5 25.5v5h258v-5q-31 -9 -43.5 -25.5t-12.5 -48.5v-138
q-82 -57 -203 -57z" />
    <glyph glyph-name="h.sc" horiz-adv-x="636" 
d="M602 541q-33 -8 -44.5 -24t-11.5 -52v-384q0 -36 11.5 -52.5t44.5 -23.5v-5h-234v5q33 8 44.5 24t11.5 52v186h-212v-186q0 -36 11.5 -52t44.5 -24v-5h-234v5q33 7 44.5 23.5t11.5 52.5v384q0 36 -11.5 52t-44.5 24v5h234v-5q-33 -8 -44.5 -24t-11.5 -52v-178h212v178
q0 36 -11.5 52t-44.5 24v5h234v-5z" />
    <glyph glyph-name="i.sc" horiz-adv-x="302" 
d="M268 541q-33 -8 -44.5 -24t-11.5 -52v-384q0 -36 11.5 -52.5t44.5 -23.5v-5h-234v5q33 7 44.5 23.5t11.5 52.5v384q0 36 -11.5 52t-44.5 24v5h234v-5z" />
    <glyph glyph-name="j.sc" horiz-adv-x="295" 
d="M279 546v-5q-32 -7 -44 -22t-12 -52v-373q0 -73 -39.5 -113.5t-109.5 -40.5q-47 0 -74 22l6 7q15 -12 38 -12q56 0 56 76v434q0 36 -12.5 51.5t-43.5 22.5v5h235z" />
    <glyph glyph-name="k.sc" horiz-adv-x="622" 
d="M268 541q-31 -7 -43.5 -23.5t-12.5 -50.5v-383q0 -38 13 -55.5t43 -23.5v-5h-234v5q33 8 44.5 24.5t11.5 54.5v383q0 34 -11.5 50t-44.5 24v5h234v-5zM417 0l-205 279l167 157q44 42 44 63q0 35 -62 42v5h205v-5q-39 -8 -68.5 -27t-67.5 -55l-119 -112l208 -270
q31 -41 46 -54t41 -18v-5h-189z" />
    <glyph glyph-name="l.sc" horiz-adv-x="472" 
d="M439 222h6l-23 -222h-388v5q32 7 44 23.5t12 55.5v383q0 37 -12.5 52t-43.5 22v5h234v-5q-31 -7 -43.5 -22t-12.5 -52v-448h35q74 0 120.5 48t71.5 155z" />
    <glyph glyph-name="m.sc" horiz-adv-x="753" 
d="M328 -15l-198 482l-21 -361q-3 -50 11.5 -69.5t63.5 -31.5v-5h-161v5q34 9 46.5 29t15.5 72l20 354q2 37 -10 55t-44 26v5h179l151 -371l152 371h170v-5q-33 -7 -44.5 -25.5t-9.5 -58.5l21 -373q2 -35 16 -53.5t43 -25.5v-5h-242v5q35 10 48 32.5t11 65.5l-17 366
l-198 -484h-3z" />
    <glyph glyph-name="n.sc" horiz-adv-x="621" 
d="M434 546h165v-5q-37 -6 -52 -26t-15 -60v-468h-3l-395 465v-357q0 -43 16 -62.5t59 -27.5v-5h-171v5q42 7 57 26.5t15 63.5v384q-37 41 -76 62v5h181l293 -338v247q0 38 -14 57.5t-60 28.5v5z" />
    <glyph glyph-name="o.sc" horiz-adv-x="645" 
d="M323 -15q-127 0 -207.5 80.5t-80.5 207.5t80.5 207.5t207.5 80.5t207 -80.5t80 -207.5t-80 -207.5t-207 -80.5zM323 10q150 0 150 263q0 134 -37 198t-113 64q-77 0 -113.5 -63.5t-36.5 -198.5q0 -263 150 -263z" />
    <glyph glyph-name="p.sc" horiz-adv-x="518" 
d="M271 234h-59v-149q0 -41 17.5 -58.5t64.5 -21.5v-5h-260v5q33 8 44.5 24.5t11.5 54.5v383q0 35 -11.5 50.5t-44.5 23.5v5h237q106 0 164 -41t58 -115q0 -75 -57.5 -115.5t-164.5 -40.5zM247 527h-35v-275h35q55 0 86.5 37.5t31.5 100.5q0 62 -32 99.5t-86 37.5z" />
    <glyph glyph-name="q.sc" horiz-adv-x="645" 
d="M674 -174q-293 0 -545 229q-94 83 -94 218q0 127 80.5 207.5t207.5 80.5t207 -80.5t80 -207.5q0 -117 -66.5 -194.5t-186.5 -91.5q173 -117 405 -117q122 0 187 30l5 -7q-100 -67 -280 -67zM323 10q150 0 150 263q0 134 -37 198t-113 64q-77 0 -113.5 -63.5t-36.5 -198.5
q0 -263 150 -263z" />
    <glyph glyph-name="r.sc" horiz-adv-x="597" 
d="M511 74q26 -61 72 -68v-6h-169q-12 19 -36 78l-44 112q-18 44 -35 60.5t-54 16.5h-33v-183q0 -67 56 -79v-5h-234v5q32 7 44 23.5t12 55.5v383q0 37 -12.5 52t-43.5 22v5h233q221 0 221 -134q0 -58 -53.5 -95.5t-127.5 -37.5v-5q57 1 99.5 -23t61.5 -71zM241 283
q112 0 112 127q0 59 -24.5 88t-79.5 29h-37v-244h29z" />
    <glyph glyph-name="s.sc" horiz-adv-x="466" 
d="M229 -13q-111 0 -197 45l30 154h5q13 -79 64 -125t123 -46q46 0 73 22.5t27 60.5q0 31 -17.5 51.5t-59.5 38.5l-110 49q-122 54 -122 160q0 75 55 119.5t147 44.5q99 0 180 -43l-34 -140h-5q-15 75 -59 115.5t-109 40.5q-45 0 -72 -20t-27 -54q0 -28 17.5 -47.5
t61.5 -38.5l117 -53q60 -27 87.5 -63.5t27.5 -90.5q0 -80 -56.5 -130t-146.5 -50z" />
    <glyph glyph-name="t.sc" horiz-adv-x="499" 
d="M474 566h4v-210h-5q-11 80 -46 123t-91 43h-25v-437q0 -41 17 -58t64 -22v-5h-285v5q46 4 63.5 21.5t17.5 58.5v437h-25q-53 0 -89.5 -41.5t-47.5 -124.5h-5v210h4q19 -20 66 -20h317q47 0 66 20z" />
    <glyph glyph-name="u.sc" horiz-adv-x="570" 
d="M555 546v-5q-33 -8 -46.5 -26t-13.5 -57v-249q0 -110 -51.5 -167t-152.5 -57q-106 0 -162.5 57t-56.5 166v259q0 34 -11.5 50t-44.5 24v5h245v-5q-38 -9 -51.5 -26t-13.5 -55v-251q0 -84 35 -128t102 -44q137 0 137 174v240q0 41 -17.5 61t-59.5 29v5h162z" />
    <glyph glyph-name="v.sc" horiz-adv-x="592" 
d="M294 -8l-203 468q-17 40 -32.5 58.5t-44.5 22.5v5h260v-5q-58 -6 -58 -48q0 -16 10 -40l124 -285l116 278q11 24 11 45q0 43 -51 50v5h152v-5q-31 -6 -49 -26.5t-37 -66.5l-194 -456h-4z" />
    <glyph glyph-name="w.sc" horiz-adv-x="820" 
d="M660 546h146v-5q-29 -5 -45 -24.5t-34 -66.5l-178 -458h-3l-137 343l-133 -343h-3l-186 466q-16 41 -31 60t-42 23v5h239v-5q-40 -6 -40 -40q0 -24 12 -53l102 -264l70 181l-39 97q-9 24 -14 34t-16 22.5t-27 22.5v5h238v-5q-53 -6 -53 -48q0 -16 9 -37l105 -271l101 263
q9 24 9 43q0 44 -50 50v5z" />
    <glyph glyph-name="x.sc" horiz-adv-x="634" 
d="M522 86q27 -39 48 -57t49 -24v-5h-268v5q42 10 42 44q0 22 -34 71l-78 111l-85 -110q-37 -47 -37 -70q0 -35 48 -46v-5h-189v5q39 8 69 29t61 62l118 156l-147 210q-48 68 -100 79v5h275v-5q-47 -6 -47 -39q0 -22 38 -74l72 -104l78 103q38 49 38 72q0 36 -53 42v5h176
v-5q-29 -6 -55.5 -27.5t-61.5 -67.5l-107 -143z" />
    <glyph glyph-name="y.sc" horiz-adv-x="555" 
d="M385 546h154v-5q-46 -6 -88 -83l-114 -201v-172q0 -41 18.5 -58t63.5 -22v-5h-285v5q46 5 63.5 22t17.5 58v168l-117 214q-39 70 -82 74v5h249v-5q-51 -8 -51 -47q0 -20 15 -45l96 -170l95 165q16 29 16 49q0 40 -51 48v5z" />
    <glyph glyph-name="z.sc" horiz-adv-x="513" 
d="M27 0v4l312 522h-70q-92 0 -137.5 -45t-76.5 -146h-5l22 211h410v-4l-309 -522h77q173 0 226 199h5l-24 -219h-430z" />
    <glyph glyph-name="aacute.sc" horiz-adv-x="609" 
d="M459 696l-141 -114h-27l64 118h104v-4zM525 84q12 -37 26.5 -54.5t41.5 -24.5v-5h-242v5q33 9 40.5 31.5t-7.5 68.5l-33 95h-191l-37 -105q-27 -74 43 -90v-5h-150v5q29 7 46 27.5t33 64.5l162 449h99zM167 220h177l-88 251z" />
    <glyph glyph-name="abreve.sc" horiz-adv-x="609" 
d="M305 586q-47 0 -77.5 29.5t-30.5 84.5h20q2 -32 26 -48t62 -16t62 16t26 48h20q0 -55 -30.5 -84.5t-77.5 -29.5zM525 84q12 -37 26.5 -54.5t41.5 -24.5v-5h-242v5q33 9 40.5 31.5t-7.5 68.5l-33 95h-191l-37 -105q-27 -74 43 -90v-5h-150v5q29 7 46 27.5t33 64.5l162 449
h99zM167 220h177l-88 251z" />
    <glyph glyph-name="acircumflex.sc" horiz-adv-x="609" 
d="M304 650l-96 -67h-29l109 117h33l109 -117h-30zM525 84q12 -37 26.5 -54.5t41.5 -24.5v-5h-242v5q33 9 40.5 31.5t-7.5 68.5l-33 95h-191l-37 -105q-27 -74 43 -90v-5h-150v5q29 7 46 27.5t33 64.5l162 449h99zM167 220h177l-88 251z" />
    <glyph glyph-name="adieresis.sc" horiz-adv-x="609" 
d="M215 590q-25 0 -41.5 16.5t-16.5 41.5t16.5 41.5t41.5 16.5t41 -16.5t16 -41.5t-16 -41.5t-41 -16.5zM396 590q-25 0 -41.5 16.5t-16.5 41.5t16.5 41.5t41.5 16.5t41 -16.5t16 -41.5t-16 -41.5t-41 -16.5zM525 84q12 -37 26.5 -54.5t41.5 -24.5v-5h-242v5q33 9 40.5 31.5
t-7.5 68.5l-33 95h-191l-37 -105q-27 -74 43 -90v-5h-150v5q29 7 46 27.5t33 64.5l162 449h99zM167 220h177l-88 251z" />
    <glyph glyph-name="agrave.sc" horiz-adv-x="609" 
d="M319 582h-27l-141 114v4h104zM525 84q12 -37 26.5 -54.5t41.5 -24.5v-5h-242v5q33 9 40.5 31.5t-7.5 68.5l-33 95h-191l-37 -105q-27 -74 43 -90v-5h-150v5q29 7 46 27.5t33 64.5l162 449h99zM167 220h177l-88 251z" />
    <glyph glyph-name="amacron.sc" horiz-adv-x="609" 
d="M437 652v-28h-265v28h265zM525 84q12 -37 26.5 -54.5t41.5 -24.5v-5h-242v5q33 9 40.5 31.5t-7.5 68.5l-33 95h-191l-37 -105q-27 -74 43 -90v-5h-150v5q29 7 46 27.5t33 64.5l162 449h99zM167 220h177l-88 251z" />
    <glyph glyph-name="aogonek.sc" horiz-adv-x="609" 
d="M351 0q-80 -25 -80 -92q0 -56 59 -56q47 0 66 42l4 -2q-21 -102 -105 -102q-42 0 -66.5 22t-24.5 60q0 48 39 85t108 49v-1q33 9 40.5 31.5t-7.5 68.5l-33 95h-191l-37 -105q-27 -74 43 -90v-5h-150v5q29 7 46 27.5t33 64.5l162 449h99l169 -462q12 -37 26.5 -54.5
t41.5 -24.5v-5h-242zM167 220h177l-88 251z" />
    <glyph glyph-name="aring.sc" horiz-adv-x="609" 
d="M305 560q-37 0 -60.5 23t-23.5 59q0 37 23.5 60t60.5 23q36 0 59.5 -23t23.5 -60q0 -36 -23.5 -59t-59.5 -23zM305 705q-27 0 -44 -17t-17 -46q0 -28 17 -45t44 -17q26 0 43 17t17 45q0 29 -17 46t-43 17zM525 84q12 -37 26.5 -54.5t41.5 -24.5v-5h-242v5q33 9 40.5 31.5
t-7.5 68.5l-33 95h-191l-37 -105q-27 -74 43 -90v-5h-150v5q29 7 46 27.5t33 64.5l162 449h99zM167 220h177l-88 251z" />
    <glyph glyph-name="atilde.sc" horiz-adv-x="609" 
d="M238 640q-47 0 -60 -41h-6q4 48 26.5 71.5t58.5 23.5q26 0 60 -19t56 -19q46 0 60 40h5q-7 -94 -85 -94q-26 0 -59.5 19t-55.5 19zM525 84q12 -37 26.5 -54.5t41.5 -24.5v-5h-242v5q33 9 40.5 31.5t-7.5 68.5l-33 95h-191l-37 -105q-27 -74 43 -90v-5h-150v5
q29 7 46 27.5t33 64.5l162 449h99zM167 220h177l-88 251z" />
    <glyph glyph-name="ae.sc" horiz-adv-x="771" 
d="M728 210h3l-21 -210h-393v5q33 8 44.5 24.5t11.5 54.5v116h-174l-64 -116q-14 -25 -14 -40q0 -14 9.5 -23t33.5 -16v-5h-150v5q30 7 50 26t46 64l259 451h327l19 -185h-3q-20 74 -73 119q-52 47 -124 49h-27v-248h33q50 0 78.5 21.5t43.5 70.5h3v-206h-3q-23 93 -122 93
h-33v-243h26q84 2 137 51q45 42 77 142zM210 219h163v295z" />
    <glyph glyph-name="aeacute.sc" horiz-adv-x="771" 
d="M654 696l-141 -114h-27l64 118h104v-4zM728 210h3l-21 -210h-393v5q33 8 44.5 24.5t11.5 54.5v116h-174l-64 -116q-14 -25 -14 -40q0 -14 9.5 -23t33.5 -16v-5h-150v5q30 7 50 26t46 64l259 451h327l19 -185h-3q-20 74 -73 119q-52 47 -124 49h-27v-248h33
q50 0 78.5 21.5t43.5 70.5h3v-206h-3q-23 93 -122 93h-33v-243h26q84 2 137 51q45 42 77 142zM210 219h163v295z" />
    <glyph glyph-name="cacute.sc" horiz-adv-x="539" 
d="M319 582h-27l64 118h104v-4zM280 -15q-111 0 -178 72.5t-67 197.5q0 136 77.5 221t199.5 85q101 0 185 -39l-37 -181h-6q-20 176 -167 176q-71 0 -113 -52.5t-42 -141.5q0 -105 59.5 -172t153.5 -67q119 0 149 92l6 -2q-39 -189 -220 -189z" />
    <glyph glyph-name="ccaron.sc" horiz-adv-x="539" 
d="M289 583l-109 117h29l96 -67l96 67h30l-109 -117h-33zM280 -15q-111 0 -178 72.5t-67 197.5q0 136 77.5 221t199.5 85q101 0 185 -39l-37 -181h-6q-20 176 -167 176q-71 0 -113 -52.5t-42 -141.5q0 -105 59.5 -172t153.5 -67q119 0 149 92l6 -2q-39 -189 -220 -189z" />
    <glyph glyph-name="ccedilla.sc" horiz-adv-x="539" 
d="M500 174q-36 -176 -196 -188l-31 -49q11 9 33 9q32 0 53.5 -20.5t21.5 -56.5q0 -37 -24 -60.5t-60 -23.5q-31 0 -51.5 17t-26.5 46l8 4q16 -32 50 -32q21 0 34.5 14t13.5 37q0 21 -12 33t-30 12t-30 -9l-10 5l44 73h-7q-111 0 -178 72.5t-67 197.5q0 136 77.5 221
t199.5 85q101 0 185 -39l-37 -181h-6q-20 176 -167 176q-71 0 -113 -52.5t-42 -141.5q0 -105 59.5 -172t153.5 -67q119 0 149 92z" />
    <glyph glyph-name="ccircumflex.sc" horiz-adv-x="539" 
d="M180 583l109 117h33l109 -117h-30l-96 67l-96 -67h-29zM280 -15q-111 0 -178 72.5t-67 197.5q0 136 77.5 221t199.5 85q101 0 185 -39l-37 -181h-6q-20 176 -167 176q-71 0 -113 -52.5t-42 -141.5q0 -105 59.5 -172t153.5 -67q119 0 149 92l6 -2q-39 -189 -220 -189z" />
    <glyph glyph-name="cdotaccent.sc" horiz-adv-x="539" 
d="M306 589q-26 0 -43 17.5t-17 42.5t17.5 42.5t42.5 17.5t42.5 -17.5t17.5 -42.5t-17 -42.5t-43 -17.5zM280 -15q-111 0 -178 72.5t-67 197.5q0 136 77.5 221t199.5 85q101 0 185 -39l-37 -181h-6q-20 176 -167 176q-71 0 -113 -52.5t-42 -141.5q0 -105 59.5 -172
t153.5 -67q119 0 149 92l6 -2q-39 -189 -220 -189z" />
    <glyph glyph-name="eth.sc" horiz-adv-x="596" 
d="M267 546q136 0 214 -73t78 -199q0 -131 -80.5 -202.5t-210.5 -71.5h-234v5q32 7 44 23.5t12 55.5v174h-56v14h56v195q0 37 -12.5 52t-43.5 22v5h233zM237 19q48 0 80.5 10t58.5 36t38 75.5t12 124.5q0 78 -13 130.5t-39 80.5t-58.5 39.5t-78.5 11.5h-25v-255h119v-14
h-119v-239h25z" />
    <glyph glyph-name="dcaron.sc" horiz-adv-x="596" 
d="M265 583l-109 117h29l96 -67l96 67h30l-109 -117h-33zM267 546q136 0 214 -73t78 -199q0 -131 -80.5 -202.5t-210.5 -71.5h-234v5q32 7 44 23.5t12 55.5v383q0 37 -12.5 52t-43.5 22v5h233zM237 19q48 0 80.5 10t58.5 36t38 75.5t12 124.5q0 78 -13 130.5t-39 80.5
t-58.5 39.5t-78.5 11.5h-25v-508h25z" />
    <glyph glyph-name="dcroat.sc" horiz-adv-x="596" 
d="M267 546q136 0 214 -73t78 -199q0 -131 -80.5 -202.5t-210.5 -71.5h-234v5q32 7 44 23.5t12 55.5v174h-56v14h56v195q0 37 -12.5 52t-43.5 22v5h233zM237 19q48 0 80.5 10t58.5 36t38 75.5t12 124.5q0 78 -13 130.5t-39 80.5t-58.5 39.5t-78.5 11.5h-25v-255h119v-14
h-119v-239h25z" />
    <glyph glyph-name="eacute.sc" horiz-adv-x="509" 
d="M418 696l-141 -114h-27l64 118h104v-4zM464 210h5l-21 -210h-414v5q33 8 44.5 24.5t11.5 54.5v383q0 35 -11.5 50.5t-44.5 23.5v5h404l15 -185h-5q-23 85 -67 125.5t-112 40.5h-57v-238h37q93 0 118 97h5v-219h-5q-26 103 -118 103h-37v-251h57q79 0 122.5 42.5
t72.5 148.5z" />
    <glyph glyph-name="ebreve.sc" horiz-adv-x="509" 
d="M264 586q-47 0 -77.5 29.5t-30.5 84.5h20q2 -32 26 -48t62 -16t62 16t26 48h20q0 -55 -30.5 -84.5t-77.5 -29.5zM464 210h5l-21 -210h-414v5q33 8 44.5 24.5t11.5 54.5v383q0 35 -11.5 50.5t-44.5 23.5v5h404l15 -185h-5q-23 85 -67 125.5t-112 40.5h-57v-238h37
q93 0 118 97h5v-219h-5q-26 103 -118 103h-37v-251h57q79 0 122.5 42.5t72.5 148.5z" />
    <glyph glyph-name="ecaron.sc" horiz-adv-x="509" 
d="M280 583h-33l-109 117h29l96 -67l96 67h30zM464 210h5l-21 -210h-414v5q33 8 44.5 24.5t11.5 54.5v383q0 35 -11.5 50.5t-44.5 23.5v5h404l15 -185h-5q-23 85 -67 125.5t-112 40.5h-57v-238h37q93 0 118 97h5v-219h-5q-26 103 -118 103h-37v-251h57q79 0 122.5 42.5
t72.5 148.5z" />
    <glyph glyph-name="ecircumflex.sc" horiz-adv-x="509" 
d="M263 650l-96 -67h-29l109 117h33l109 -117h-30zM464 210h5l-21 -210h-414v5q33 8 44.5 24.5t11.5 54.5v383q0 35 -11.5 50.5t-44.5 23.5v5h404l15 -185h-5q-23 85 -67 125.5t-112 40.5h-57v-238h37q93 0 118 97h5v-219h-5q-26 103 -118 103h-37v-251h57q79 0 122.5 42.5
t72.5 148.5z" />
    <glyph glyph-name="edieresis.sc" horiz-adv-x="509" 
d="M174 590q-25 0 -41.5 16.5t-16.5 41.5t16.5 41.5t41.5 16.5t41 -16.5t16 -41.5t-16 -41.5t-41 -16.5zM355 590q-25 0 -41.5 16.5t-16.5 41.5t16.5 41.5t41.5 16.5t41 -16.5t16 -41.5t-16 -41.5t-41 -16.5zM464 210h5l-21 -210h-414v5q33 8 44.5 24.5t11.5 54.5v383
q0 35 -11.5 50.5t-44.5 23.5v5h404l15 -185h-5q-23 85 -67 125.5t-112 40.5h-57v-238h37q93 0 118 97h5v-219h-5q-26 103 -118 103h-37v-251h57q79 0 122.5 42.5t72.5 148.5z" />
    <glyph glyph-name="edotaccent.sc" horiz-adv-x="509" 
d="M264 589q-26 0 -43 17.5t-17 42.5t17.5 42.5t42.5 17.5t42.5 -17.5t17.5 -42.5t-17 -42.5t-43 -17.5zM464 210h5l-21 -210h-414v5q33 8 44.5 24.5t11.5 54.5v383q0 35 -11.5 50.5t-44.5 23.5v5h404l15 -185h-5q-23 85 -67 125.5t-112 40.5h-57v-238h37q93 0 118 97h5
v-219h-5q-26 103 -118 103h-37v-251h57q79 0 122.5 42.5t72.5 148.5z" />
    <glyph glyph-name="egrave.sc" horiz-adv-x="509" 
d="M278 582h-27l-141 114v4h104zM464 210h5l-21 -210h-414v5q33 8 44.5 24.5t11.5 54.5v383q0 35 -11.5 50.5t-44.5 23.5v5h404l15 -185h-5q-23 85 -67 125.5t-112 40.5h-57v-238h37q93 0 118 97h5v-219h-5q-26 103 -118 103h-37v-251h57q79 0 122.5 42.5t72.5 148.5z" />
    <glyph glyph-name="emacron.sc" horiz-adv-x="509" 
d="M396 652v-28h-265v28h265zM464 210h5l-21 -210h-414v5q33 8 44.5 24.5t11.5 54.5v383q0 35 -11.5 50.5t-44.5 23.5v5h404l15 -185h-5q-23 85 -67 125.5t-112 40.5h-57v-238h37q93 0 118 97h5v-219h-5q-26 103 -118 103h-37v-251h57q79 0 122.5 42.5t72.5 148.5z" />
    <glyph glyph-name="eogonek.sc" horiz-adv-x="509" 
d="M375 0q-80 -25 -80 -92q0 -56 59 -56q47 0 66 42l4 -2q-21 -102 -105 -102q-42 0 -66.5 22t-24.5 60q0 43 32 77.5t89 50.5h-315v5q33 8 44.5 24.5t11.5 54.5v383q0 35 -11.5 50.5t-44.5 23.5v5h404l15 -185h-5q-23 85 -67 125.5t-112 40.5h-57v-238h37q93 0 118 97h5
v-219h-5q-26 103 -118 103h-37v-251h57q79 0 122.5 42.5t72.5 148.5h5l-21 -210h-73z" />
    <glyph glyph-name="gbreve.sc" horiz-adv-x="604" 
d="M341 586q-47 0 -77.5 29.5t-30.5 84.5h20q2 -32 26 -48t62 -16t62 16t26 48h20q0 -55 -30.5 -84.5t-77.5 -29.5zM321 -14q-130 0 -208 76.5t-78 205.5q0 134 85.5 214.5t229.5 80.5q92 0 177 -37l-35 -164h-6q-9 172 -148 172q-79 0 -122 -62.5t-43 -176.5
q0 -124 47.5 -205.5t122.5 -83.5q46 0 65 24v139q0 42 -17.5 60.5t-68.5 25.5v5h258v-5q-31 -9 -43.5 -25.5t-12.5 -48.5v-138q-82 -57 -203 -57z" />
    <glyph glyph-name="gcircumflex.sc" horiz-adv-x="604" 
d="M215 583l109 117h33l109 -117h-30l-96 67l-96 -67h-29zM321 -14q-130 0 -208 76.5t-78 205.5q0 134 85.5 214.5t229.5 80.5q92 0 177 -37l-35 -164h-6q-9 172 -148 172q-79 0 -122 -62.5t-43 -176.5q0 -124 47.5 -205.5t122.5 -83.5q46 0 65 24v139q0 42 -17.5 60.5
t-68.5 25.5v5h258v-5q-31 -9 -43.5 -25.5t-12.5 -48.5v-138q-82 -57 -203 -57z" />
    <glyph glyph-name="gcommaaccent.sc" horiz-adv-x="604" 
d="M321 -14q-130 0 -208 76.5t-78 205.5q0 134 85.5 214.5t229.5 80.5q92 0 177 -37l-35 -164h-6q-9 172 -148 172q-79 0 -122 -62.5t-43 -176.5q0 -124 47.5 -205.5t122.5 -83.5q46 0 65 24v139q0 42 -17.5 60.5t-68.5 25.5v5h258v-5q-31 -9 -43.5 -25.5t-12.5 -48.5v-138
q-82 -57 -203 -57zM318 -212l-3 14q54 15 54 45q0 23 -36 31q-38 8 -38 42q0 20 12.5 32t33.5 12q25 0 44.5 -23.5t19.5 -53.5q0 -75 -87 -99z" />
    <glyph glyph-name="gdotaccent.sc" horiz-adv-x="604" 
d="M341 589q-25 0 -42.5 17.5t-17.5 42.5t17.5 42.5t42.5 17.5t42.5 -17.5t17.5 -42.5t-17.5 -42.5t-42.5 -17.5zM321 -14q-130 0 -208 76.5t-78 205.5q0 134 85.5 214.5t229.5 80.5q92 0 177 -37l-35 -164h-6q-9 172 -148 172q-79 0 -122 -62.5t-43 -176.5
q0 -124 47.5 -205.5t122.5 -83.5q46 0 65 24v139q0 42 -17.5 60.5t-68.5 25.5v5h258v-5q-31 -9 -43.5 -25.5t-12.5 -48.5v-138q-82 -57 -203 -57z" />
    <glyph glyph-name="hbar.sc" horiz-adv-x="636" 
d="M607 367h-61v-286q0 -36 11.5 -52.5t44.5 -23.5v-5h-234v5q33 8 44.5 24t11.5 52v186h-212v-186q0 -36 11.5 -52t44.5 -24v-5h-234v5q33 7 44.5 23.5t11.5 52.5v286h-63v16h63v82q0 36 -11.5 52t-44.5 24v5h234v-5q-33 -8 -44.5 -24t-11.5 -52v-82h212v82q0 36 -11.5 52
t-44.5 24v5h234v-5q-33 -8 -44.5 -24t-11.5 -52v-82h61v-16zM424 287v80h-212v-80h212z" />
    <glyph glyph-name="hcircumflex.sc" horiz-adv-x="636" 
d="M192 583l109 117h33l109 -117h-30l-96 67l-96 -67h-29zM602 541q-33 -8 -44.5 -24t-11.5 -52v-384q0 -36 11.5 -52.5t44.5 -23.5v-5h-234v5q33 8 44.5 24t11.5 52v186h-212v-186q0 -36 11.5 -52t44.5 -24v-5h-234v5q33 7 44.5 23.5t11.5 52.5v384q0 36 -11.5 52t-44.5 24
v5h234v-5q-33 -8 -44.5 -24t-11.5 -52v-178h212v178q0 36 -11.5 52t-44.5 24v5h234v-5z" />
    <glyph glyph-name="ij.sc" horiz-adv-x="597" 
d="M268 541q-33 -8 -44.5 -24t-11.5 -52v-384q0 -36 11.5 -52.5t44.5 -23.5v-5h-234v5q33 7 44.5 23.5t11.5 52.5v384q0 36 -11.5 52t-44.5 24v5h234v-5zM581 546v-5q-32 -7 -44 -22t-12 -52v-373q0 -73 -39.5 -113.5t-109.5 -40.5q-47 0 -74 22l6 7q15 -12 38 -12
q56 0 56 76v434q0 36 -12.5 51.5t-43.5 22.5v5h235z" />
    <glyph glyph-name="iacute.sc" horiz-adv-x="302" 
d="M164 582h-27l64 118h104v-4zM268 541q-33 -8 -44.5 -24t-11.5 -52v-384q0 -36 11.5 -52.5t44.5 -23.5v-5h-234v5q33 7 44.5 23.5t11.5 52.5v384q0 36 -11.5 52t-44.5 24v5h234v-5z" />
    <glyph glyph-name="ibreve.sc" horiz-adv-x="302" 
d="M151 586q-47 0 -77.5 29.5t-30.5 84.5h20q2 -32 26 -48t62 -16t62 16t26 48h20q0 -55 -30.5 -84.5t-77.5 -29.5zM268 541q-33 -8 -44.5 -24t-11.5 -52v-384q0 -36 11.5 -52.5t44.5 -23.5v-5h-234v5q33 7 44.5 23.5t11.5 52.5v384q0 36 -11.5 52t-44.5 24v5h234v-5z" />
    <glyph glyph-name="icircumflex.sc" horiz-adv-x="302" 
d="M25 583l109 117h33l109 -117h-30l-96 67l-96 -67h-29zM268 541q-33 -8 -44.5 -24t-11.5 -52v-384q0 -36 11.5 -52.5t44.5 -23.5v-5h-234v5q33 7 44.5 23.5t11.5 52.5v384q0 36 -11.5 52t-44.5 24v5h234v-5z" />
    <glyph glyph-name="idieresis.sc" horiz-adv-x="302" 
d="M61 590q-25 0 -41.5 16.5t-16.5 41.5t16.5 41.5t41.5 16.5t41 -16.5t16 -41.5t-16 -41.5t-41 -16.5zM242 590q-25 0 -41.5 16.5t-16.5 41.5t16.5 41.5t41.5 16.5t41 -16.5t16 -41.5t-16 -41.5t-41 -16.5zM268 541q-33 -8 -44.5 -24t-11.5 -52v-384q0 -36 11.5 -52.5
t44.5 -23.5v-5h-234v5q33 7 44.5 23.5t11.5 52.5v384q0 36 -11.5 52t-44.5 24v5h234v-5z" />
    <glyph glyph-name="i.sc.loclTRK" horiz-adv-x="302" 
d="M151 589q-25 0 -42.5 17.5t-17.5 42.5t17.5 42.5t42.5 17.5t42.5 -17.5t17.5 -42.5t-17.5 -42.5t-42.5 -17.5zM268 541q-33 -8 -44.5 -24t-11.5 -52v-384q0 -36 11.5 -52.5t44.5 -23.5v-5h-234v5q33 7 44.5 23.5t11.5 52.5v384q0 36 -11.5 52t-44.5 24v5h234v-5z" />
    <glyph glyph-name="igrave.sc" horiz-adv-x="302" 
d="M138 582l-141 114v4h104l64 -118h-27zM268 541q-33 -8 -44.5 -24t-11.5 -52v-384q0 -36 11.5 -52.5t44.5 -23.5v-5h-234v5q33 7 44.5 23.5t11.5 52.5v384q0 36 -11.5 52t-44.5 24v5h234v-5z" />
    <glyph glyph-name="imacron.sc" horiz-adv-x="302" 
d="M18 624v28h265v-28h-265zM268 541q-33 -8 -44.5 -24t-11.5 -52v-384q0 -36 11.5 -52.5t44.5 -23.5v-5h-234v5q33 7 44.5 23.5t11.5 52.5v384q0 36 -11.5 52t-44.5 24v5h234v-5z" />
    <glyph glyph-name="iogonek.sc" horiz-adv-x="302" 
d="M268 541q-33 -8 -44.5 -24t-11.5 -52v-384q0 -36 11.5 -52.5t44.5 -23.5v-5h-83q-80 -25 -80 -92q0 -56 59 -56q47 0 66 42l4 -2q-21 -102 -105 -102q-42 0 -66.5 22t-24.5 60q0 43 32 77.5t89 50.5h-125v5q33 7 44.5 23.5t11.5 52.5v384q0 36 -11.5 52t-44.5 24v5h234
v-5z" />
    <glyph glyph-name="itilde.sc" horiz-adv-x="302" 
d="M199 602q-26 0 -59.5 19t-55.5 19q-47 0 -60 -41h-6q4 48 26.5 71.5t58.5 23.5q26 0 60 -19t56 -19q46 0 60 40h5q-7 -94 -85 -94zM268 541q-33 -8 -44.5 -24t-11.5 -52v-384q0 -36 11.5 -52.5t44.5 -23.5v-5h-234v5q33 7 44.5 23.5t11.5 52.5v384q0 36 -11.5 52
t-44.5 24v5h234v-5z" />
    <glyph glyph-name="jcircumflex.sc" horiz-adv-x="295" 
d="M36 583l109 117h33l109 -117h-30l-96 67l-96 -67h-29zM279 546v-5q-32 -7 -44 -22t-12 -52v-373q0 -73 -39.5 -113.5t-109.5 -40.5q-47 0 -74 22l6 7q15 -12 38 -12q56 0 56 76v434q0 36 -12.5 51.5t-43.5 22.5v5h235z" />
    <glyph glyph-name="kcommaaccent.sc" horiz-adv-x="622" 
d="M268 541q-31 -7 -43.5 -23.5t-12.5 -50.5v-383q0 -38 13 -55.5t43 -23.5v-5h-234v5q33 8 44.5 24.5t11.5 54.5v383q0 34 -11.5 50t-44.5 24v5h234v-5zM417 0l-205 279l167 157q44 42 44 63q0 35 -62 42v5h205v-5q-39 -8 -68.5 -27t-67.5 -55l-119 -112l208 -270
q31 -41 46 -54t41 -18v-5h-189zM288 -212l-3 14q54 15 54 45q0 23 -36 31q-38 8 -38 42q0 20 12.5 32t33.5 12q25 0 44.5 -23.5t19.5 -53.5q0 -75 -87 -99z" />
    <glyph glyph-name="lacute.sc" horiz-adv-x="472" 
d="M168 582h-27l64 118h104v-4zM439 222h6l-23 -222h-388v5q32 7 44 23.5t12 55.5v383q0 37 -12.5 52t-43.5 22v5h234v-5q-31 -7 -43.5 -22t-12.5 -52v-448h35q74 0 120.5 48t71.5 155z" />
    <glyph glyph-name="lcaron.sc" horiz-adv-x="472" 
d="M138 583l-109 117h29l96 -67l96 67h30l-109 -117h-33zM439 222h6l-23 -222h-388v5q32 7 44 23.5t12 55.5v383q0 37 -12.5 52t-43.5 22v5h234v-5q-31 -7 -43.5 -22t-12.5 -52v-448h35q74 0 120.5 48t71.5 155z" />
    <glyph glyph-name="lcommaaccent.sc" horiz-adv-x="472" 
d="M439 222h6l-23 -222h-388v5q32 7 44 23.5t12 55.5v383q0 37 -12.5 52t-43.5 22v5h234v-5q-31 -7 -43.5 -22t-12.5 -52v-448h35q74 0 120.5 48t71.5 155zM213 -212l-3 14q54 15 54 45q0 23 -36 31q-38 8 -38 42q0 20 12.5 32t33.5 12q25 0 44.5 -23.5t19.5 -53.5
q0 -75 -87 -99z" />
    <glyph glyph-name="ldot.sc" horiz-adv-x="472" 
d="M439 222h6l-23 -222h-388v5q32 7 44 23.5t12 55.5v383q0 37 -12.5 52t-43.5 22v5h234v-5q-31 -7 -43.5 -22t-12.5 -52v-448h35q74 0 120.5 48t71.5 155zM339 259q-28 0 -46.5 18.5t-18.5 45.5t18.5 46t46.5 19q27 0 46 -19t19 -46q0 -26 -19 -45t-46 -19z" />
    <glyph glyph-name="lslash.sc" horiz-adv-x="472" 
d="M439 222h6l-23 -222h-388v5q32 7 44 23.5t12 55.5v120l-57 -35v19l57 35v244q0 37 -12.5 52t-43.5 22v5h234v-5q-31 -7 -43.5 -22t-12.5 -52v-170l175 106v-19l-175 -106v-259h35q74 0 120.5 48t71.5 155z" />
    <glyph glyph-name="nacute.sc" horiz-adv-x="621" 
d="M499 696l-141 -114h-27l64 118h104v-4zM434 546h165v-5q-37 -6 -52 -26t-15 -60v-468h-3l-395 465v-357q0 -43 16 -62.5t59 -27.5v-5h-171v5q42 7 57 26.5t15 63.5v384q-37 41 -76 62v5h181l293 -338v247q0 38 -14 57.5t-60 28.5v5z" />
    <glyph glyph-name="ncaron.sc" horiz-adv-x="621" 
d="M361 583h-33l-109 117h29l96 -67l96 67h30zM434 546h165v-5q-37 -6 -52 -26t-15 -60v-468h-3l-395 465v-357q0 -43 16 -62.5t59 -27.5v-5h-171v5q42 7 57 26.5t15 63.5v384q-37 41 -76 62v5h181l293 -338v247q0 38 -14 57.5t-60 28.5v5z" />
    <glyph glyph-name="ncommaaccent.sc" horiz-adv-x="621" 
d="M434 546h165v-5q-37 -6 -52 -26t-15 -60v-468h-3l-395 465v-357q0 -43 16 -62.5t59 -27.5v-5h-171v5q42 7 57 26.5t15 63.5v384q-37 41 -76 62v5h181l293 -338v247q0 38 -14 57.5t-60 28.5v5zM313 -36q25 0 44.5 -23.5t19.5 -53.5q0 -75 -87 -99l-3 14q54 15 54 45
q0 23 -36 31q-38 8 -38 42q0 20 12.5 32t33.5 12z" />
    <glyph glyph-name="eng.sc" horiz-adv-x="621" 
d="M434 546h165v-5q-37 -6 -52 -26t-15 -60v-496q0 -89 -39.5 -131.5t-101.5 -42.5q-68 0 -110 31l4 5q27 -12 57 -12q34 0 53 25t19 68v216l-280 333v-356q0 -43 16 -62.5t59 -27.5v-5h-171v5q42 7 57 26.5t15 63.5v384q-42 46 -76 62v5h181l293 -338v247q0 38 -14 57.5
t-60 28.5v5z" />
    <glyph glyph-name="ntilde.sc" horiz-adv-x="621" 
d="M278 640q-47 0 -60 -41h-6q4 48 26.5 71.5t58.5 23.5q26 0 60 -19t56 -19q46 0 60 40h5q-7 -94 -85 -94q-26 0 -59.5 19t-55.5 19zM434 546h165v-5q-37 -6 -52 -26t-15 -60v-468h-3l-395 465v-357q0 -43 16 -62.5t59 -27.5v-5h-171v5q42 7 57 26.5t15 63.5v384
q-37 41 -76 62v5h181l293 -338v247q0 38 -14 57.5t-60 28.5v5z" />
    <glyph glyph-name="oacute.sc" horiz-adv-x="645" 
d="M336 582h-27l64 118h104v-4zM323 -15q-127 0 -207.5 80.5t-80.5 207.5t80.5 207.5t207.5 80.5t207 -80.5t80 -207.5t-80 -207.5t-207 -80.5zM323 10q150 0 150 263q0 134 -37 198t-113 64q-77 0 -113.5 -63.5t-36.5 -198.5q0 -263 150 -263z" />
    <glyph glyph-name="obreve.sc" horiz-adv-x="645" 
d="M323 586q-47 0 -77.5 29.5t-30.5 84.5h20q2 -32 26 -48t62 -16t62 16t26 48h20q0 -55 -30.5 -84.5t-77.5 -29.5zM323 -15q-127 0 -207.5 80.5t-80.5 207.5t80.5 207.5t207.5 80.5t207 -80.5t80 -207.5t-80 -207.5t-207 -80.5zM323 10q150 0 150 263q0 134 -37 198
t-113 64q-77 0 -113.5 -63.5t-36.5 -198.5q0 -263 150 -263z" />
    <glyph glyph-name="ocircumflex.sc" horiz-adv-x="645" 
d="M197 583l109 117h33l109 -117h-30l-96 67l-96 -67h-29zM323 -15q-127 0 -207.5 80.5t-80.5 207.5t80.5 207.5t207.5 80.5t207 -80.5t80 -207.5t-80 -207.5t-207 -80.5zM323 10q150 0 150 263q0 134 -37 198t-113 64q-77 0 -113.5 -63.5t-36.5 -198.5q0 -263 150 -263z
" />
    <glyph glyph-name="odieresis.sc" horiz-adv-x="645" 
d="M233 590q-25 0 -41.5 16.5t-16.5 41.5t16.5 41.5t41.5 16.5t41 -16.5t16 -41.5t-16 -41.5t-41 -16.5zM414 590q-25 0 -41.5 16.5t-16.5 41.5t16.5 41.5t41.5 16.5t41 -16.5t16 -41.5t-16 -41.5t-41 -16.5zM323 -15q-127 0 -207.5 80.5t-80.5 207.5t80.5 207.5t207.5 80.5
t207 -80.5t80 -207.5t-80 -207.5t-207 -80.5zM323 10q150 0 150 263q0 134 -37 198t-113 64q-77 0 -113.5 -63.5t-36.5 -198.5q0 -263 150 -263z" />
    <glyph glyph-name="ograve.sc" horiz-adv-x="645" 
d="M310 582l-141 114v4h104l64 -118h-27zM323 -15q-127 0 -207.5 80.5t-80.5 207.5t80.5 207.5t207.5 80.5t207 -80.5t80 -207.5t-80 -207.5t-207 -80.5zM323 10q150 0 150 263q0 134 -37 198t-113 64q-77 0 -113.5 -63.5t-36.5 -198.5q0 -263 150 -263z" />
    <glyph glyph-name="ohungarumlaut.sc" horiz-adv-x="645" 
d="M263 590l73 110h73v-5l-140 -105h-6zM383 590l82 110h76v-5l-151 -105h-7zM323 -15q-127 0 -207.5 80.5t-80.5 207.5t80.5 207.5t207.5 80.5t207 -80.5t80 -207.5t-80 -207.5t-207 -80.5zM323 10q150 0 150 263q0 134 -37 198t-113 64q-77 0 -113.5 -63.5t-36.5 -198.5
q0 -263 150 -263z" />
    <glyph glyph-name="omacron.sc" horiz-adv-x="645" 
d="M190 624v28h265v-28h-265zM323 -15q-127 0 -207.5 80.5t-80.5 207.5t80.5 207.5t207.5 80.5t207 -80.5t80 -207.5t-80 -207.5t-207 -80.5zM323 10q150 0 150 263q0 134 -37 198t-113 64q-77 0 -113.5 -63.5t-36.5 -198.5q0 -263 150 -263z" />
    <glyph glyph-name="oslash.sc" horiz-adv-x="645" 
d="M518 492q92 -81 92 -219q0 -127 -80 -207.5t-207 -80.5q-101 0 -176 53l-43 -53h-29l55 67q-95 81 -95 221q0 127 80.5 207.5t207.5 80.5q103 0 177 -55l47 58h30zM173 273q0 -88 17 -147l259 318q-35 91 -126 91q-77 0 -113.5 -63.5t-36.5 -198.5zM323 10q150 0 150 263
q0 88 -16 145l-259 -318q35 -90 125 -90z" />
    <glyph glyph-name="oslashacute.sc" horiz-adv-x="645" 
d="M477 696l-141 -114h-27l64 118h104v-4zM518 492q92 -81 92 -219q0 -127 -80 -207.5t-207 -80.5q-101 0 -176 53l-43 -53h-29l55 67q-95 81 -95 221q0 127 80.5 207.5t207.5 80.5q103 0 177 -55l47 58h30zM173 273q0 -88 17 -147l259 318q-35 91 -126 91
q-77 0 -113.5 -63.5t-36.5 -198.5zM323 10q150 0 150 263q0 88 -16 145l-259 -318q35 -90 125 -90z" />
    <glyph glyph-name="otilde.sc" horiz-adv-x="645" 
d="M371 602q-26 0 -59.5 19t-55.5 19q-47 0 -60 -41h-6q4 48 26.5 71.5t58.5 23.5q26 0 60 -19t56 -19q46 0 60 40h5q-7 -94 -85 -94zM323 -15q-127 0 -207.5 80.5t-80.5 207.5t80.5 207.5t207.5 80.5t207 -80.5t80 -207.5t-80 -207.5t-207 -80.5zM323 10q150 0 150 263
q0 134 -37 198t-113 64q-77 0 -113.5 -63.5t-36.5 -198.5q0 -263 150 -263z" />
    <glyph glyph-name="oe.sc" horiz-adv-x="779" 
d="M736 210h2l-20 -210h-392q-128 0 -209.5 76t-81.5 197t81.5 197t209.5 76h378l19 -185h-4q-21 74 -73 119q-52 47 -129 49h-27v-244h28q102 0 125 97h4v-218h-4q-23 104 -125 104h-28v-251h26q90 1 140 47q49 46 80 146zM375 17v512h-25q-88 0 -133 -65t-45 -191
q0 -256 178 -256h25z" />
    <glyph glyph-name="thorn.sc" horiz-adv-x="502" 
d="M245 125h-33v-44q0 -36 11.5 -52.5t44.5 -23.5v-5h-234v5q33 7 44.5 23.5t11.5 52.5v384q0 36 -11.5 52t-44.5 24v5h234v-5q-33 -8 -44.5 -24t-11.5 -52v-29h33q113 0 172.5 -40t59.5 -116q0 -75 -59.5 -115t-172.5 -40zM221 418h-9v-276h9q59 0 91.5 36.5t32.5 101.5
t-32.5 101.5t-91.5 36.5z" />
    <glyph glyph-name="racute.sc" horiz-adv-x="597" 
d="M453 696l-141 -114h-27l64 118h104v-4zM511 74q26 -61 72 -68v-6h-169q-12 19 -36 78l-44 112q-18 44 -35 60.5t-54 16.5h-33v-183q0 -67 56 -79v-5h-234v5q32 7 44 23.5t12 55.5v383q0 37 -12.5 52t-43.5 22v5h233q221 0 221 -134q0 -58 -53.5 -95.5t-127.5 -37.5v-5
q57 1 99.5 -23t61.5 -71zM241 283q112 0 112 127q0 59 -24.5 88t-79.5 29h-37v-244h29z" />
    <glyph glyph-name="rcaron.sc" horiz-adv-x="597" 
d="M315 583h-33l-109 117h29l96 -67l96 67h30zM511 74q26 -61 72 -68v-6h-169q-12 19 -36 78l-44 112q-18 44 -35 60.5t-54 16.5h-33v-183q0 -67 56 -79v-5h-234v5q32 7 44 23.5t12 55.5v383q0 37 -12.5 52t-43.5 22v5h233q221 0 221 -134q0 -58 -53.5 -95.5t-127.5 -37.5
v-5q57 1 99.5 -23t61.5 -71zM241 283q112 0 112 127q0 59 -24.5 88t-79.5 29h-37v-244h29z" />
    <glyph glyph-name="rcommaaccent.sc" horiz-adv-x="597" 
d="M511 74q26 -61 72 -68v-6h-169q-12 19 -36 78l-44 112q-18 44 -35 60.5t-54 16.5h-33v-183q0 -67 56 -79v-5h-234v5q32 7 44 23.5t12 55.5v383q0 37 -12.5 52t-43.5 22v5h233q221 0 221 -134q0 -58 -53.5 -95.5t-127.5 -37.5v-5q57 1 99.5 -23t61.5 -71zM241 283
q112 0 112 127q0 59 -24.5 88t-79.5 29h-37v-244h29zM299 -36q25 0 44.5 -23.5t19.5 -53.5q0 -75 -87 -99l-3 14q54 15 54 45q0 23 -36 31q-38 8 -38 42q0 20 12.5 32t33.5 12z" />
    <glyph glyph-name="sacute.sc" horiz-adv-x="466" 
d="M252 582h-27l64 118h104v-4zM229 -13q-111 0 -197 45l30 154h5q13 -79 64 -125t123 -46q46 0 73 22.5t27 60.5q0 31 -17.5 51.5t-59.5 38.5l-110 49q-122 54 -122 160q0 75 55 119.5t147 44.5q99 0 180 -43l-34 -140h-5q-15 75 -59 115.5t-109 40.5q-45 0 -72 -20
t-27 -54q0 -28 17.5 -47.5t61.5 -38.5l117 -53q60 -27 87.5 -63.5t27.5 -90.5q0 -80 -56.5 -130t-146.5 -50z" />
    <glyph glyph-name="scaron.sc" horiz-adv-x="466" 
d="M222 583l-109 117h29l96 -67l96 67h30l-109 -117h-33zM229 -13q-111 0 -197 45l30 154h5q13 -79 64 -125t123 -46q46 0 73 22.5t27 60.5q0 31 -17.5 51.5t-59.5 38.5l-110 49q-122 54 -122 160q0 75 55 119.5t147 44.5q99 0 180 -43l-34 -140h-5q-15 75 -59 115.5
t-109 40.5q-45 0 -72 -20t-27 -54q0 -28 17.5 -47.5t61.5 -38.5l117 -53q60 -27 87.5 -63.5t27.5 -90.5q0 -80 -56.5 -130t-146.5 -50z" />
    <glyph glyph-name="scedilla.sc" horiz-adv-x="466" 
d="M432 167q0 -79 -55 -128.5t-144 -51.5l-32 -50q11 9 33 9q32 0 53.5 -20.5t21.5 -56.5q0 -37 -24 -60.5t-60 -23.5q-31 0 -51.5 17t-26.5 46l8 4q16 -32 50 -32q21 0 34.5 14t13.5 37q0 21 -12 33t-30 12t-30 -9l-10 5l45 75q-103 3 -184 45l30 154h5q13 -79 64 -125
t123 -46q46 0 73 22.5t27 60.5q0 31 -17.5 51.5t-59.5 38.5l-110 49q-122 54 -122 160q0 75 55 119.5t147 44.5q99 0 180 -43l-34 -140h-5q-15 75 -59 115.5t-109 40.5q-45 0 -72 -20t-27 -54q0 -28 17.5 -47.5t61.5 -38.5l117 -53q60 -27 87.5 -63.5t27.5 -90.5z" />
    <glyph glyph-name="scircumflex.sc" horiz-adv-x="466" 
d="M113 583l109 117h33l109 -117h-30l-96 67l-96 -67h-29zM229 -13q-111 0 -197 45l30 154h5q13 -79 64 -125t123 -46q46 0 73 22.5t27 60.5q0 31 -17.5 51.5t-59.5 38.5l-110 49q-122 54 -122 160q0 75 55 119.5t147 44.5q99 0 180 -43l-34 -140h-5q-15 75 -59 115.5
t-109 40.5q-45 0 -72 -20t-27 -54q0 -28 17.5 -47.5t61.5 -38.5l117 -53q60 -27 87.5 -63.5t27.5 -90.5q0 -80 -56.5 -130t-146.5 -50z" />
    <glyph glyph-name="scommaaccent.sc" horiz-adv-x="466" 
d="M229 -13q-111 0 -197 45l30 154h5q13 -79 64 -125t123 -46q46 0 73 22.5t27 60.5q0 31 -17.5 51.5t-59.5 38.5l-110 49q-122 54 -122 160q0 75 55 119.5t147 44.5q99 0 180 -43l-34 -140h-5q-15 75 -59 115.5t-109 40.5q-45 0 -72 -20t-27 -54q0 -28 17.5 -47.5
t61.5 -38.5l117 -53q60 -27 87.5 -63.5t27.5 -90.5q0 -80 -56.5 -130t-146.5 -50zM210 -212l-3 14q54 15 54 45q0 23 -36 31q-38 8 -38 42q0 20 12.5 32t33.5 12q25 0 44.5 -23.5t19.5 -53.5q0 -75 -87 -99z" />
    <glyph glyph-name="tbar.sc" horiz-adv-x="499" 
d="M474 566h4v-210h-5q-11 80 -46 123t-91 43h-25v-223h126v-15h-126v-199q0 -41 17 -58t64 -22v-5h-285v5q46 4 63.5 21.5t17.5 58.5v199h-123v15h123v223h-25q-53 0 -89.5 -41.5t-47.5 -124.5h-5v210h4q19 -20 66 -20h317q47 0 66 20z" />
    <glyph glyph-name="tcaron.sc" horiz-adv-x="499" 
d="M233 583l-109 117h29l96 -67l96 67h30l-109 -117h-33zM474 566h4v-210h-5q-11 80 -46 123t-91 43h-25v-437q0 -41 17 -58t64 -22v-5h-285v5q46 4 63.5 21.5t17.5 58.5v437h-25q-53 0 -89.5 -41.5t-47.5 -124.5h-5v210h4q19 -20 66 -20h317q47 0 66 20z" />
    <glyph glyph-name="uni0163.sc" horiz-adv-x="499" 
d="M474 566h4v-210h-5q-11 80 -46 123t-91 43h-25v-437q0 -41 17 -58t64 -22v-5h-134l-40 -63q10 9 33 9q32 0 53.5 -20.5t21.5 -56.5q0 -37 -24 -60.5t-60 -23.5q-31 0 -51.5 17t-26.5 46l8 4q16 -32 50 -32q21 0 34.5 14t13.5 37q0 21 -12 33t-30 12t-30 -9l-10 5l53 88
h-134v5q46 4 63.5 21.5t17.5 58.5v437h-25q-53 0 -89.5 -41.5t-47.5 -124.5h-5v210h4q19 -20 66 -20h317q47 0 66 20z" />
    <glyph glyph-name="uni021B.sc" horiz-adv-x="499" 
d="M474 566h4v-210h-5q-11 80 -46 123t-91 43h-25v-437q0 -41 17 -58t64 -22v-5h-285v5q46 4 63.5 21.5t17.5 58.5v437h-25q-53 0 -89.5 -41.5t-47.5 -124.5h-5v210h4q19 -20 66 -20h317q47 0 66 20zM227 -212l-3 14q54 15 54 45q0 23 -36 31q-38 8 -38 42q0 20 12.5 32
t33.5 12q25 0 44.5 -23.5t19.5 -53.5q0 -75 -87 -99z" />
    <glyph glyph-name="uacute.sc" horiz-adv-x="570" 
d="M322 582h-27l64 118h104v-4zM555 546v-5q-33 -8 -46.5 -26t-13.5 -57v-249q0 -110 -51.5 -167t-152.5 -57q-106 0 -162.5 57t-56.5 166v259q0 34 -11.5 50t-44.5 24v5h245v-5q-38 -9 -51.5 -26t-13.5 -55v-251q0 -84 35 -128t102 -44q137 0 137 174v240q0 41 -17.5 61
t-59.5 29v5h162z" />
    <glyph glyph-name="ubreve.sc" horiz-adv-x="570" 
d="M309 586q-47 0 -77.5 29.5t-30.5 84.5h20q2 -32 26 -48t62 -16t62 16t26 48h20q0 -55 -30.5 -84.5t-77.5 -29.5zM555 546v-5q-33 -8 -46.5 -26t-13.5 -57v-249q0 -110 -51.5 -167t-152.5 -57q-106 0 -162.5 57t-56.5 166v259q0 34 -11.5 50t-44.5 24v5h245v-5
q-38 -9 -51.5 -26t-13.5 -55v-251q0 -84 35 -128t102 -44q137 0 137 174v240q0 41 -17.5 61t-59.5 29v5h162z" />
    <glyph glyph-name="ucircumflex.sc" horiz-adv-x="570" 
d="M183 583l109 117h33l109 -117h-30l-96 67l-96 -67h-29zM555 546v-5q-33 -8 -46.5 -26t-13.5 -57v-249q0 -110 -51.5 -167t-152.5 -57q-106 0 -162.5 57t-56.5 166v259q0 34 -11.5 50t-44.5 24v5h245v-5q-38 -9 -51.5 -26t-13.5 -55v-251q0 -84 35 -128t102 -44
q137 0 137 174v240q0 41 -17.5 61t-59.5 29v5h162z" />
    <glyph glyph-name="udieresis.sc" horiz-adv-x="570" 
d="M219 590q-25 0 -41.5 16.5t-16.5 41.5t16.5 41.5t41.5 16.5t41 -16.5t16 -41.5t-16 -41.5t-41 -16.5zM400 590q-25 0 -41.5 16.5t-16.5 41.5t16.5 41.5t41.5 16.5t41 -16.5t16 -41.5t-16 -41.5t-41 -16.5zM555 546v-5q-33 -8 -46.5 -26t-13.5 -57v-249q0 -110 -51.5 -167
t-152.5 -57q-106 0 -162.5 57t-56.5 166v259q0 34 -11.5 50t-44.5 24v5h245v-5q-38 -9 -51.5 -26t-13.5 -55v-251q0 -84 35 -128t102 -44q137 0 137 174v240q0 41 -17.5 61t-59.5 29v5h162z" />
    <glyph glyph-name="ugrave.sc" horiz-adv-x="570" 
d="M296 582l-141 114v4h104l64 -118h-27zM555 546v-5q-33 -8 -46.5 -26t-13.5 -57v-249q0 -110 -51.5 -167t-152.5 -57q-106 0 -162.5 57t-56.5 166v259q0 34 -11.5 50t-44.5 24v5h245v-5q-38 -9 -51.5 -26t-13.5 -55v-251q0 -84 35 -128t102 -44q137 0 137 174v240
q0 41 -17.5 61t-59.5 29v5h162z" />
    <glyph glyph-name="uhungarumlaut.sc" horiz-adv-x="570" 
d="M249 590l73 110h73v-5l-140 -105h-6zM369 590l82 110h76v-5l-151 -105h-7zM555 546v-5q-33 -8 -46.5 -26t-13.5 -57v-249q0 -110 -51.5 -167t-152.5 -57q-106 0 -162.5 57t-56.5 166v259q0 34 -11.5 50t-44.5 24v5h245v-5q-38 -9 -51.5 -26t-13.5 -55v-251q0 -84 35 -128
t102 -44q137 0 137 174v240q0 41 -17.5 61t-59.5 29v5h162z" />
    <glyph glyph-name="umacron.sc" horiz-adv-x="570" 
d="M176 624v28h265v-28h-265zM555 546v-5q-33 -8 -46.5 -26t-13.5 -57v-249q0 -110 -51.5 -167t-152.5 -57q-106 0 -162.5 57t-56.5 166v259q0 34 -11.5 50t-44.5 24v5h245v-5q-38 -9 -51.5 -26t-13.5 -55v-251q0 -84 35 -128t102 -44q137 0 137 174v240q0 41 -17.5 61
t-59.5 29v5h162z" />
    <glyph glyph-name="uogonek.sc" horiz-adv-x="570" 
d="M393 546h162v-5q-33 -8 -46.5 -26t-13.5 -57v-249q0 -175 -127 -213q-67 -28 -67 -88q0 -56 59 -56q47 0 66 42l4 -2q-21 -102 -105 -102q-42 0 -66.5 22t-24.5 60q0 74 83 114q-8 -1 -26 -1q-106 0 -162.5 57t-56.5 166v259q0 34 -11.5 50t-44.5 24v5h245v-5
q-38 -9 -51.5 -26t-13.5 -55v-251q0 -84 35 -128t102 -44q137 0 137 174v240q0 41 -17.5 61t-59.5 29v5z" />
    <glyph glyph-name="uring.sc" horiz-adv-x="570" 
d="M309 560q-37 0 -60.5 23t-23.5 59q0 37 23.5 60t60.5 23q36 0 59.5 -23t23.5 -60q0 -36 -23.5 -59t-59.5 -23zM309 580q26 0 43 17t17 45q0 29 -17 46t-43 17q-27 0 -44 -17t-17 -46q0 -28 17 -45t44 -17zM555 546v-5q-33 -8 -46.5 -26t-13.5 -57v-249q0 -110 -51.5 -167
t-152.5 -57q-106 0 -162.5 57t-56.5 166v259q0 34 -11.5 50t-44.5 24v5h245v-5q-38 -9 -51.5 -26t-13.5 -55v-251q0 -84 35 -128t102 -44q137 0 137 174v240q0 41 -17.5 61t-59.5 29v5h162z" />
    <glyph glyph-name="utilde.sc" horiz-adv-x="570" 
d="M357 602q-26 0 -59.5 19t-55.5 19q-47 0 -60 -41h-6q4 48 26.5 71.5t58.5 23.5q26 0 60 -19t56 -19q46 0 60 40h5q-7 -94 -85 -94zM555 546v-5q-33 -8 -46.5 -26t-13.5 -57v-249q0 -110 -51.5 -167t-152.5 -57q-106 0 -162.5 57t-56.5 166v259q0 34 -11.5 50t-44.5 24v5
h245v-5q-38 -9 -51.5 -26t-13.5 -55v-251q0 -84 35 -128t102 -44q137 0 137 174v240q0 41 -17.5 61t-59.5 29v5h162z" />
    <glyph glyph-name="wacute.sc" horiz-adv-x="820" 
d="M554 696l-141 -114h-27l64 118h104v-4zM660 546h146v-5q-29 -5 -45 -24.5t-34 -66.5l-178 -458h-3l-137 343l-133 -343h-3l-186 466q-16 41 -31 60t-42 23v5h239v-5q-40 -6 -40 -40q0 -24 12 -53l102 -264l70 181l-39 97q-9 24 -14 34t-16 22.5t-27 22.5v5h238v-5
q-53 -6 -53 -48q0 -16 9 -37l105 -271l101 263q9 24 9 43q0 44 -50 50v5z" />
    <glyph glyph-name="wcircumflex.sc" horiz-adv-x="820" 
d="M399 650l-96 -67h-29l109 117h33l109 -117h-30zM660 546h146v-5q-29 -5 -45 -24.5t-34 -66.5l-178 -458h-3l-137 343l-133 -343h-3l-186 466q-16 41 -31 60t-42 23v5h239v-5q-40 -6 -40 -40q0 -24 12 -53l102 -264l70 181l-39 97q-9 24 -14 34t-16 22.5t-27 22.5v5h238
v-5q-53 -6 -53 -48q0 -16 9 -37l105 -271l101 263q9 24 9 43q0 44 -50 50v5z" />
    <glyph glyph-name="wdieresis.sc" horiz-adv-x="820" 
d="M310 590q-25 0 -41.5 16.5t-16.5 41.5t16.5 41.5t41.5 16.5t41 -16.5t16 -41.5t-16 -41.5t-41 -16.5zM491 590q-25 0 -41.5 16.5t-16.5 41.5t16.5 41.5t41.5 16.5t41 -16.5t16 -41.5t-16 -41.5t-41 -16.5zM660 546h146v-5q-29 -5 -45 -24.5t-34 -66.5l-178 -458h-3
l-137 343l-133 -343h-3l-186 466q-16 41 -31 60t-42 23v5h239v-5q-40 -6 -40 -40q0 -24 12 -53l102 -264l70 181l-39 97q-9 24 -14 34t-16 22.5t-27 22.5v5h238v-5q-53 -6 -53 -48q0 -16 9 -37l105 -271l101 263q9 24 9 43q0 44 -50 50v5z" />
    <glyph glyph-name="wgrave.sc" horiz-adv-x="820" 
d="M414 582h-27l-141 114v4h104zM660 546h146v-5q-29 -5 -45 -24.5t-34 -66.5l-178 -458h-3l-137 343l-133 -343h-3l-186 466q-16 41 -31 60t-42 23v5h239v-5q-40 -6 -40 -40q0 -24 12 -53l102 -264l70 181l-39 97q-9 24 -14 34t-16 22.5t-27 22.5v5h238v-5q-53 -6 -53 -48
q0 -16 9 -37l105 -271l101 263q9 24 9 43q0 44 -50 50v5z" />
    <glyph glyph-name="yacute.sc" horiz-adv-x="555" 
d="M290 582h-27l64 118h104v-4zM385 546h154v-5q-46 -6 -88 -83l-114 -201v-172q0 -41 18.5 -58t63.5 -22v-5h-285v5q46 5 63.5 22t17.5 58v168l-117 214q-39 70 -82 74v5h249v-5q-51 -8 -51 -47q0 -20 15 -45l96 -170l95 165q16 29 16 49q0 40 -51 48v5z" />
    <glyph glyph-name="ycircumflex.sc" horiz-adv-x="555" 
d="M151 583l109 117h33l109 -117h-30l-96 67l-96 -67h-29zM385 546h154v-5q-46 -6 -88 -83l-114 -201v-172q0 -41 18.5 -58t63.5 -22v-5h-285v5q46 5 63.5 22t17.5 58v168l-117 214q-39 70 -82 74v5h249v-5q-51 -8 -51 -47q0 -20 15 -45l96 -170l95 165q16 29 16 49
q0 40 -51 48v5z" />
    <glyph glyph-name="ydieresis.sc" horiz-adv-x="555" 
d="M187 590q-25 0 -41.5 16.5t-16.5 41.5t16.5 41.5t41.5 16.5t41 -16.5t16 -41.5t-16 -41.5t-41 -16.5zM368 590q-25 0 -41.5 16.5t-16.5 41.5t16.5 41.5t41.5 16.5t41 -16.5t16 -41.5t-16 -41.5t-41 -16.5zM385 546h154v-5q-46 -6 -88 -83l-114 -201v-172q0 -41 18.5 -58
t63.5 -22v-5h-285v5q46 5 63.5 22t17.5 58v168l-117 214q-39 70 -82 74v5h249v-5q-51 -8 -51 -47q0 -20 15 -45l96 -170l95 165q16 29 16 49q0 40 -51 48v5z" />
    <glyph glyph-name="ygrave.sc" horiz-adv-x="555" 
d="M264 582l-141 114v4h104l64 -118h-27zM385 546h154v-5q-46 -6 -88 -83l-114 -201v-172q0 -41 18.5 -58t63.5 -22v-5h-285v5q46 5 63.5 22t17.5 58v168l-117 214q-39 70 -82 74v5h249v-5q-51 -8 -51 -47q0 -20 15 -45l96 -170l95 165q16 29 16 49q0 40 -51 48v5z" />
    <glyph glyph-name="zacute.sc" horiz-adv-x="513" 
d="M278 582h-27l64 118h104v-4zM27 0v4l312 522h-70q-92 0 -137.5 -45t-76.5 -146h-5l22 211h410v-4l-309 -522h77q173 0 226 199h5l-24 -219h-430z" />
    <glyph glyph-name="zcaron.sc" horiz-adv-x="513" 
d="M248 583l-109 117h29l96 -67l96 67h30l-109 -117h-33zM27 0v4l312 522h-70q-92 0 -137.5 -45t-76.5 -146h-5l22 211h410v-4l-309 -522h77q173 0 226 199h5l-24 -219h-430z" />
    <glyph glyph-name="zdotaccent.sc" horiz-adv-x="513" 
d="M265 589q-25 0 -42.5 17.5t-17.5 42.5t17.5 42.5t42.5 17.5t42.5 -17.5t17.5 -42.5t-17.5 -42.5t-42.5 -17.5zM27 0v4l312 522h-70q-92 0 -137.5 -45t-76.5 -146h-5l22 211h410v-4l-309 -522h77q173 0 226 199h5l-24 -219h-430z" />
    <glyph glyph-name="germandbls.sc" horiz-adv-x="938" 
d="M229 -13q-111 0 -197 45l30 154h5q13 -79 64 -125t123 -46q46 0 73 22.5t27 60.5q0 31 -17.5 51.5t-59.5 38.5l-110 49q-122 54 -122 160q0 75 55 119.5t147 44.5q99 0 180 -43l-34 -140h-5q-15 75 -59 115.5t-109 40.5q-45 0 -72 -20t-27 -54q0 -28 17.5 -47.5
t61.5 -38.5l117 -53q60 -27 87.5 -63.5t27.5 -90.5q0 -80 -56.5 -130t-146.5 -50zM701 -13q-111 0 -197 45l30 154h5q13 -79 64 -125t123 -46q46 0 73 22.5t27 60.5q0 31 -17.5 51.5t-59.5 38.5l-110 49q-122 54 -122 160q0 75 55 119.5t147 44.5q99 0 180 -43l-34 -140h-5
q-15 75 -59 115.5t-109 40.5q-45 0 -72 -20t-27 -54q0 -28 17.5 -47.5t61.5 -38.5l117 -53q60 -27 87.5 -63.5t27.5 -90.5q0 -80 -56.5 -130t-146.5 -50z" />
    <glyph glyph-name="ampersand.sc" horiz-adv-x="624" 
d="M605 87l4 -3q-14 -44 -48.5 -70.5t-76.5 -26.5q-36 0 -60.5 14.5t-55.5 53.5l-27 33q-47 -101 -158 -101q-67 0 -109 39.5t-42 107.5q0 120 138 162l-7 9q-62 76 -62 134q0 54 43.5 88t112.5 34q80 0 136 -37l-42 -113h-5q0 63 -25 98.5t-70 35.5q-29 0 -46 -13t-17 -36
q0 -21 11 -42t44 -62l228 -277q46 -56 87 -56q29 0 47 28zM256 53q49 0 78 43l-158 193q-53 -29 -53 -94q0 -60 38 -101t95 -41z" />
    <glyph glyph-name="uni00A40301" horiz-adv-x="326" 
d="M192 746h-11l67 114h107v-6zM66 -78q-51 0 -78 12v5q9 -2 24 -2q49 0 75.5 35t26.5 103v528q0 45 -15.5 64t-56.5 26v7h276v-7q-41 -7 -56.5 -27t-15.5 -63v-493q0 -92 -47.5 -140t-132.5 -48z" />
    <glyph glyph-name="i.loclTRK" horiz-adv-x="294" 
d="M144 570q-30 0 -50.5 20t-20.5 50q0 31 20 51t51 20q30 0 50.5 -20.5t20.5 -50.5q0 -29 -20.5 -49.5t-50.5 -20.5zM209 67q0 -29 14.5 -42t50.5 -18v-7h-249v7q36 5 51 18t15 42v324q0 42 -13.5 55t-52.5 13v6l184 50v-448z" />
    <glyph glyph-name="uni006A0301" horiz-adv-x="276" 
d="M150 561h-27l56 139h109v-5zM44 -215q-44 0 -71 12v4q11 -3 22 -3q89 0 89 133v460q0 42 -13 55t-53 13v6l184 50v-554q0 -83 -39 -129.5t-119 -46.5z" />
    <glyph glyph-name="a.ss02" horiz-adv-x="571" 
d="M486 78q0 -34 14 -49.5t51 -21.5v-7h-184v92q-13 -46 -56.5 -76.5t-94.5 -30.5q-84 0 -134.5 65.5t-50.5 172.5q0 132 77 215t201 83q99 0 177 -42v-401zM281 51q67 0 86 58v355q-25 37 -77 37q-59 0 -95.5 -61.5t-36.5 -159.5q0 -103 33.5 -166t89.5 -63z" />
    </font>
</defs>
</svg>
